<svg width="178" height="50" viewBox="0 0 178 50" fill="none" xmlns="http://www.w3.org/2000/svg">
<path fill-rule="evenodd" clip-rule="evenodd" d="M87.9104 36.0009V35.4512C88.4427 35.3829 88.2757 36.0491 88.4389 36.3661C88.2884 36.4884 88.1018 36.5535 87.9104 36.5507C87.9531 36.3501 88.2601 36.4263 88.264 36.1855C88.2562 36.005 88.0464 36.0411 87.9104 36.0009Z" fill="#166772"/>
<path d="M83.5926 27.7488C82.1433 27.7488 80.6901 26.6211 80.6901 24.5022V9.57776C80.185 10.0714 79.5245 11.1308 78.623 12.8604L73.8322 21.962C71.4037 26.585 69.3366 27.7488 66.8382 27.7488H64.806V3.57828H67.2384C67.5631 3.57455 67.8853 3.63759 68.1862 3.76373C68.4871 3.88987 68.7607 4.07658 68.9911 4.313C69.2214 4.54941 69.4039 4.83081 69.528 5.14079C69.652 5.45076 69.715 5.78313 69.7135 6.11853V20.9386C70.3274 20.2323 71.4542 17.8687 71.9632 16.8815L76.2062 8.4822C77.7604 5.41224 79.8742 3.57828 83.1031 3.57828H85.6053V27.7488H83.5926Z" fill="white"/>
<path d="M109.028 10.036C107.474 8.06161 104.366 7.42755 102.209 7.42755C97.7837 7.42755 94.481 10.5296 94.481 15.2209C94.481 20.9033 97.7099 23.7606 102.388 23.7606C104.855 23.7606 107.614 22.8095 108.959 21.433H109.141V23.2309C109.141 26.5496 105.186 27.9622 101.739 27.9622C95.1338 27.9622 89.4725 23.1466 89.4725 15.9231C89.4725 8.48298 94.582 3.21387 102.174 3.21387C106.235 3.21387 109.211 4.81908 109.211 8.15391V10.036H109.028Z" fill="white"/>
<path d="M126.556 7.8123H121.983V27.749H119.986C118.245 27.749 116.974 26.6535 116.974 24.5025V7.8123H109.829V6.20709C109.829 5.04331 110.808 3.5625 112.84 3.5625H129.548V5.07942C129.552 6.25926 128.188 7.8123 126.556 7.8123Z" fill="white"/>
<path d="M142.665 28.172C136.386 28.172 131.308 23.2801 131.308 16.0566C131.308 8.54023 135.66 3.1748 143.209 3.1748C149.232 3.1748 154.567 7.65736 154.567 15.3142C154.567 22.634 150.25 28.172 142.665 28.172ZM142.739 7.42862C139.071 7.42862 136.425 10.3541 136.425 15.2942C136.425 21.1171 138.601 23.9743 143.139 23.9743C146.982 23.9743 149.449 21.2936 149.449 15.9483C149.449 10.2819 146.947 7.42862 142.739 7.42862Z" fill="white"/>
<path d="M174.814 27.8549C173.498 27.8245 172.245 27.2694 171.317 26.3059C168.386 22.9457 165.724 19.3463 163.355 15.5429V27.7506H161.723C159.33 27.7506 158.456 26.1453 158.456 24.4679V3.60014H160.053C162.446 3.60014 163.355 5.15319 163.355 6.84668V14.3791C165.57 11.2008 167.781 7.88606 170.505 5.06089C171.81 3.68442 172.354 3.58008 174.277 3.58008H177.689V3.75665C174.363 7.27133 171.237 10.983 168.329 14.8727C170.66 18.1514 172.898 21.8233 176.057 24.4318C176.621 24.9137 177.286 25.2519 178 25.419C177.569 27.1486 176.807 27.8549 174.814 27.8549Z" fill="white"/>
<path d="M134.703 43.2979H120.35V33.498H121.585V42.11H126.881V33.498H128.144V42.11H133.436V33.498H134.699L134.703 43.2979Z" fill="white"/>
<path d="M137.45 33.498H138.682V37.6275L143.15 33.498H144.868L139.98 37.9846L145.237 43.2979H143.488L139.07 38.7671L138.682 39.1203V43.2979H137.45V33.498Z" fill="white"/>
<path d="M151.065 33.2437C151.757 33.2261 152.444 33.3637 153.08 33.6471C153.715 33.9305 154.283 34.3528 154.745 34.885C155.61 35.8611 156.084 37.1403 156.07 38.4636C156.057 39.7869 155.556 41.0554 154.671 42.0121C153.712 42.9966 152.415 43.5491 151.063 43.5491C149.711 43.5491 148.414 42.9966 147.456 42.0121C146.573 41.0558 146.074 39.789 146.06 38.4676C146.047 37.1462 146.519 35.8687 147.382 34.893C147.843 34.3589 148.412 33.9347 149.048 33.6499C149.684 33.3651 150.372 33.2265 151.065 33.2437ZM151.065 34.4797C150.57 34.4736 150.079 34.5739 149.624 34.7743C149.168 34.9746 148.758 35.2706 148.419 35.6435C148.06 36.0098 147.777 36.4477 147.586 36.9306C147.396 37.4135 147.303 37.9313 147.312 38.4526C147.308 39.1466 147.482 39.8293 147.817 40.431C148.137 41.0256 148.609 41.5183 149.181 41.8556C149.76 42.1795 150.409 42.3491 151.067 42.3491C151.726 42.3491 152.374 42.1795 152.954 41.8556C153.528 41.5207 154 41.0274 154.318 40.431C154.653 39.8293 154.827 39.1466 154.823 38.4526C154.832 37.9309 154.738 37.4127 154.547 36.9297C154.356 36.4467 154.072 36.0091 153.711 35.6435C153.372 35.2705 152.961 34.9745 152.505 34.7742C152.049 34.5738 151.557 34.4736 151.061 34.4797H151.065Z" fill="white"/>
<path d="M166.491 43.2979H165.178L161.961 36.1667L158.775 43.2979H157.446L161.852 33.498H162.073L166.491 43.2979Z" fill="white"/>
<path d="M177.946 33.4962V43.2961H176.726V41.6146C176.251 42.2207 175.656 42.7147 174.981 43.0633C174.062 43.5117 173.03 43.6541 172.028 43.4708C171.026 43.2875 170.105 42.7875 169.39 42.04C168.921 41.562 168.55 40.9903 168.302 40.3597C168.053 39.7291 167.932 39.0528 167.945 38.3721C167.947 37.0139 168.469 35.7119 169.399 34.7507C170.328 33.7896 171.588 33.2477 172.903 33.2434C173.647 33.2354 174.382 33.4115 175.047 33.7571C175.719 34.1323 176.294 34.6675 176.726 35.3182V33.5123L177.946 33.4962ZM173.008 34.4634C172.34 34.4587 171.683 34.6373 171.104 34.9811C170.52 35.3235 170.04 35.8264 169.716 36.4338C169.371 37.0324 169.188 37.7155 169.184 38.4122C169.186 39.1075 169.366 39.7899 169.705 40.3906C170.033 41.0024 170.517 41.5102 171.104 41.8594C171.673 42.2071 172.323 42.3888 172.984 42.3851C173.658 42.3878 174.322 42.2079 174.908 41.8634C175.49 41.5369 175.973 41.0491 176.302 40.4548C176.633 39.8417 176.801 39.1499 176.792 38.4483C176.805 37.9218 176.715 37.398 176.526 36.9089C176.337 36.4197 176.053 35.9755 175.692 35.6031C175.344 35.2342 174.926 34.9429 174.464 34.7469C174.002 34.5509 173.507 34.4545 173.008 34.4634Z" fill="white"/>
<path d="M69.4772 33.2437C70.1684 33.2264 70.8549 33.3642 71.4895 33.6475C72.1241 33.9309 72.6916 34.3531 73.1529 34.885C74.0181 35.8611 74.4919 37.1403 74.4782 38.4636C74.4645 39.7869 73.9643 41.0554 73.0791 42.0121C72.1203 42.9965 70.8233 43.5491 69.4714 43.5491C68.1194 43.5491 66.8224 42.9965 65.8636 42.0121C64.9806 41.0558 64.4819 39.789 64.4682 38.4676C64.4545 37.1462 64.9268 35.8687 65.7898 34.893C66.252 34.3585 66.8211 33.9342 67.4578 33.6494C68.0945 33.3646 68.7836 33.2262 69.4772 33.2437ZM69.4772 34.4797C68.982 34.4731 68.491 34.5732 68.0354 34.7736C67.5798 34.974 67.1697 35.2702 66.8311 35.6435C66.472 36.0098 66.1886 36.4477 65.9982 36.9306C65.8079 37.4135 65.7145 37.9313 65.7238 38.4526C65.7196 39.1466 65.8939 39.8293 66.2289 40.431C66.549 41.0256 67.0206 41.5183 67.5927 41.8556C68.172 42.1795 68.8204 42.3491 69.4791 42.3491C70.1379 42.3491 70.7862 42.1795 71.3656 41.8556C71.9376 41.5183 72.4093 41.0256 72.7294 40.431C73.0643 39.8293 73.2386 39.1466 73.2345 38.4526C73.244 37.9309 73.1503 37.4127 72.9592 36.9297C72.7681 36.4467 72.4837 36.009 72.1232 35.6435C71.7832 35.27 71.3717 34.9737 70.9148 34.7733C70.458 34.573 69.9657 34.473 69.4694 34.4797H69.4772Z" fill="white"/>
<path d="M76.7665 33.4965H78.0021V35.2542C78.4413 34.6376 79.0013 34.1235 79.6457 33.7453C80.2426 33.4133 80.9105 33.2409 81.5885 33.2437C82.2654 33.232 82.9305 33.4275 83.5001 33.8055C84.0546 34.1678 84.4895 34.6953 84.7474 35.3184C85.0569 36.2658 85.1888 37.2655 85.136 38.264V43.3043H83.9004V38.6211C83.9263 37.8666 83.8808 37.1112 83.7644 36.3658C83.6627 35.7991 83.3727 35.2867 82.9445 34.9171C82.4904 34.5693 81.936 34.3897 81.3709 34.4074C80.6337 34.4031 79.9194 34.6722 79.3582 35.1659C78.7838 35.6442 78.3749 36.3017 78.1925 37.04C78.0417 37.9191 77.9818 38.8124 78.0137 39.7046V43.2963H76.7781L76.7665 33.4965Z" fill="white"/>
<path d="M87.6072 29.7031H88.8428V43.2832H87.6072V29.7031Z" fill="white"/>
<path d="M91.8382 29.463C92.1072 29.463 92.3654 29.5725 92.5567 29.7678C92.748 29.9632 92.857 30.2285 92.8601 30.5064C92.8615 30.6432 92.8353 30.7788 92.7831 30.9046C92.731 31.0303 92.6539 31.1435 92.557 31.2367C92.4634 31.3352 92.3514 31.4129 92.2279 31.4654C92.1043 31.5178 91.9717 31.5438 91.8382 31.5417C91.7053 31.5425 91.5737 31.516 91.4509 31.4636C91.3282 31.4113 91.2168 31.3341 91.1232 31.2367C91.0288 31.1419 90.954 31.0283 90.9032 30.9028C90.8524 30.7772 90.8268 30.6424 90.8279 30.5064C90.8271 30.3692 90.8528 30.2332 90.9035 30.1064C90.9542 29.9796 91.0289 29.8646 91.1232 29.768C91.2162 29.6698 91.3275 29.5922 91.4504 29.5398C91.5733 29.4874 91.7052 29.4612 91.8382 29.463ZM91.2242 33.476H92.4598V43.2758H91.2242V33.476Z" fill="white"/>
<path d="M95.032 33.4965H96.2637V35.2542C96.7029 34.6376 97.2629 34.1235 97.9073 33.7453C98.5044 33.4138 99.1721 33.2414 99.85 33.2437C100.527 33.232 101.192 33.4275 101.762 33.8055C102.316 34.1678 102.751 34.6953 103.009 35.3184C103.319 36.2658 103.451 37.2655 103.398 38.264V43.3043H102.158V38.6211C102.184 37.8666 102.138 37.1112 102.022 36.3658C101.921 35.8006 101.634 35.2888 101.21 34.9171C100.748 34.5732 100.186 34.4007 99.6169 34.4275C98.8822 34.424 98.1707 34.6932 97.612 35.186C97.0379 35.6644 96.629 36.3218 96.4463 37.06C96.2955 37.9392 96.2356 38.8325 96.2676 39.7247V43.3164H95.0359L95.032 33.4965Z" fill="white"/>
<path d="M114.141 40.0461L115.175 40.6039C114.884 41.2231 114.489 41.7842 114.009 42.2613C113.569 42.6782 113.056 43.005 112.497 43.2245C111.888 43.4499 111.245 43.56 110.597 43.5495C109.043 43.5495 107.818 43.0265 106.922 41.9804C106.067 41.0068 105.595 39.739 105.597 38.4249C105.587 37.2164 105.984 36.0419 106.72 35.1021C107.166 34.5024 107.744 34.0211 108.406 33.698C109.068 33.3749 109.796 33.2193 110.527 33.2441C111.281 33.2176 112.029 33.3762 112.712 33.7069C113.394 34.0376 113.99 34.5309 114.452 35.1462C115.166 36.1046 115.54 37.2879 115.509 38.4971H106.86C106.843 39.5416 107.225 40.5508 107.924 41.3062C108.255 41.6596 108.653 41.9386 109.093 42.1257C109.533 42.3129 110.005 42.4041 110.481 42.3938C110.968 42.3946 111.452 42.3077 111.911 42.1369C112.337 41.9803 112.732 41.7451 113.076 41.4427C113.498 41.0362 113.857 40.5652 114.141 40.0461ZM114.141 37.4096C114.015 36.8268 113.769 36.2792 113.418 35.8044C113.081 35.3848 112.654 35.0523 112.171 34.8332C111.658 34.5858 111.098 34.4583 110.531 34.46C109.638 34.4416 108.77 34.7727 108.103 35.387C107.55 35.9406 107.161 36.6447 106.98 37.4176L114.141 37.4096Z" fill="white"/>
<path d="M57.4089 45.6279H0V49.6129H57.4089V45.6279Z" fill="white"/>
<path fill-rule="evenodd" clip-rule="evenodd" d="M0 44.4495H57.4089L50.0535 33.2451H6.45388L0 44.4495Z" fill="white"/>
<path fill-rule="evenodd" clip-rule="evenodd" d="M5.47858 40.2712H51.1298L48.1651 34.8496H8.31113L5.47858 40.2712Z" fill="#261F56"/>
<path d="M51.5766 29.8489C51.5766 31.1853 50.3876 32.2568 48.9189 32.2568H7.025C5.55626 32.2568 4.3634 31.1732 4.3634 29.8489V3.21446C4.3634 1.88213 5.55626 0.806641 7.025 0.806641H48.9189C50.3876 0.806641 51.5766 1.89016 51.5766 3.21446V29.8489Z" fill="white"/>
<path fill-rule="evenodd" clip-rule="evenodd" d="M48.025 1.30272L51.0596 4.48104C51.0968 4.05817 51.0525 3.63187 50.9291 3.22683C50.8057 2.82179 50.6057 2.44606 50.3408 2.12138C49.5481 1.1743 48.025 1.30272 48.025 1.30272Z" fill="#3B818C"/>
<path d="M48.0221 4.38184H7.85724V28.2955H48.0221V4.38184Z" fill="#261F56"/>
<path fill-rule="evenodd" clip-rule="evenodd" d="M7.80981 1.42132L4.93061 4.48326C4.85758 4.1091 4.86901 3.72258 4.96403 3.35372C5.05904 2.98486 5.23508 2.64358 5.47847 2.35636C6.60529 1.13238 7.80981 1.42132 7.80981 1.42132Z" fill="#3B818C"/>
<path fill-rule="evenodd" clip-rule="evenodd" d="M48.0718 31.6076L51.1064 28.1523C51.1826 29.0213 50.9243 29.8864 50.3876 30.5602C50.1007 30.9009 49.7442 31.1716 49.3437 31.3528C48.9432 31.5339 48.5088 31.6209 48.0718 31.6076Z" fill="#3B818C"/>
<path fill-rule="evenodd" clip-rule="evenodd" d="M7.85657 31.7058L4.98124 28.5596C4.90694 28.9423 4.91727 29.3374 5.01146 29.7154C5.10565 30.0934 5.28127 30.4445 5.52522 30.7427C6.65981 31.9947 7.85657 31.7058 7.85657 31.7058Z" fill="#3B818C"/>
<path fill-rule="evenodd" clip-rule="evenodd" d="M24.4482 8.61133L34.2786 16.2521L24.4365 23.8969L24.4482 8.61133Z" fill="white"/>
</svg>
