<svg width="164" height="46" viewBox="0 0 164 46" fill="none" xmlns="http://www.w3.org/2000/svg">
<path fill-rule="evenodd" clip-rule="evenodd" d="M80.9961 33.0777V32.572C81.4866 32.5092 81.3326 33.122 81.483 33.4136C81.3444 33.526 81.1725 33.586 80.9961 33.5834C81.0355 33.3988 81.3183 33.469 81.3219 33.2475C81.3147 33.0814 81.1214 33.1146 80.9961 33.0777Z" fill="#166772"/>
<path d="M77.0182 25.4884C75.6829 25.4884 74.344 24.4512 74.344 22.5022V8.77416C73.8786 9.22819 73.27 10.2027 72.4395 11.7937L68.0254 20.1656C65.788 24.418 63.8834 25.4884 61.5815 25.4884H59.7092V3.25564H61.9503C62.2495 3.25221 62.5463 3.31019 62.8236 3.42622C63.1008 3.54224 63.3529 3.71399 63.5651 3.93145C63.7773 4.14892 63.9455 4.40775 64.0598 4.69288C64.174 4.97801 64.2321 5.28373 64.2307 5.59224V19.2243C64.7963 18.5746 65.8345 16.4004 66.3035 15.4924L70.2128 7.76643C71.6447 4.94257 73.5922 3.25564 76.5672 3.25564H78.8726V25.4884H77.0182Z" fill="#261F56"/>
<path d="M100.453 9.19504C99.0214 7.37891 96.1574 6.79568 94.1706 6.79568C90.093 6.79568 87.0501 9.64907 87.0501 13.9642C87.0501 19.1911 90.025 21.8193 94.3352 21.8193C96.6085 21.8193 99.1503 20.9445 100.389 19.6784H100.557V21.3321C100.557 24.3848 96.9128 25.6842 93.7374 25.6842C87.6515 25.6842 82.4355 21.2546 82.4355 14.6102C82.4355 7.7665 87.1432 2.9198 94.1384 2.9198C97.8794 2.9198 100.622 4.39633 100.622 7.46381V9.19504H100.453Z" fill="#261F56"/>
<path d="M116.602 7.14995H112.389V25.4884H110.549C108.945 25.4884 107.774 24.4807 107.774 22.5021V7.14995H101.191V5.67342C101.191 4.60294 102.093 3.24084 103.965 3.24084H119.359V4.63616C119.362 5.72141 118.106 7.14995 116.602 7.14995Z" fill="#261F56"/>
<path d="M131.445 25.876C125.659 25.876 120.98 21.3763 120.98 14.7319C120.98 7.8181 124.99 2.88281 131.946 2.88281C137.495 2.88281 142.41 7.00602 142.41 14.0491C142.41 20.782 138.433 25.876 131.445 25.876ZM131.513 6.79561C128.133 6.79561 125.695 9.48658 125.695 14.0306C125.695 19.3867 127.7 22.0149 131.881 22.0149C135.422 22.0149 137.695 19.5491 137.695 14.6323C137.695 9.42014 135.39 6.79561 131.513 6.79561Z" fill="#261F56"/>
<path d="M161.065 25.5844C159.853 25.5564 158.698 25.0458 157.843 24.1595C155.143 21.0687 152.69 17.7579 150.507 14.2594V25.4884H149.004C146.799 25.4884 145.993 24.0119 145.993 22.4689V3.27407H147.465C149.67 3.27407 150.507 4.70261 150.507 6.26035V13.189C152.548 10.2654 154.585 7.2164 157.095 4.61771C158.297 3.35159 158.799 3.25562 160.571 3.25562H163.714V3.41803C160.649 6.65095 157.77 10.065 155.09 13.643C157.238 16.6588 159.3 20.0363 162.21 22.4357C162.73 22.879 163.343 23.1901 164 23.3438C163.603 24.9347 162.901 25.5844 161.065 25.5844Z" fill="#261F56"/>
<path d="M124.109 39.7886H110.885V30.7744H112.023V38.696H116.902V30.7744H118.066V38.696H122.942V30.7744H124.105L124.109 39.7886Z" fill="#261F56"/>
<path d="M126.64 30.7744H127.775V34.5728L131.892 30.7744H133.474L128.97 34.9013L133.814 39.7886H132.203L128.133 35.6211L127.775 35.9459V39.7886H126.64V30.7744Z" fill="#261F56"/>
<path d="M139.184 30.5418C139.821 30.5256 140.455 30.6522 141.04 30.9128C141.625 31.1735 142.149 31.562 142.574 32.0515C143.372 32.9494 143.808 34.126 143.795 35.3433C143.783 36.5605 143.322 37.7273 142.506 38.6073C141.623 39.5128 140.428 40.021 139.182 40.021C137.937 40.021 136.742 39.5128 135.858 38.6073C135.045 37.7276 134.585 36.5624 134.573 35.3469C134.56 34.1315 134.995 32.9563 135.79 32.0589C136.216 31.5676 136.739 31.1774 137.325 30.9154C137.911 30.6535 138.546 30.526 139.184 30.5418ZM139.184 31.6787C138.728 31.6731 138.276 31.7654 137.856 31.9497C137.436 32.134 137.058 32.4062 136.746 32.7492C136.415 33.0862 136.154 33.489 135.979 33.9331C135.803 34.3773 135.717 34.8536 135.726 35.3331C135.722 35.9715 135.883 36.5995 136.191 37.1529C136.486 37.6999 136.921 38.1531 137.448 38.4633C137.982 38.7612 138.579 38.9172 139.186 38.9172C139.793 38.9172 140.39 38.7612 140.924 38.4633C141.453 38.1552 141.888 37.7015 142.181 37.1529C142.489 36.5995 142.65 35.9715 142.646 35.3331C142.655 34.8533 142.568 34.3766 142.392 33.9323C142.216 33.4881 141.954 33.0855 141.622 32.7492C141.309 32.4061 140.931 32.1338 140.51 31.9496C140.09 31.7653 139.637 31.6731 139.181 31.6787H139.184Z" fill="#261F56"/>
<path d="M153.397 39.7886H152.187L149.222 33.2291L146.287 39.7886H145.063L149.122 30.7744H149.326L153.397 39.7886Z" fill="#261F56"/>
<path d="M163.95 30.7744V39.7886H162.826V38.242C162.389 38.7995 161.841 39.2539 161.219 39.5745C160.371 39.987 159.421 40.118 158.498 39.9494C157.575 39.7807 156.726 39.3209 156.067 38.6332C155.635 38.1936 155.294 37.6677 155.065 37.0877C154.836 36.5076 154.724 35.8855 154.736 35.2594C154.737 34.0101 155.219 32.8124 156.075 31.9283C156.931 31.0443 158.092 30.5458 159.304 30.5419C159.989 30.5344 160.667 30.6965 161.28 31.0144C161.899 31.3595 162.429 31.8518 162.826 32.4503V30.7892L163.95 30.7744ZM159.4 31.664C158.785 31.6597 158.18 31.824 157.646 32.1402C157.108 32.4552 156.666 32.9178 156.368 33.4765C156.05 34.0271 155.881 34.6554 155.878 35.2963C155.879 35.9358 156.045 36.5636 156.357 37.1161C156.66 37.6788 157.105 38.1459 157.646 38.4671C158.171 38.7869 158.769 38.9541 159.379 38.9507C160 38.9531 160.611 38.7877 161.151 38.4708C161.688 38.1705 162.133 37.7218 162.436 37.1752C162.74 36.6112 162.896 35.9748 162.887 35.3295C162.899 34.8452 162.816 34.3634 162.642 33.9135C162.467 33.4635 162.206 33.0549 161.874 32.7124C161.553 32.3731 161.167 32.1051 160.742 31.9248C160.317 31.7446 159.86 31.6558 159.4 31.664Z" fill="#261F56"/>
<path d="M64.0128 30.5418C64.6496 30.5259 65.2821 30.6526 65.8668 30.9133C66.4515 31.1739 66.9744 31.5623 67.3994 32.0515C68.1966 32.9494 68.633 34.126 68.6204 35.3432C68.6078 36.5605 68.147 37.7272 67.3314 38.6073C66.448 39.5128 65.253 40.021 64.0074 40.021C62.7618 40.021 61.5668 39.5128 60.6834 38.6073C59.8699 37.7276 59.4104 36.5624 59.3977 35.3469C59.3851 34.1314 59.8203 32.9563 60.6154 32.0589C61.0412 31.5672 61.5656 31.1769 62.1522 30.915C62.7389 30.653 63.3737 30.5257 64.0128 30.5418ZM64.0128 31.6787C63.5566 31.6726 63.1042 31.7647 62.6844 31.949C62.2646 32.1333 61.8868 32.4059 61.5748 32.7492C61.2439 33.0861 60.9828 33.4889 60.8074 33.9331C60.632 34.3773 60.546 34.8536 60.5546 35.3331C60.5507 35.9715 60.7113 36.5995 61.0199 37.1529C61.3149 37.6999 61.7494 38.1531 62.2765 38.4633C62.8103 38.7612 63.4076 38.9172 64.0146 38.9172C64.6215 38.9172 65.2188 38.7612 65.7526 38.4633C66.2797 38.1531 66.7143 37.6999 67.0092 37.1529C67.3178 36.5995 67.4784 35.9715 67.4746 35.3331C67.4833 34.8532 67.397 34.3766 67.2209 33.9323C67.0449 33.488 66.7828 33.0854 66.4507 32.7492C66.1374 32.4057 65.7583 32.1331 65.3373 31.9488C64.9164 31.7645 64.4629 31.6725 64.0056 31.6787H64.0128Z" fill="#261F56"/>
<path d="M70.7289 30.7744H71.8673V32.3912C72.2719 31.824 72.7879 31.3511 73.3816 31.0032C73.9316 30.6979 74.547 30.5393 75.1716 30.5418C75.7953 30.5311 76.4081 30.7109 76.9329 31.0586C77.4438 31.3918 77.8445 31.8771 78.0821 32.4502C78.3673 33.3217 78.4888 34.2413 78.4401 35.1597V39.796H77.3017V35.4882C77.3256 34.7941 77.2836 34.0993 77.1764 33.4137C77.0827 32.8924 76.8155 32.4211 76.421 32.0811C76.0026 31.7612 75.4918 31.596 74.9711 31.6123C74.2919 31.6083 73.6339 31.8559 73.1167 32.31C72.5875 32.7499 72.2108 33.3547 72.0427 34.0338C71.9038 34.8425 71.8486 35.6641 71.878 36.4849V39.7886H70.7396L70.7289 30.7744Z" fill="#261F56"/>
<path d="M80.7168 27.2823H81.8552V39.7738H80.7168V27.2823Z" fill="#261F56"/>
<path d="M84.615 27.0647C84.8629 27.0646 85.1007 27.1654 85.277 27.3451C85.4533 27.5247 85.5537 27.7688 85.5565 28.0244C85.5579 28.1502 85.5338 28.275 85.4857 28.3907C85.4376 28.5064 85.3666 28.6104 85.2773 28.6962C85.1911 28.7868 85.0879 28.8583 84.9741 28.9065C84.8602 28.9547 84.7381 28.9786 84.615 28.9768C84.4926 28.9775 84.3714 28.9531 84.2583 28.9049C84.1451 28.8567 84.0425 28.7858 83.9563 28.6962C83.8693 28.609 83.8004 28.5045 83.7536 28.389C83.7068 28.2735 83.6832 28.1495 83.6842 28.0244C83.6835 27.8982 83.7072 27.7731 83.7539 27.6565C83.8006 27.5399 83.8694 27.4341 83.9563 27.3452C84.042 27.2549 84.1446 27.1835 84.2578 27.1353C84.371 27.0871 84.4925 27.0631 84.615 27.0647ZM84.0494 30.756H85.1878V39.7702H84.0494V30.756Z" fill="#261F56"/>
<path d="M87.5577 30.7744H88.6926V32.3912C89.0972 31.824 89.6132 31.3511 90.2069 31.0032C90.757 30.6984 91.3723 30.5398 91.9969 30.5418C92.6206 30.5311 93.2334 30.7109 93.7582 31.0586C94.269 31.3918 94.6698 31.8771 94.9073 32.4502C95.1928 33.3217 95.3143 34.2413 95.2653 35.1597V39.796H94.1233V35.4882C94.1473 34.7941 94.1053 34.0993 93.998 33.4137C93.9051 32.8938 93.6408 32.4231 93.2498 32.0811C92.8237 31.7648 92.3066 31.6061 91.7821 31.6308C91.1051 31.6276 90.4496 31.8751 89.9348 32.3284C89.4058 32.7685 89.0291 33.3732 88.8608 34.0523C88.7219 34.861 88.6667 35.6826 88.6962 36.5033V39.807H87.5613L87.5577 30.7744Z" fill="#261F56"/>
<path d="M105.164 36.7986L106.116 37.3117C105.848 37.8812 105.484 38.3973 105.042 38.8362C104.636 39.2196 104.164 39.5202 103.65 39.7221C103.088 39.9295 102.495 40.0308 101.899 40.0211C100.467 40.0211 99.3381 39.54 98.5123 38.5778C97.7249 37.6822 97.2896 36.5161 97.2915 35.3073C97.2827 34.1957 97.6483 33.1154 98.3261 32.2509C98.7373 31.6993 99.27 31.2565 99.8801 30.9593C100.49 30.6621 101.16 30.519 101.834 30.5418C102.528 30.5175 103.218 30.6634 103.847 30.9676C104.475 31.2718 105.025 31.7255 105.45 32.2915C106.109 33.1731 106.452 34.2615 106.424 35.3737H98.455C98.4398 36.3345 98.7922 37.2628 99.4359 37.9577C99.7406 38.2827 100.107 38.5393 100.512 38.7115C100.918 38.8836 101.353 38.9675 101.792 38.958C102.241 38.9587 102.686 38.8788 103.109 38.7218C103.501 38.5777 103.865 38.3613 104.183 38.0832C104.572 37.7093 104.903 37.276 105.164 36.7986ZM105.164 34.3734C105.048 33.8374 104.821 33.3336 104.498 32.8969C104.188 32.511 103.794 32.2051 103.349 32.0036C102.876 31.7759 102.36 31.6587 101.838 31.6603C101.015 31.6433 100.215 31.9479 99.6006 32.513C99.0914 33.0222 98.7327 33.6698 98.566 34.3808L105.164 34.3734Z" fill="#261F56"/>
<path d="M52.8935 41.9331H0V45.5986H52.8935V41.9331Z" fill="#261F56"/>
<path fill-rule="evenodd" clip-rule="evenodd" d="M0 40.8479H52.8935L46.1167 30.5417H5.94627L0 40.8479Z" fill="#261F56"/>
<path fill-rule="evenodd" clip-rule="evenodd" d="M5.04761 37.0054H47.1083L44.3768 32.0184H7.65738L5.04761 37.0054Z" fill="white"/>
<path d="M47.5201 27.4189C47.5201 28.6481 46.4246 29.6337 45.0714 29.6337H6.47252C5.1193 29.6337 4.02026 28.637 4.02026 27.4189V2.91963C4.02026 1.69411 5.1193 0.704834 6.47252 0.704834H45.0714C46.4246 0.704834 47.5201 1.70149 47.5201 2.91963V27.4189Z" fill="#261F56"/>
<path fill-rule="evenodd" clip-rule="evenodd" d="M44.2479 1.16248L47.0438 4.08601C47.0781 3.69704 47.0372 3.30491 46.9236 2.93234C46.8099 2.55978 46.6257 2.21416 46.3815 1.91551C45.6512 1.04436 44.2479 1.16248 44.2479 1.16248Z" fill="#3B818C"/>
<path d="M44.245 3.99377H7.2392V25.9903H44.245V3.99377Z" fill="white"/>
<path fill-rule="evenodd" clip-rule="evenodd" d="M7.19553 1.26965L4.54279 4.08612C4.4755 3.74195 4.48603 3.38642 4.57357 3.04713C4.66111 2.70784 4.82331 2.39392 5.04756 2.12972C6.08575 1.00387 7.19553 1.26965 7.19553 1.26965Z" fill="#3B818C"/>
<path fill-rule="evenodd" clip-rule="evenodd" d="M44.2909 29.0358L47.0868 25.8575C47.157 26.6569 46.9191 27.4526 46.4245 28.0723C46.1602 28.3858 45.8317 28.6348 45.4628 28.8014C45.0938 28.968 44.6935 29.0481 44.2909 29.0358Z" fill="#3B818C"/>
<path fill-rule="evenodd" clip-rule="evenodd" d="M7.23857 29.128L4.58939 26.234C4.52093 26.586 4.53045 26.9495 4.61723 27.2972C4.70401 27.6449 4.86582 27.9679 5.09058 28.2421C6.13594 29.3938 7.23857 29.128 7.23857 29.128Z" fill="#3B818C"/>
<path fill-rule="evenodd" clip-rule="evenodd" d="M22.5253 7.8844L31.5825 14.9127L22.5145 21.9446L22.5253 7.8844Z" fill="#2E3247"/>
</svg>
