<svg width="218" height="218" viewBox="0 0 218 218" fill="none" xmlns="http://www.w3.org/2000/svg">
<mask id="mask0" mask-type="alpha" maskUnits="userSpaceOnUse" x="28" y="41" width="149" height="166">
<path fill-rule="evenodd" clip-rule="evenodd" d="M170.55 100.348C178.455 92.9243 180.218 68.5188 159.391 52.2518C136.589 34.4416 101.864 39.6992 82.4546 64.9787L81.7082 65.9487C69.554 81.7067 59.1623 93.3025 40.5687 105.669C26.6668 114.916 17.5951 157.093 58.2637 189.654C98.9323 222.216 156.663 204.709 157.134 169.68C157.765 122.892 153.247 116.595 170.55 100.348Z" fill="#261F56"/>
</mask>
<g mask="url(#mask0)">
<path fill-rule="evenodd" clip-rule="evenodd" d="M170.549 100.348C178.455 92.9242 180.218 68.5187 159.391 52.2517C136.589 34.4415 101.864 39.6991 82.4546 64.9786L81.7082 65.9486C69.554 81.7066 59.1623 93.3024 40.5687 105.669C26.6668 114.916 17.5951 157.093 58.2637 189.654C98.9323 222.215 156.663 204.708 157.134 169.679C157.765 122.892 153.247 116.595 170.549 100.348Z" fill="#261F56"/>
<path fill-rule="evenodd" clip-rule="evenodd" d="M104.171 96.8633C103.28 94.5722 101.594 92.701 100.134 90.7236C96.2307 85.4362 93.8102 79.0662 93.2172 72.5209C92.9007 69.0268 94.1026 51.9726 100.459 47.9718C97.3207 47.0057 94.1026 45.9983 91.5287 43.9598C88.9549 41.9213 87.1334 38.5886 87.826 35.3792C88.8743 30.5216 95.1833 28.4361 99.8893 30.0327C104.595 31.6293 107.98 35.6685 111.113 39.5265C114.108 39.2742 114.851 34.8613 117.587 33.6159C119.432 32.7759 121.577 33.6372 123.366 34.5914C128.571 37.3682 133.447 41.176 136.199 46.3945C138.952 51.613 139.19 58.425 135.683 63.1693C136.961 61.7068 139.608 63.5258 139.457 65.4618C139.305 67.3979 137.595 68.8028 135.962 69.8541C134.33 70.9054 132.505 71.9953 131.86 73.827C130.236 78.4377 127.656 82.7093 124.33 86.2924C122.299 88.4817 119.966 90.4514 118.459 93.0301C116.952 95.6088 116.449 99.0744 118.207 101.489C120.544 99.0015 124.572 98.302 127.611 99.8561C130.65 101.41 132.442 105.086 131.793 108.437C136.028 108.8 139.832 112.155 140.723 116.311C149.309 124.966 156.322 135.176 161.318 146.297C164.49 153.355 166.845 160.748 169.193 168.121C170.112 171.007 171.041 174.029 170.53 177.013C169.491 183.073 162.916 186.644 156.809 187.361C149.206 188.254 141.284 186.036 135.249 181.326C132.026 191.349 128.808 202.298 132.473 212.17C133.257 214.284 131.688 216.685 129.638 217.624C127.588 218.563 125.229 218.426 122.979 218.27C110.371 217.396 97.7628 216.522 85.1547 215.648C82.5125 215.465 78.9002 213.911 79.8354 211.433C81.9238 205.899 82.5206 199.811 81.5463 193.977C80.8029 197.906 79.514 201.731 77.7279 205.309C77.7279 205.309 71.4345 218.27 65.1582 211.618C61.581 204.39 61.4268 195.927 62.4827 187.932C63.5386 179.936 65.7214 172.113 66.5743 164.093C67.4052 156.281 66.9637 148.375 67.7763 140.561C68.5888 132.746 70.8348 124.744 76.1685 118.975C80.3886 114.411 84.6087 109.847 88.8289 105.283C89.9651 104.054 91.1628 102.783 92.734 102.206C94.3052 101.63 96.3591 101.997 97.1672 103.462C98.1633 102.223 99.3288 100.887 100.91 100.722C102.491 100.556 104.142 102.493 103.126 103.717C104.946 102.064 105.061 99.1543 104.171 96.8633Z" fill="white"/>
<path fill-rule="evenodd" clip-rule="evenodd" d="M137.816 116.31C146.402 124.965 153.415 135.176 158.411 146.296C161.583 153.355 163.938 160.747 166.286 168.121C167.205 171.006 168.135 174.028 167.623 177.013C166.584 183.073 160.009 186.643 153.903 187.361C146.299 188.254 138.865 185.573 132.83 180.862C129.607 190.886 125.901 202.298 129.566 212.169C129.898 213.064 130.764 214.076 130.395 214.94C129.892 216.119 127.914 217.082 126.731 217.623C126.42 217.766 127.251 214.817 127.215 210.489C127.153 203.123 124.065 177.534 131.334 179.224C149.089 183.353 162.475 182.713 162.755 178.308C164.181 155.947 136.925 112.154 137.816 116.31Z" fill="#E7EAEE"/>
<path fill-rule="evenodd" clip-rule="evenodd" d="M99.0669 91.9955L99.0669 91.9955C98.7407 91.5729 98.4147 91.1507 98.0994 90.7236C94.1961 85.4362 91.7755 79.0662 91.1826 72.5209C90.8661 69.0268 92.0679 51.9726 98.424 47.9718C95.286 47.0057 92.0679 45.9983 89.4941 43.9598C86.9202 41.9213 85.0987 38.5886 85.7913 35.3792C86.8396 30.5216 93.1486 28.4361 97.8546 30.0327C102.561 31.6293 105.946 35.6685 109.078 39.5265C110.728 39.3876 111.694 37.9864 112.687 36.5475C113.496 35.374 114.323 34.1754 115.552 33.6159C117.397 32.7759 119.542 33.6372 121.331 34.5914C126.537 37.3682 131.412 41.176 134.165 46.3945C136.917 51.613 137.156 58.425 133.648 63.1693C134.926 61.7068 137.573 63.5258 137.422 65.4618C137.271 67.3979 135.561 68.8028 133.928 69.8541L133.848 69.9055L133.668 70.0208L133.666 70.0224C132.104 71.0235 130.436 72.0928 129.825 73.827C128.201 78.4377 125.621 82.7093 122.296 86.2924C121.755 86.8751 121.193 87.4421 120.631 88.0093C119.081 89.5732 117.531 91.1377 116.425 93.0301C114.918 95.6088 114.414 99.0744 116.172 101.489C118.509 99.0015 122.538 98.302 125.577 99.8561C128.616 101.41 130.407 105.086 129.758 108.437C133.993 108.8 137.797 112.155 138.688 116.311C147.274 124.966 154.287 135.176 159.283 146.297C162.455 153.355 164.81 160.748 167.158 168.121C168.077 171.007 169.007 174.029 168.495 177.013C167.456 183.073 160.881 186.644 154.775 187.361C147.172 188.254 139.249 186.036 133.215 181.326C129.991 191.349 126.774 202.298 130.438 212.17C130.762 213.044 130.684 213.967 130.337 214.815C127.95 209.63 127.513 203.712 128.152 198.037C128.795 192.317 130.477 186.771 132.151 181.264C132.429 180.35 130.978 180.109 130.032 179.979C128.353 179.749 127.134 178.318 126.084 176.988L121.814 171.578C119.058 168.087 115.88 164.34 111.484 163.664C110.265 163.476 109.031 163.545 107.795 163.613H107.795C107.042 163.655 106.289 163.696 105.538 163.68C102.62 163.618 99.7277 162.657 97.3522 160.962C96.7826 160.556 96.2045 160.047 96.0876 159.357C95.9734 158.683 96.5823 157.893 97.229 158.064C95.1706 157.443 93.2106 156.498 91.4434 155.273C91.1177 155.048 90.7855 154.797 90.6177 154.438C90.2551 153.663 90.8552 152.713 91.6462 152.385C92.4373 152.058 93.3332 152.177 94.1801 152.302C93.1698 152.097 92.1281 151.879 91.2815 151.29C90.4349 150.702 89.8283 149.64 90.0904 148.643C90.3525 147.646 91.7265 147.029 92.5012 147.709C92.1634 146.702 92.8959 145.587 93.8545 145.13C94.8131 144.674 95.9239 144.71 96.9842 144.768C101.433 145.014 105.869 145.488 110.268 146.19L109.624 137.139C109.598 136.77 109.566 136.383 109.366 136.072C109.109 135.673 108.635 135.483 108.19 135.318C99.2349 132.001 90.0219 129.378 80.6616 127.482L82.7585 166.766C82.8228 167.971 83.1584 169.499 84.3485 169.695C91.7436 170.912 98.9976 172.984 105.92 175.855C106.892 176.258 107.604 174.897 107.783 173.86L109.556 163.579C109.803 167.925 109.181 172.318 107.738 176.425C108.842 176.685 109.48 175.227 109.657 174.108L111.259 163.948C111.531 167.549 111.217 171.195 110.33 174.696C110.127 175.5 109.817 176.389 109.066 176.739C108.429 177.036 107.684 176.843 107.01 176.647L83.586 169.816C83.2178 169.708 82.8333 169.592 82.5603 169.322C82.154 168.921 82.0985 168.295 82.0671 167.725L80.1177 132.303C79.9913 130.007 80.1168 127.705 80.2423 125.409L80.8848 113.648C77.1145 126.93 76.7584 141.008 78.3468 154.723C79.9351 168.437 83.4239 181.858 87.2465 195.124C85.6382 192.373 84.4636 189.369 83.7791 186.257C81.9094 188.933 79.9476 191.983 80.481 195.204C81.3769 200.612 80.8057 206.257 78.8443 211.377C78.397 212.544 79.2012 213.891 80.3024 214.483C81.4036 215.076 82.7097 215.105 83.9599 215.121L100.605 215.327C100.146 214.745 100.311 213.778 100.938 213.381C100.771 215.19 103.091 216.042 104.891 216.286C113.396 217.443 122.437 218.528 130.253 215.006C129.732 216.13 128.742 217.102 127.603 217.624C125.553 218.563 123.194 218.426 120.945 218.27L83.12 215.648C80.4779 215.465 76.8655 213.911 77.8007 211.433C79.8891 205.899 80.4859 199.811 79.5116 193.977C78.7683 197.906 77.4793 201.731 75.6933 205.309C76.4258 199.335 78.4285 193.52 81.5298 188.362C83.7373 184.691 82.4656 180.019 81.3317 175.888C75.9635 156.329 75.1313 135.54 78.9189 115.615C70.8352 121.524 67.4605 132.009 66.5016 141.976C66.1008 146.144 66.0345 150.34 65.9682 154.533C65.876 160.369 65.7839 166.201 64.7898 171.942C64.3357 174.565 63.6949 177.157 63.0547 179.747C62.0431 183.84 61.0326 187.927 60.7611 192.124C60.3372 198.679 61.7344 205.199 63.1235 211.618C59.5463 204.39 59.3921 195.927 60.448 187.932C60.9326 184.262 61.6545 180.629 62.3763 176.997L62.3764 176.997C63.2274 172.714 64.0782 168.432 64.5397 164.093C64.9581 160.158 65.0539 156.2 65.1496 152.242C65.2439 148.341 65.3383 144.44 65.7416 140.561C66.5541 132.746 68.8001 124.744 74.1339 118.975L86.7942 105.283C87.9304 104.054 89.1281 102.783 90.6993 102.206C92.2705 101.63 94.3245 101.997 95.1325 103.462C96.1287 102.223 97.2942 100.887 98.8754 100.722C100.457 100.556 102.107 102.493 101.092 103.717C102.911 102.064 103.026 99.1543 102.136 96.8633C101.438 95.0671 100.251 93.529 99.0669 91.9955ZM130.253 215.006C130.27 214.97 130.286 214.934 130.302 214.898L130.315 214.866L130.326 214.84L130.337 214.815L130.362 214.871L130.395 214.941C130.348 214.963 130.301 214.984 130.253 215.006ZM167.631 173.698C168.059 177.268 166.145 180.856 163.306 183.061C160.466 185.266 156.831 186.235 153.244 186.481C145.692 187 137.974 184.411 132.263 179.444C136.647 174.95 136.892 167.055 132.794 162.298C136.32 160.659 139.924 158.996 143.789 158.571C147.654 158.146 151.895 159.172 154.407 162.139C154.837 162.646 155.208 163.199 155.579 163.752C156.035 164.431 156.491 165.109 157.052 165.7C156.565 162.483 154.057 159.795 151.055 158.54C148.052 157.284 144.637 157.312 141.46 158.019C138.283 158.725 135.291 160.072 132.324 161.41C131.76 161.664 131.338 160.852 131.246 160.241L130.715 156.695C130.495 155.233 130.519 153.32 131.896 152.783C132.93 152.38 132.659 150.802 131.974 149.928C131.86 149.782 131.737 149.635 131.613 149.487L131.613 149.487L131.613 149.486L131.613 149.486C130.996 148.748 130.349 147.972 130.513 147.063C132.248 137.402 133.993 127.703 137.08 118.387C137.176 118.098 137.292 117.785 137.556 117.633C137.911 117.426 138.36 117.605 138.718 117.807C141.611 119.442 143.34 122.362 145.064 125.276L145.065 125.276L145.065 125.276L145.065 125.276L145.065 125.277L145.065 125.277L145.065 125.277L145.065 125.277L145.065 125.277L145.065 125.277L145.065 125.277L145.065 125.277L145.065 125.277L145.065 125.278L145.065 125.278C145.674 126.306 146.282 127.333 146.94 128.302C147.957 129.799 149.121 131.184 150.286 132.57L150.286 132.57L150.286 132.57L150.286 132.57L150.286 132.57L150.286 132.57L150.286 132.571L150.286 132.571L150.286 132.571L150.286 132.571L150.286 132.571L150.287 132.571L150.287 132.571L150.287 132.571L150.287 132.571C151.152 133.6 152.017 134.63 152.822 135.705C157.784 142.334 160.218 150.307 162.657 158.296L162.657 158.297C163.77 161.941 164.884 165.589 166.239 169.115C166.294 169.258 166.35 169.401 166.405 169.544C166.93 170.897 167.458 172.261 167.631 173.698ZM128.754 152.836C129.462 152.829 130.204 152.814 130.823 152.472C131.443 152.13 131.882 151.347 131.595 150.699C131.322 150.085 130.538 149.863 129.871 149.95C129.485 150.001 129.116 150.127 128.747 150.254C128.478 150.345 128.21 150.437 127.934 150.5C126.562 150.814 125.162 150.401 123.769 149.989C122.261 149.544 120.762 149.101 119.318 149.587C120.252 148.04 120.19 146.128 120.132 144.31L120.123 144.026C119.826 134.375 121.968 124.659 126.293 116.028C124.697 117.17 123.551 118.925 123.148 120.847C123.1 121.075 123.062 121.307 123.023 121.538C122.925 122.133 122.827 122.728 122.565 123.266C121.501 125.449 118.497 125.611 116.078 125.392C114.096 125.214 112.019 124.953 110.405 123.79C109.595 123.206 108.943 122.422 108.295 121.643C107.432 120.606 106.575 119.576 105.361 119.036C103.347 118.14 101.195 118.886 99.0176 119.642C97.0504 120.324 95.0625 121.014 93.1372 120.506C92.0523 120.22 91.302 121.552 90.9763 122.626L89.5576 127.304C88.8958 124.747 89.7042 121.862 91.5985 120.021C90.7872 119.489 91.0057 118.397 91.222 117.315C91.4411 116.22 91.6579 115.135 90.8003 114.655C88.2113 113.207 87.699 109.767 87.4779 106.809C84.184 108.025 82.3046 111.586 81.7254 115.049C81.384 117.09 81.3879 119.162 81.3919 121.236V121.236C81.3946 122.681 81.3974 124.126 81.2834 125.564C91.2148 127.508 101.004 130.179 110.546 133.547C111.131 133.754 111.744 133.983 112.134 134.465C112.553 134.983 112.632 135.689 112.693 136.353C113.005 139.708 113.299 143.202 112.098 146.351L112.108 136.538C112.109 135.995 112.016 135.315 111.499 135.149C110.695 134.89 110.317 136.119 110.384 136.961L110.958 144.256C111.037 145.254 111.182 146.379 111.986 146.977L97.547 145.527C96.0471 145.376 94.2497 145.351 93.3725 146.577C93.5168 147.75 94.9188 148.242 96.0756 148.483L105.266 150.399C102.39 150.994 99.3676 150.461 96.6466 149.355C96.4401 149.272 96.2342 149.184 96.0281 149.097L96.0278 149.097L96.0276 149.097L96.0274 149.097L96.0273 149.096C95.1659 148.731 94.3013 148.365 93.3777 148.243C92.233 148.091 90.9393 148.403 90.2745 149.347C94.3867 152.067 99.1659 153.77 104.071 154.263C104.042 154.796 103.332 154.955 102.8 154.916C101.416 154.816 100.086 154.41 98.7539 154.004L98.7538 154.004L98.7537 154.004L98.7536 154.004L98.7535 154.004L98.7535 154.003L98.7534 154.003L98.7533 154.003L98.7532 154.003L98.7531 154.003L98.7531 154.003L98.753 154.003L98.7529 154.003L98.7528 154.003L98.7527 154.003C98.1349 153.815 97.5167 153.626 96.8928 153.468C94.9239 152.969 92.7167 152.804 90.969 153.839C94.9028 157.047 100.09 158.162 105.063 159.179L96.828 159.003C98.2844 161.595 101.552 162.55 104.521 162.707C105.399 162.754 106.285 162.752 107.17 162.751C109.279 162.748 111.386 162.746 113.379 163.387C116.998 164.551 119.618 167.621 122.039 170.552L126.706 176.203C127.343 176.973 128.555 177.059 129.455 176.623C130.354 176.187 130.989 175.347 131.486 174.481C132.474 172.758 133.062 170.736 132.743 168.776C132.424 166.816 131.072 164.965 129.166 164.406C125.893 163.446 123.57 160.537 121.964 157.528C121.412 156.495 120.917 155.429 120.422 154.364C119.475 152.327 118.529 150.292 117.194 148.493C116.794 147.954 116.358 147.434 115.922 146.914C114.844 145.629 113.768 144.345 113.235 142.773C115.977 145.426 118.304 148.507 120.106 151.871C120.302 152.235 120.517 152.629 120.894 152.798C121.136 152.907 121.411 152.906 121.676 152.903L128.754 152.836ZM128 70.5609C128.662 70.4747 129.186 69.9779 129.66 69.5067L131.966 67.2135C127.707 77.7669 121.624 87.9704 112.405 94.6419C110.533 95.9964 108.307 97.244 106.033 96.8375C104.842 96.6245 103.773 95.971 102.825 95.2181C100.852 93.6501 99.2904 91.6199 97.9552 89.4821C94.1856 83.4465 92.0924 76.3535 92.1241 69.2374C92.1559 62.1214 94.3322 55.0086 98.405 49.1733C98.545 48.9727 98.702 48.7621 98.9332 48.6822C99.1678 48.6011 99.4247 48.673 99.6622 48.7452C108.199 51.3401 116.653 54.2033 125.01 57.3294C126.333 57.8243 126.883 59.3811 127.124 60.7729C127.619 63.6395 127.487 66.6127 126.74 69.4241C126.568 70.0699 127.337 70.6471 128 70.5609ZM122.43 49.2244C123.437 49.2334 124.139 50.58 123.57 51.4107C123.001 52.2414 121.491 52.0731 121.119 51.1374C120.702 50.0879 119.626 49.5182 118.61 48.9808C118.502 48.9238 118.395 48.8671 118.29 48.8103C114.877 46.9722 112.254 44.0534 109.643 41.1488L109.643 41.1487L109.643 41.1487L109.643 41.1487L109.643 41.1486L109.643 41.1486L109.643 41.1486L109.643 41.1485L109.643 41.1485L109.643 41.1485L109.642 41.1484L109.642 41.1484C108.958 40.3865 108.274 39.6256 107.577 38.8854C106.252 37.479 104.863 36.1334 103.415 34.8544C101.827 33.4518 100.142 32.1131 98.1973 31.2714C96.2528 30.4297 94.0046 30.123 92.0034 30.8194C92.9049 30.8651 93.6111 31.8923 93.331 32.7504C93.0509 33.6084 91.8745 34.021 91.1198 33.526C90.365 33.031 90.2747 31.7877 90.9501 31.1889C88.9037 31.7947 87.1842 33.4131 86.4557 35.4191C86.3121 35.8146 86.2053 36.252 86.3367 36.6518C86.4108 36.8772 86.5561 37.0774 86.6998 37.2753C86.9028 37.5548 87.1025 37.8298 87.0932 38.1648C87.0194 40.8466 89.645 43.2747 92.3128 42.9918C92.8354 42.9363 93.0459 43.4574 93.2643 43.998C93.3685 44.2559 93.4745 44.5183 93.617 44.7245C93.8717 45.0931 94.297 45.2984 94.7044 45.4847C98.8451 47.3787 103.13 48.958 107.509 50.2047C108.017 50.3491 108.711 50.4093 108.927 49.9275C109.215 49.2811 110.055 48.9454 110.709 49.2144C111.364 49.4835 111.725 50.3121 111.476 50.9749C111.365 51.2719 111.731 51.5127 112.029 51.6206L126.948 57.0145C126.673 55.9104 128.075 54.813 129.081 55.3457C130.086 55.8784 129.966 57.6552 128.898 58.0476L134.35 60.797L135.329 52.7954C135.375 52.4216 135.226 51.8657 134.865 51.9726C134.196 52.1708 133.407 51.7925 133.143 51.1467C132.879 50.5009 133.176 49.6784 133.792 49.3508C134.266 49.0987 134.443 48.4773 134.338 47.9507C134.233 47.424 133.909 46.9711 133.585 46.5426C130.083 41.9073 125.648 37.961 120.56 35.1564C119.196 34.4048 117.544 33.7274 116.135 34.3897C115.319 34.7731 114.77 35.5276 114.234 36.2653L114.234 36.2656L114.234 36.2658L114.233 36.266L114.233 36.2661C114.148 36.3832 114.063 36.4999 113.978 36.6146C112.905 38.0528 111.578 39.3005 110.076 40.2823L114.829 45.1184C114.436 44.2696 115.035 43.1262 115.956 42.9653C116.877 42.8045 117.828 43.6776 117.745 44.6094C117.663 45.5411 116.574 46.234 115.695 45.914C117.68 47.5178 119.878 49.2017 122.43 49.2244ZM128.481 114.729C129.203 114.782 129.937 114.348 130.239 113.69C130.54 113.031 130.39 112.192 129.878 111.68C129.238 111.039 129.979 109.844 130.879 109.751C131.779 109.658 132.597 110.233 133.319 110.779L136.797 113.412C137.219 113.731 137.692 114.208 137.507 114.704C133.535 125.387 130.923 136.575 129.756 147.912C129.662 148.831 128.776 149.508 127.867 149.672C126.958 149.837 126.029 149.606 125.134 149.377L121.934 148.558C121.717 148.503 121.489 148.442 121.328 148.286C121.097 148.064 121.061 147.712 121.042 147.392C120.392 136.474 122.637 125.398 127.488 115.595C127.696 115.176 128.015 114.695 128.481 114.729ZM121.433 107.881C120.567 107.228 120.766 105.633 121.765 105.212C119.291 105.426 117.034 106.529 114.774 107.632C112.595 108.697 110.414 109.763 108.034 110.033C109.464 111.003 110.139 112.863 109.945 114.58C109.751 116.297 108.79 117.861 107.54 119.054C108.61 121.104 110.377 122.781 112.48 123.742C113.221 124.081 114.07 124.334 114.842 124.073C115.011 124.016 115.19 123.94 115.373 123.862C116.039 123.58 116.745 123.281 117.08 123.836C117.707 124.877 119.308 124.638 120.347 124.007C121.056 123.575 121.716 122.991 122.008 122.213C122.3 121.436 122.127 120.443 121.445 119.971C120.877 119.578 120.687 118.731 121.031 118.133C121.375 117.536 122.204 117.276 122.828 117.569C123.373 117.826 123.883 117.187 124.209 116.68C124.975 115.487 126.103 114.53 127.405 113.97C126.884 113.203 126.957 112.085 127.574 111.393C125.98 110.228 124.702 108.637 123.908 106.829C123.778 107.906 122.299 108.535 121.433 107.881ZM100.329 103.712C100.309 103.84 100.289 103.969 100.274 104.096C100.202 104.691 100.266 105.383 100.743 105.746C102.562 103.541 103.632 100.728 103.737 97.8711C103.758 97.3004 104.623 97.3829 105.163 97.5708C106.755 98.1254 108.542 97.8488 110.086 97.1725C111.631 96.4962 112.978 95.4489 114.308 94.4124C113.918 97.0028 114.257 99.6987 115.276 102.112L110.019 106.059C109.812 106.215 109.617 106.573 109.855 106.677C111.847 106.031 113.538 104.718 115.194 103.432L115.194 103.432L115.349 103.311C117.055 101.987 118.841 100.659 120.932 100.117C123.022 99.5759 125.51 100.003 126.842 101.703C127.499 102.541 127.813 103.589 128.114 104.61L129.044 107.772C129.246 108.458 129.445 109.213 129.154 109.866C128.863 110.519 127.841 110.84 127.433 110.254L125.528 107.512C124.62 106.205 123.59 104.81 122.057 104.386C120.384 103.923 118.659 104.759 117.104 105.529C114.378 106.878 111.588 108.095 108.745 109.176C107.871 109.508 106.902 109.184 105.954 108.867C104.874 108.505 103.822 108.153 102.968 108.789C102.652 109.026 102.204 108.897 101.839 108.746C99.3279 107.708 97.0785 106.044 95.3514 103.947L98.9673 101.598C99.4698 101.272 100.169 101.741 100.339 102.315C100.473 102.766 100.401 103.24 100.329 103.712ZM102.987 117.723C101.342 116.378 100.546 114.072 101.013 111.998C101.132 111.471 100.584 111.063 100.141 110.753C99.6983 110.444 99.2598 109.841 99.6016 109.422C99.7857 109.197 99.5347 108.881 99.3047 108.703L94.8804 105.273C94.3496 104.862 93.8022 104.431 93.4958 103.833C92.942 102.753 91.4636 102.265 90.3759 102.804C88.8313 103.57 88.6159 105.646 88.6075 107.37C88.6055 107.777 88.7198 108.316 89.1254 108.339C90.1623 108.398 90.6531 110.008 89.8253 110.635C89.0145 111.249 89.5932 112.581 90.3996 113.201C90.5755 113.336 90.7639 113.466 90.9532 113.596C91.6315 114.063 92.322 114.538 92.4988 115.313C92.6303 115.89 92.4357 116.502 92.2457 117.1C92.008 117.847 91.7774 118.572 92.2004 119.179C92.7183 119.923 93.8231 119.851 94.7139 119.684C97.5005 119.161 100.262 118.507 102.987 117.723ZM122.649 153.773C124.654 153.612 126.673 153.615 128.678 153.785C128.846 153.799 129.023 153.818 129.158 153.919C129.366 154.075 129.403 154.366 129.427 154.625C129.619 156.749 130.022 158.855 130.629 160.899C130.535 161.15 130.267 161.211 129.989 161.274C129.807 161.315 129.62 161.358 129.475 161.454C129.005 161.767 129.142 162.514 129.491 162.957C129.615 163.114 129.758 163.257 129.9 163.4C130.161 163.661 130.421 163.921 130.557 164.26C126.256 162.913 123.121 159.061 121.446 154.877C121.344 154.623 121.246 154.341 121.339 154.084C121.431 153.827 121.81 153.675 121.984 153.886C122.053 153.969 122.07 154.081 122.085 154.188L122.378 156.278C122.416 156.552 122.863 156.555 123.015 156.324C123.166 156.094 123.11 155.79 123.049 155.521L122.649 153.773ZM108.708 112.643C108.13 110.978 106.574 109.695 104.829 109.446C104.191 109.355 103.471 109.419 103.014 109.874C102.01 110.874 101.613 112.4 101.848 113.797C102.084 115.195 102.905 116.457 103.987 117.373C104.795 118.057 105.936 118.575 106.896 118.127C107.182 117.994 107.426 117.784 107.643 117.555C108.858 116.279 109.286 114.308 108.708 112.643ZM127.877 68.7344C128.351 65.4329 128.792 61.873 127.234 58.9242C127.125 58.719 127.013 58.4489 127.169 58.2765L132.062 60.7008C132.45 60.8931 132.909 61.2652 132.729 61.6589C132.518 62.1185 132.478 62.6265 132.438 63.1352V63.1353V63.1353V63.1354V63.1355C132.421 63.3503 132.404 63.5652 132.374 63.7766C132.194 65.0555 131.529 66.2269 130.686 67.2054C129.843 68.1838 128.824 68.9916 127.811 69.7929C127.776 69.4402 127.827 69.0852 127.877 68.7344ZM132.804 163.549C132.242 162.759 131.492 161.985 130.527 161.888C130.155 161.851 129.654 162.229 129.925 162.487C132.261 164.721 133.826 167.918 133.536 171.137C133.247 174.356 130.818 177.429 127.624 177.919C128.569 179.041 130.371 179.129 131.652 178.413C132.933 177.697 133.757 176.365 134.276 174.993C135.694 171.248 135.123 166.813 132.804 163.549ZM82.6572 126.466C86.2016 127.021 89.6597 128.018 93.1069 129.012L102.5 131.721C105.359 132.545 108.25 133.383 110.829 134.868C109.606 134.824 108.417 134.474 107.246 134.117C105.177 133.484 103.115 132.816 101.052 132.148C94.3606 129.98 87.6644 127.811 80.7121 126.846C81.1562 126.315 81.9729 126.359 82.6572 126.466ZM134.016 64.0492C133.478 64.5325 133.221 65.2535 133.067 65.96C133.021 66.1675 132.983 66.3771 132.944 66.5866C132.852 67.0904 132.759 67.5941 132.571 68.0689C132.54 68.1468 132.507 68.2255 132.473 68.3047C132.304 68.7018 132.128 69.1124 132.255 69.5133C134.284 69.383 136.119 67.7484 136.483 65.7481C136.605 65.0767 136.533 64.2882 136.001 63.8604C135.438 63.407 134.554 63.5659 134.016 64.0492ZM123.629 37.7891C123.862 38.4516 123.51 39.2648 122.867 39.5476C122.224 39.8303 121.386 39.5402 121.056 38.9203C120.692 38.2378 121.024 37.2786 121.732 36.9673C122.44 36.656 123.372 37.0596 123.629 37.7891ZM99.4768 38.4143C99.517 37.8119 99.1387 37.2042 98.5805 36.9743C97.8699 36.6817 96.9565 37.0708 96.6752 37.7859C96.3939 38.501 96.7976 39.4081 97.517 39.678C98.3618 39.9948 99.4168 39.3145 99.4768 38.4143ZM126.957 44.4826C126.977 45.2448 127.676 45.9242 128.439 45.9221C129.247 45.9198 129.968 45.1422 129.909 44.3357C129.853 43.5753 129.123 42.9295 128.361 42.9674C127.6 43.0054 126.937 43.7205 126.957 44.4826ZM105.223 45.3676C104.67 46.0584 103.463 46.0602 102.909 45.3709C102.354 44.6817 102.613 43.5032 103.406 43.1107C104.199 42.7182 105.294 43.2265 105.505 44.0856C105.614 44.5257 105.506 45.0137 105.223 45.3676ZM100.74 56.8828C100.272 57.6137 100.172 58.5678 100.479 59.3797C100.592 59.6808 100.761 59.966 101.002 60.1798C101.773 60.866 103.092 60.5761 103.741 59.7734C104.39 58.9708 104.48 57.8383 104.288 56.8238C104.212 56.4194 104.071 55.9876 103.726 55.7634C103.486 55.6072 103.184 55.5791 102.898 55.5996C102.032 55.6615 101.208 56.1518 100.74 56.8828ZM116.274 64.3634C116.019 64.1029 115.851 63.767 115.746 63.4177C115.359 62.1227 115.904 60.6057 117.027 59.8535C117.535 59.5133 118.19 59.3243 118.765 59.5325C119.469 59.7878 119.857 60.5567 119.99 61.2942C120.182 62.3497 119.952 63.5327 119.175 64.2721C118.397 65.0115 117.024 65.13 116.274 64.3634ZM96.8127 78.9231C96.8386 78.271 96.8915 77.6199 96.9714 76.9722C96.9991 76.7478 97.1934 76.5548 97.418 76.5287C97.522 78.1263 97.5705 79.7274 97.5633 81.3283C96.8567 80.8104 96.778 79.7985 96.8127 78.9231ZM123.059 71.9879C122.846 71.0167 122.117 70.1745 121.186 69.8256C121.03 69.7672 121.037 69.5182 121.168 69.4157C121.299 69.3131 121.486 69.3234 121.647 69.3629C122.532 69.5791 123.08 70.4477 123.485 71.2641C123.592 71.4801 123.697 71.7319 123.603 71.9538C123.509 72.1757 123.11 72.2235 123.059 71.9879ZM106.872 213.528C106.779 213.318 106.543 213.218 106.327 213.139C102.946 211.906 99.356 211.248 95.7574 211.201C95.2444 211.195 94.6453 211.244 94.3629 211.673C94.6376 211.904 95.0321 211.903 95.3911 211.898C99.2012 211.841 103.021 212.548 106.558 213.966C106.772 214.051 106.966 213.738 106.872 213.528ZM108.745 66.2018C108.542 66.3694 108.317 66.509 108.093 66.6486C107.84 66.8061 107.586 66.9636 107.364 67.1611C106.944 67.5336 106.64 68.136 106.858 68.6535C107.126 69.2928 107.987 69.4137 108.669 69.2905L108.71 69.2831L108.755 69.2746C108.971 69.2339 109.191 69.1924 109.401 69.2499C109.639 69.315 109.848 69.5656 109.767 69.7984C109.709 69.9619 109.538 70.053 109.377 70.1161C108.377 70.507 107.13 70.3615 106.388 69.5857C105.646 68.8098 105.628 67.3891 106.475 66.7301L109.784 64.1555C109.75 64.9427 109.353 65.7009 108.745 66.2018ZM121.418 72.8478C121.624 74.0103 121.326 75.2049 120.904 76.3075C119.087 81.0547 114.798 84.7751 109.841 85.9023C107.847 86.3559 105.646 86.3825 103.871 85.3659C102.096 84.3492 100.955 82.0626 101.733 80.1709C102.647 77.9506 105.475 77.3281 107.876 77.2777C108.086 77.2733 108.299 77.2701 108.513 77.2669C110.74 77.2339 113.118 77.1986 114.73 75.7154C115.304 75.1876 115.717 74.5236 116.132 73.8583C116.482 73.2975 116.832 72.7358 117.278 72.254C118.255 71.2008 120.168 70.6975 121.027 71.8493C121.243 72.1385 121.355 72.4925 121.418 72.8478ZM120.398 74.6191C120.646 73.673 120.537 72.3119 119.57 72.169C119.21 72.1158 118.851 72.2769 118.552 72.4843C117.809 73 117.332 73.7769 116.853 74.5581C116.473 75.1781 116.091 75.8008 115.573 76.2977C114.22 77.5955 112.195 77.825 110.327 77.9868L106.737 78.2977C105.822 78.377 104.873 78.4663 104.076 78.9242C102.579 79.7844 102.06 81.9832 103.014 83.4219C104.046 84.9777 106.198 85.3155 108.056 85.1358C113.784 84.5818 118.942 80.1865 120.398 74.6191ZM122.444 147.343C122.249 147.365 122.047 147.31 121.89 147.192C121.784 147.113 121.699 147.005 121.646 146.884C121.473 146.489 121.706 145.969 122.117 145.836C122.527 145.703 123.021 145.987 123.113 146.409C123.204 146.83 122.872 147.293 122.444 147.343ZM129.084 147.396C128.943 147.272 128.753 147.204 128.565 147.209C128.103 147.223 127.731 147.745 127.869 148.187C128.008 148.629 128.611 148.846 128.999 148.593C129.387 148.34 129.433 147.701 129.084 147.396ZM115.124 113.762C114.643 113.209 114.685 112.279 115.212 111.77C115.74 111.262 116.671 111.255 117.206 111.755C117.778 112.29 117.786 113.312 117.222 113.855C116.658 114.399 115.638 114.353 115.124 113.762ZM108.832 118.377C108.722 118.672 108.713 119.004 108.806 119.306C109.073 120.162 110.257 120.569 110.994 120.059C111.732 119.548 111.766 118.296 111.058 117.746C110.35 117.195 109.146 117.537 108.832 118.377ZM96.1002 116.199C95.9343 116.747 95.4092 117.167 94.8378 117.209C93.9945 117.27 93.2067 116.433 93.319 115.595C93.4314 114.757 94.4118 114.158 95.2091 114.439C95.8935 114.681 96.3104 115.504 96.1002 116.199Z" fill="#00160A"/>
</g>
<g clip-path="url(#clip0)">
<path fill-rule="evenodd" clip-rule="evenodd" d="M104.171 96.863C103.28 94.5719 101.594 92.7008 100.134 90.7233C96.2307 85.436 93.8102 79.0659 93.2172 72.5207C92.9007 69.0265 94.1026 51.9724 100.459 47.9716C97.3207 47.0054 94.1026 45.998 91.5287 43.9596C88.9549 41.9211 87.1334 38.5884 87.826 35.3789C88.8743 30.5213 95.1833 28.4358 99.8893 30.0324C104.595 31.629 107.98 35.6682 111.113 39.5263C114.108 39.274 114.851 34.861 117.587 33.6157C119.432 32.7757 121.577 33.6369 123.366 34.5911C128.571 37.368 133.447 41.1758 136.199 46.3943C138.952 51.6127 139.19 58.4247 135.683 63.1691C136.961 61.7065 139.608 63.5255 139.457 65.4616C139.305 67.3976 137.595 68.8026 135.962 69.8538C134.33 70.9051 132.505 71.9951 131.86 73.8267C130.236 78.4375 127.656 82.7091 124.33 86.2922C122.299 88.4814 119.966 90.4512 118.459 93.0299C116.952 95.6086 116.449 99.0741 118.207 101.489C120.544 99.0013 124.572 98.3018 127.611 99.8559C130.65 101.41 132.442 105.085 131.793 108.437C136.028 108.8 139.832 112.155 140.723 116.31C149.309 124.965 156.322 135.176 161.318 146.296C164.49 153.355 166.845 160.747 169.193 168.121C170.112 171.006 171.041 174.029 170.53 177.013C169.491 183.073 162.916 186.643 156.809 187.361C149.206 188.254 141.284 186.036 135.249 181.325C132.026 191.349 128.808 202.298 132.473 212.169C133.257 214.283 131.688 216.684 129.638 217.624C127.588 218.563 125.229 218.426 122.979 218.27C110.371 217.396 97.7628 216.522 85.1547 215.648C82.5125 215.465 78.9002 213.91 79.8354 211.433C81.9238 205.899 82.5206 199.811 81.5463 193.977C80.8029 197.906 79.514 201.731 77.7279 205.309C77.7279 205.309 71.4345 218.27 65.1582 211.618C61.581 204.39 61.4268 195.927 62.4827 187.931C63.5386 179.936 65.7214 172.112 66.5743 164.093C67.4052 156.28 66.9637 148.375 67.7763 140.561C68.5888 132.746 70.8348 124.744 76.1685 118.975C80.3886 114.411 84.6087 109.847 88.8289 105.282C89.9651 104.054 91.1628 102.783 92.734 102.206C94.3052 101.63 96.3591 101.996 97.1672 103.462C98.1633 102.223 99.3288 100.887 100.91 100.721C102.491 100.556 104.142 102.493 103.126 103.716C104.946 102.064 105.061 99.1541 104.171 96.863Z" fill="white"/>
<path fill-rule="evenodd" clip-rule="evenodd" d="M137.816 116.31C146.402 124.965 153.415 135.176 158.411 146.296C161.583 153.355 163.938 160.747 166.286 168.121C167.205 171.006 168.135 174.028 167.623 177.013C166.584 183.073 160.009 186.643 153.903 187.36C146.299 188.254 138.865 185.573 132.83 180.862C129.607 190.886 125.901 202.298 129.566 212.169C129.898 213.064 130.764 214.076 130.395 214.94C129.892 216.119 127.914 217.081 126.731 217.623C126.42 217.766 127.251 214.817 127.215 210.489C127.153 203.123 124.065 177.534 131.334 179.224C149.089 183.353 162.475 182.713 162.755 178.308C164.181 155.947 136.925 112.154 137.816 116.31Z" fill="#E7EAEE"/>
<path fill-rule="evenodd" clip-rule="evenodd" d="M99.0669 91.9953L99.0669 91.9953C98.7407 91.5727 98.4148 91.1505 98.0994 90.7233C94.1961 85.436 91.7755 79.0659 91.1826 72.5207C90.8661 69.0265 92.0679 51.9724 98.424 47.9716C95.286 47.0054 92.0679 45.998 89.4941 43.9596C86.9202 41.9211 85.0987 38.5884 85.7913 35.3789C86.8396 30.5213 93.1486 28.4358 97.8546 30.0324C102.561 31.629 105.946 35.6682 109.078 39.5263C110.728 39.3873 111.694 37.9862 112.687 36.5473C113.496 35.3737 114.323 34.1751 115.552 33.6157C117.397 32.7757 119.542 33.6369 121.331 34.5911C126.537 37.368 131.412 41.1758 134.165 46.3943C136.917 51.6127 137.156 58.4247 133.648 63.1691C134.926 61.7065 137.573 63.5255 137.422 65.4616C137.271 67.3976 135.561 68.8026 133.928 69.8538C133.841 69.9098 133.753 69.9658 133.666 70.0221C132.104 71.0232 130.436 72.0926 129.825 73.8267C128.201 78.4375 125.621 82.7091 122.296 86.2922C121.755 86.8748 121.193 87.4418 120.631 88.0089L120.631 88.0091L120.631 88.0091C119.081 89.573 117.531 91.1375 116.425 93.0299C114.918 95.6086 114.414 99.0741 116.172 101.489C118.509 99.0013 122.538 98.3018 125.577 99.8559C128.616 101.41 130.407 105.085 129.758 108.437C133.993 108.8 137.797 112.155 138.688 116.31C147.274 124.965 154.287 135.176 159.283 146.296C162.455 153.355 164.81 160.747 167.158 168.121C168.077 171.006 169.007 174.029 168.495 177.013C167.456 183.073 160.881 186.643 154.775 187.361C147.172 188.254 139.249 186.036 133.215 181.325C129.991 191.349 126.774 202.298 130.438 212.169C130.762 213.043 130.684 213.966 130.337 214.815C127.95 209.63 127.513 203.712 128.152 198.037C128.795 192.317 130.477 186.771 132.151 181.263C132.429 180.35 130.978 180.109 130.032 179.979C128.353 179.749 127.134 178.318 126.084 176.988L121.814 171.578C119.058 168.087 115.88 164.34 111.484 163.664C110.265 163.476 109.031 163.544 107.795 163.613H107.795C107.042 163.654 106.289 163.696 105.538 163.68C102.62 163.617 99.7277 162.657 97.3522 160.962C96.7826 160.555 96.2045 160.046 96.0876 159.356C95.9733 158.682 96.5823 157.892 97.229 158.064L97.2748 158.078C97.2595 158.073 97.2442 158.068 97.229 158.064C95.1706 157.443 93.2106 156.497 91.4433 155.273C91.1176 155.047 90.7855 154.797 90.6177 154.438C90.2551 153.662 90.8552 152.712 91.6462 152.385C92.4372 152.058 93.3331 152.177 94.1801 152.302C93.1698 152.097 92.1281 151.878 91.2815 151.29C90.4349 150.702 89.8283 149.64 90.0904 148.642C90.3525 147.645 91.7265 147.028 92.5012 147.709C92.1634 146.702 92.8959 145.587 93.8545 145.13C94.8131 144.673 95.9239 144.709 96.9841 144.768C101.433 145.013 105.869 145.488 110.268 146.189L109.624 137.139C109.598 136.77 109.566 136.383 109.366 136.072C109.109 135.673 108.635 135.483 108.19 135.318C99.2349 132 90.0219 129.378 80.6616 127.482L82.7585 166.766C82.8228 167.971 83.1583 169.499 84.3485 169.694C91.7435 170.912 98.9976 172.983 105.92 175.855C106.892 176.258 107.604 174.897 107.782 173.859L109.556 163.578C109.803 167.924 109.181 172.318 107.738 176.425C108.842 176.684 109.48 175.227 109.657 174.107L111.259 163.947C111.531 167.549 111.216 171.194 110.33 174.696C110.127 175.5 109.817 176.389 109.065 176.739C108.429 177.035 107.684 176.843 107.01 176.646L83.586 169.815C83.2177 169.708 82.8333 169.591 82.5603 169.322C82.154 168.921 82.0985 168.295 82.0671 167.725L80.1177 132.303C79.9913 130.006 80.1168 127.705 80.2422 125.408L80.8848 113.648C77.1145 126.93 76.7584 141.008 78.3468 154.723C79.9351 168.437 83.4239 181.858 87.2465 195.124C85.6382 192.373 84.4636 189.369 83.7791 186.256C81.9094 188.932 79.9476 191.983 80.481 195.203C81.3769 200.612 80.8056 206.257 78.8443 211.376C78.3969 212.544 79.2012 213.891 80.3024 214.483C81.4036 215.075 82.7097 215.105 83.9599 215.12L100.605 215.327C100.146 214.744 100.311 213.777 100.938 213.381C100.771 215.19 103.091 216.041 104.891 216.286C113.396 217.443 122.437 218.528 130.253 215.005C129.732 216.129 128.742 217.102 127.603 217.624C125.553 218.563 123.194 218.426 120.945 218.27L83.12 215.648C80.4779 215.465 76.8655 213.91 77.8007 211.433C79.8892 205.899 80.4859 199.811 79.5116 193.977C78.7683 197.906 77.4793 201.731 75.6933 205.309C76.4258 199.335 78.4285 193.52 81.5298 188.362C83.7373 184.691 82.4656 180.019 81.3318 175.888C75.9635 156.329 75.1313 135.54 78.9189 115.615C70.8353 121.524 67.4605 132.009 66.5016 141.976C66.1008 146.143 66.0345 150.339 65.9682 154.533C65.876 160.369 65.7839 166.201 64.7898 171.942C64.3357 174.565 63.695 177.157 63.0547 179.747C62.0431 183.839 61.0326 187.927 60.7611 192.124C60.3372 198.679 61.7344 205.199 63.1235 211.618C59.5463 204.39 59.3921 195.927 60.448 187.931C60.9326 184.262 61.6545 180.629 62.3764 176.996C63.2274 172.714 64.0782 168.432 64.5397 164.093C64.9581 160.158 65.0539 156.2 65.1496 152.242C65.2439 148.341 65.3383 144.439 65.7416 140.561C66.5541 132.746 68.8001 124.744 74.1339 118.975L86.7942 105.282C87.9304 104.054 89.1281 102.783 90.6993 102.206C92.2705 101.63 94.3245 101.996 95.1325 103.462C96.1287 102.223 97.2942 100.887 98.8754 100.721C100.457 100.556 102.107 102.493 101.092 103.716C102.911 102.064 103.026 99.1541 102.136 96.863C101.438 95.0669 100.251 93.5289 99.067 91.9954L99.067 91.9954L99.0669 91.9953ZM130.253 215.005C130.283 214.942 130.31 214.879 130.337 214.815C130.356 214.857 130.375 214.899 130.395 214.941L130.334 214.969L130.253 215.005ZM167.631 173.698C168.059 177.268 166.145 180.856 163.306 183.061C160.466 185.266 156.831 186.235 153.244 186.481C145.692 187 137.974 184.411 132.263 179.443C136.647 174.95 136.892 167.055 132.794 162.298C136.32 160.658 139.924 158.996 143.789 158.571C147.654 158.146 151.895 159.171 154.407 162.139C154.837 162.646 155.208 163.199 155.579 163.752L155.579 163.752C156.035 164.43 156.491 165.109 157.052 165.7C156.565 162.482 154.057 159.795 151.055 158.539C148.052 157.284 144.637 157.312 141.46 158.018C138.283 158.725 135.291 160.072 132.324 161.41C131.76 161.664 131.338 160.852 131.246 160.24L130.715 156.694C130.495 155.233 130.519 153.32 131.896 152.783C132.93 152.38 132.659 150.802 131.974 149.928C131.86 149.782 131.737 149.635 131.613 149.486C130.996 148.747 130.349 147.972 130.513 147.063C132.248 137.402 133.993 127.703 137.08 118.386C137.176 118.098 137.292 117.785 137.556 117.632C137.911 117.426 138.36 117.605 138.718 117.807C141.611 119.441 143.34 122.362 145.064 125.276C145.673 126.304 146.282 127.332 146.94 128.302C147.957 129.799 149.122 131.185 150.287 132.571C151.152 133.6 152.017 134.63 152.822 135.705C157.784 142.334 160.218 150.307 162.657 158.296L162.657 158.296C163.77 161.941 164.884 165.589 166.239 169.114C166.294 169.258 166.35 169.401 166.405 169.544C166.93 170.897 167.458 172.26 167.631 173.698ZM128.754 152.836C129.462 152.829 130.204 152.814 130.823 152.472C131.443 152.13 131.882 151.346 131.595 150.699C131.323 150.085 130.538 149.863 129.871 149.95C129.485 150.001 129.116 150.127 128.747 150.253C128.478 150.345 128.21 150.437 127.934 150.5C126.562 150.814 125.162 150.4 123.769 149.989C122.261 149.544 120.762 149.101 119.318 149.587C120.252 148.04 120.19 146.127 120.132 144.31L120.123 144.026C119.826 134.375 121.968 124.659 126.293 116.027C124.697 117.169 123.551 118.925 123.148 120.847C123.1 121.075 123.062 121.306 123.023 121.538C122.925 122.133 122.827 122.727 122.565 123.266C121.501 125.449 118.497 125.61 116.078 125.392C114.096 125.213 112.019 124.953 110.405 123.789C109.595 123.206 108.943 122.422 108.295 121.643C107.432 120.605 106.575 119.576 105.361 119.035C103.347 118.139 101.195 118.886 99.0176 119.642C97.0504 120.324 95.0625 121.014 93.1372 120.506C92.0523 120.22 91.302 121.552 90.9764 122.626L89.5576 127.304C88.8958 124.746 89.7042 121.862 91.5986 120.021C90.7872 119.489 91.0057 118.396 91.222 117.315C91.4411 116.219 91.6579 115.135 90.8003 114.655C88.2113 113.207 87.699 109.767 87.478 106.808C84.184 108.025 82.3046 111.585 81.7254 115.049C81.384 117.09 81.3879 119.162 81.3919 121.236V121.236C81.3946 122.681 81.3974 124.126 81.2834 125.563C91.2148 127.508 101.004 130.178 110.546 133.547C111.131 133.753 111.744 133.983 112.134 134.465C112.553 134.983 112.632 135.689 112.693 136.352C113.005 139.708 113.299 143.202 112.098 146.351L112.109 136.538C112.109 135.995 112.016 135.315 111.499 135.148C110.695 134.889 110.317 136.118 110.384 136.961L110.958 144.255C111.037 145.254 111.182 146.379 111.986 146.977L97.547 145.526C96.0471 145.376 94.2497 145.351 93.3725 146.577C93.5168 147.749 94.9188 148.242 96.0756 148.483L105.266 150.399C102.39 150.994 99.3676 150.46 96.6466 149.355C96.4401 149.271 96.2342 149.184 96.0281 149.097L96.0278 149.096L96.0276 149.096L96.0274 149.096L96.0273 149.096C95.1659 148.731 94.3013 148.364 93.3777 148.242C92.233 148.091 90.9393 148.403 90.2745 149.347C94.3867 152.067 99.1659 153.769 104.071 154.263C104.042 154.795 103.332 154.955 102.8 154.916C101.416 154.815 100.086 154.41 98.7539 154.003L98.7538 154.003L98.7537 154.003L98.7536 154.003L98.7536 154.003L98.7535 154.003L98.7534 154.003L98.7533 154.003L98.7532 154.003L98.7532 154.003L98.7531 154.003L98.753 154.003L98.7529 154.003L98.7528 154.003L98.7528 154.003C98.1349 153.815 97.5167 153.626 96.8929 153.468C94.9239 152.969 92.7167 152.803 90.969 153.838C94.9028 157.047 100.09 158.162 105.063 159.179L96.828 159.003C98.2844 161.595 101.552 162.55 104.521 162.707C105.399 162.753 106.285 162.752 107.17 162.751C109.279 162.748 111.386 162.745 113.379 163.387C116.998 164.55 119.618 167.621 122.039 170.551L126.706 176.202C127.343 176.973 128.555 177.058 129.455 176.623C130.354 176.187 130.989 175.347 131.486 174.48C132.474 172.758 133.062 170.736 132.743 168.776C132.424 166.816 131.072 164.964 129.167 164.406C125.893 163.446 123.57 160.537 121.964 157.528C121.413 156.496 120.918 155.431 120.423 154.366L120.423 154.366L120.423 154.366L120.423 154.366L120.422 154.365L120.422 154.365L120.422 154.365L120.422 154.365L120.422 154.365L120.422 154.365L120.422 154.365L120.422 154.364L120.422 154.364L120.422 154.364C119.475 152.326 118.529 150.291 117.194 148.493C116.794 147.953 116.358 147.433 115.922 146.914C114.844 145.629 113.768 144.345 113.235 142.773C115.977 145.426 118.304 148.507 120.106 151.87C120.302 152.235 120.517 152.628 120.894 152.798C121.136 152.906 121.411 152.906 121.676 152.903L128.754 152.836ZM128 70.5606C128.662 70.4744 129.186 69.9776 129.66 69.5064L131.966 67.2132C127.707 77.7666 121.624 87.9701 112.405 94.6416C110.533 95.9961 108.307 97.2438 106.033 96.8372C104.842 96.6243 103.773 95.9708 102.825 95.2178C100.852 93.6498 99.2905 91.6196 97.9552 89.4818C94.1856 83.4462 92.0924 76.3532 92.1242 69.2372C92.1559 62.1212 94.3323 55.0083 98.405 49.173C98.5451 48.9724 98.702 48.7619 98.9332 48.682C99.1679 48.6009 99.4248 48.6728 99.6623 48.745C108.199 51.3398 116.653 54.2031 125.01 57.3291C126.333 57.824 126.883 59.3809 127.124 60.7727C127.619 63.6392 127.487 66.6125 126.74 69.4239C126.568 70.0696 127.337 70.6468 128 70.5606ZM122.43 49.2242C123.437 49.2331 124.139 50.5798 123.57 51.4105C123.001 52.2412 121.491 52.0728 121.119 51.1372C120.702 50.0877 119.626 49.518 118.61 48.9806L118.61 48.9804C118.502 48.9234 118.395 48.8668 118.29 48.8101C114.877 46.972 112.254 44.0531 109.643 41.1485L109.643 41.1485L109.643 41.1484L109.643 41.1484L109.643 41.1484L109.643 41.1483L109.643 41.1483L109.643 41.1483L109.643 41.1482L109.643 41.1482L109.642 41.1482L109.642 41.1481C108.958 40.3862 108.274 39.6253 107.577 38.8851C106.252 37.4787 104.863 36.1331 103.415 34.8542C101.827 33.4515 100.142 32.1128 98.1973 31.2711C96.2528 30.4294 94.0045 30.1227 92.0034 30.8191C92.9049 30.8648 93.6111 31.8921 93.331 32.7501C93.0508 33.6081 91.8745 34.0208 91.1198 33.5258C90.365 33.0308 90.2747 31.7874 90.9501 31.1886C88.9037 31.7944 87.1842 33.4128 86.4557 35.4188C86.3121 35.8143 86.2053 36.2517 86.3367 36.6515C86.4108 36.8769 86.5561 37.0771 86.6998 37.275C86.9028 37.5546 87.1025 37.8295 87.0932 38.1646C87.0194 40.8464 89.645 43.2744 92.3128 42.9915C92.8354 42.9361 93.0459 43.4572 93.2643 43.9977C93.3685 44.2556 93.4745 44.518 93.617 44.7243C93.8716 45.0928 94.297 45.2981 94.7044 45.4844C98.8451 47.3784 103.13 48.9578 107.509 50.2044C108.017 50.3489 108.711 50.409 108.926 49.9273C109.215 49.2808 110.055 48.9452 110.709 49.2142C111.364 49.4832 111.725 50.3118 111.476 50.9747C111.365 51.2717 111.731 51.5124 112.029 51.6203L126.948 57.0142C126.673 55.9101 128.075 54.8127 129.081 55.3454C130.086 55.8781 129.966 57.6549 128.898 58.0474L134.35 60.7967L135.329 52.7951C135.375 52.4213 135.226 51.8654 134.865 51.9724C134.196 52.1705 133.407 51.7922 133.143 51.1464C132.879 50.5006 133.176 49.6781 133.792 49.3505C134.266 49.0984 134.443 48.4771 134.338 47.9504C134.233 47.4237 133.909 46.9708 133.585 46.5424C130.083 41.907 125.647 37.9607 120.56 35.1561C119.196 34.4045 117.544 33.7272 116.135 34.3895C115.319 34.7729 114.77 35.5274 114.234 36.265C114.149 36.3824 114.064 36.4993 113.978 36.6143C112.905 38.0525 111.578 39.3002 110.076 40.282L114.829 45.1181C114.436 44.2694 115.035 43.1259 115.956 42.9651C116.877 42.8042 117.828 43.6773 117.745 44.6091C117.663 45.5409 116.574 46.2337 115.695 45.9137C117.68 47.5176 119.878 49.2014 122.43 49.2242ZM128.481 114.729C129.203 114.782 129.937 114.348 130.239 113.689C130.54 113.031 130.39 112.192 129.878 111.679C129.238 111.039 129.979 109.843 130.879 109.75C131.779 109.657 132.597 110.232 133.319 110.779L136.797 113.412C137.219 113.731 137.692 114.208 137.507 114.704C133.535 125.386 130.923 136.574 129.756 147.912C129.662 148.831 128.776 149.507 127.867 149.672C126.958 149.837 126.029 149.606 125.134 149.377L121.934 148.558C121.717 148.503 121.489 148.441 121.328 148.286C121.097 148.063 121.061 147.712 121.042 147.392C120.392 136.474 122.638 125.397 127.488 115.595C127.696 115.176 128.015 114.695 128.481 114.729ZM121.433 107.881C120.567 107.228 120.766 105.633 121.765 105.212C119.291 105.426 117.034 106.528 114.774 107.632C112.595 108.697 110.414 109.762 108.034 110.032C109.464 111.003 110.139 112.862 109.945 114.58C109.751 116.297 108.79 117.861 107.54 119.054C108.61 121.104 110.377 122.781 112.48 123.742C113.221 124.081 114.07 124.334 114.842 124.073C115.011 124.016 115.19 123.94 115.373 123.862C116.039 123.58 116.745 123.28 117.08 123.835C117.707 124.877 119.308 124.638 120.347 124.006C121.056 123.575 121.716 122.99 122.008 122.213C122.3 121.436 122.127 120.443 121.445 119.97C120.877 119.578 120.687 118.731 121.031 118.133C121.375 117.535 122.204 117.275 122.828 117.569C123.373 117.826 123.883 117.186 124.209 116.68C124.975 115.487 126.103 114.53 127.405 113.969C126.884 113.203 126.957 112.085 127.574 111.393C125.98 110.228 124.702 108.636 123.908 106.829C123.778 107.906 122.299 108.534 121.433 107.881ZM100.329 103.711C100.309 103.84 100.289 103.968 100.274 104.096C100.202 104.691 100.266 105.383 100.743 105.746C102.562 103.541 103.632 100.728 103.737 97.8708C103.758 97.3001 104.623 97.3826 105.163 97.5705C106.755 98.1251 108.542 97.8485 110.086 97.1722C111.631 96.4959 112.978 95.4486 114.308 94.4121C113.918 97.0025 114.257 99.6984 115.276 102.112L110.019 106.059C109.812 106.215 109.617 106.573 109.855 106.677C111.847 106.031 113.538 104.718 115.194 103.431L115.349 103.311C117.055 101.987 118.841 100.659 120.932 100.117C123.022 99.5756 125.51 100.003 126.842 101.703C127.499 102.54 127.813 103.588 128.114 104.61L129.045 107.772C129.246 108.457 129.445 109.213 129.154 109.866C128.863 110.518 127.841 110.84 127.434 110.253L125.528 107.511C124.62 106.205 123.59 104.809 122.057 104.385C120.384 103.923 118.659 104.759 117.104 105.528C114.378 106.877 111.588 108.095 108.745 109.176C107.871 109.508 106.902 109.184 105.954 108.866C104.874 108.505 103.822 108.153 102.968 108.789C102.652 109.025 102.204 108.896 101.839 108.745C99.3279 107.708 97.0785 106.044 95.3514 103.947L98.9673 101.598C99.4699 101.272 100.169 101.74 100.339 102.315C100.473 102.766 100.401 103.24 100.329 103.711ZM102.987 117.723C101.342 116.378 100.546 114.072 101.013 111.998C101.132 111.471 100.584 111.063 100.141 110.753C99.6983 110.444 99.2598 109.84 99.6016 109.422C99.7857 109.197 99.5347 108.881 99.3047 108.703L94.8804 105.273C94.3496 104.861 93.8022 104.43 93.4958 103.833C92.942 102.752 91.4636 102.265 90.3759 102.804C88.8313 103.57 88.6159 105.646 88.6075 107.37C88.6055 107.776 88.7198 108.316 89.1254 108.339C90.1623 108.397 90.6531 110.007 89.8253 110.635C89.0145 111.249 89.5932 112.581 90.3996 113.201C90.5755 113.336 90.7639 113.466 90.9532 113.596C91.6315 114.063 92.322 114.538 92.4988 115.313C92.6303 115.89 92.4357 116.502 92.2457 117.099C92.008 117.847 91.7774 118.572 92.2004 119.179C92.7183 119.923 93.8231 119.85 94.7139 119.683C97.5005 119.161 100.262 118.507 102.987 117.723ZM122.649 153.773C124.654 153.611 126.673 153.615 128.678 153.785C128.846 153.799 129.023 153.818 129.158 153.919C129.366 154.075 129.403 154.366 129.427 154.625C129.619 156.749 130.022 158.854 130.629 160.899C130.535 161.15 130.267 161.211 129.989 161.274C129.807 161.315 129.62 161.357 129.475 161.454C129.005 161.766 129.142 162.514 129.491 162.957C129.614 163.114 129.757 163.257 129.9 163.399L129.9 163.399L129.9 163.4L129.9 163.4L129.9 163.4L129.9 163.4L129.9 163.4C130.161 163.661 130.421 163.921 130.557 164.259C126.256 162.912 123.121 159.061 121.446 154.877C121.344 154.623 121.246 154.341 121.339 154.083C121.431 153.826 121.81 153.675 121.984 153.886C122.053 153.968 122.07 154.081 122.085 154.188L122.378 156.278C122.416 156.551 122.863 156.554 123.015 156.324C123.166 156.093 123.11 155.79 123.049 155.521L122.649 153.773ZM108.708 112.643C108.13 110.978 106.574 109.695 104.829 109.446C104.191 109.354 103.471 109.419 103.014 109.874C102.01 110.874 101.613 112.399 101.848 113.797C102.084 115.195 102.905 116.457 103.987 117.372C104.795 118.057 105.936 118.575 106.896 118.127C107.182 117.993 107.426 117.784 107.643 117.555C108.858 116.279 109.286 114.308 108.708 112.643ZM127.877 68.7341C128.351 65.4326 128.792 61.8727 127.234 58.9239C127.125 58.7187 127.013 58.4486 127.169 58.2762L132.062 60.7005C132.45 60.8928 132.909 61.2649 132.729 61.6586C132.518 62.1182 132.478 62.6262 132.438 63.1349V63.135V63.135V63.1351V63.1352C132.421 63.35 132.404 63.5649 132.374 63.7763C132.194 65.0552 131.529 66.2266 130.686 67.205C129.843 68.1835 128.824 68.9913 127.811 69.7926C127.776 69.4399 127.826 69.0849 127.877 68.7341ZM132.804 163.549C132.242 162.759 131.492 161.984 130.527 161.888C130.155 161.851 129.654 162.229 129.925 162.487C132.261 164.721 133.826 167.918 133.536 171.137C133.247 174.356 130.818 177.429 127.624 177.919C128.569 179.041 130.372 179.128 131.652 178.413C132.933 177.697 133.757 176.365 134.276 174.993C135.694 171.248 135.123 166.813 132.804 163.549ZM82.6571 126.466C86.2015 127.021 89.6597 128.017 93.1069 129.011L102.5 131.72C105.359 132.545 108.25 133.383 110.829 134.868C109.606 134.823 108.417 134.474 107.246 134.116C105.177 133.484 103.115 132.816 101.053 132.148L101.052 132.148L101.052 132.147C94.3605 129.98 87.6643 127.811 80.7121 126.846C81.1561 126.314 81.9729 126.358 82.6571 126.466ZM134.016 64.0491C133.478 64.5323 133.221 65.2533 133.067 65.9599C133.021 66.1674 132.983 66.3769 132.944 66.5864C132.852 67.0902 132.759 67.5939 132.571 68.0687C132.54 68.1467 132.507 68.2253 132.473 68.3045L132.473 68.3045C132.304 68.7016 132.128 69.1123 132.255 69.5131C134.284 69.3828 136.119 67.7482 136.483 65.7479C136.605 65.0766 136.533 64.288 136.001 63.8602C135.438 63.4068 134.554 63.5658 134.016 64.0491ZM123.629 37.7887C123.862 38.4513 123.51 39.2645 122.867 39.5473C122.224 39.83 121.386 39.5399 121.056 38.92C120.692 38.2375 121.024 37.2783 121.732 36.967C122.44 36.6557 123.372 37.0593 123.629 37.7887ZM99.4768 38.4142C99.517 37.8118 99.1387 37.2041 98.5805 36.9742C97.8699 36.6815 96.9564 37.0707 96.6752 37.7857C96.3939 38.5008 96.7975 39.408 97.517 39.6778C98.3618 39.9947 99.4168 39.3144 99.4768 38.4142ZM126.957 44.4823C126.977 45.2445 127.676 45.9238 128.439 45.9217C129.247 45.9195 129.968 45.1419 129.909 44.3354C129.853 43.575 129.123 42.9292 128.361 42.9671C127.6 43.005 126.937 43.7202 126.957 44.4823ZM105.223 45.3674C104.67 46.0582 103.463 46.06 102.909 45.3707C102.354 44.6815 102.613 43.503 103.406 43.1105C104.199 42.718 105.294 43.2263 105.505 44.0854C105.614 44.5255 105.506 45.0135 105.223 45.3674ZM100.74 56.8826C100.272 57.6135 100.172 58.5676 100.479 59.3796C100.592 59.6806 100.761 59.9658 101.002 60.1796C101.773 60.8658 103.092 60.5759 103.741 59.7732C104.39 58.9706 104.48 57.8381 104.288 56.8236C104.212 56.4192 104.071 55.9875 103.726 55.7632C103.486 55.6071 103.184 55.5789 102.898 55.5994C102.032 55.6614 101.208 56.1516 100.74 56.8826ZM116.274 64.3633C116.019 64.1027 115.851 63.7668 115.746 63.4175C115.359 62.1225 115.904 60.6055 117.027 59.8533C117.535 59.5131 118.19 59.3241 118.765 59.5323C119.469 59.7876 119.857 60.5565 119.99 61.294C120.182 62.3495 119.952 63.5325 119.175 64.2719C118.397 65.0113 117.024 65.1298 116.274 64.3633ZM96.8127 78.9228C96.8386 78.2707 96.8916 77.6196 96.9714 76.9719C96.9991 76.7474 97.1934 76.5545 97.418 76.5284C97.522 78.1259 97.5705 79.7271 97.5633 81.328C96.8567 80.8101 96.778 79.7982 96.8127 78.9228ZM123.059 71.9877C122.846 71.0165 122.117 70.1743 121.186 69.8254C121.03 69.767 121.037 69.5179 121.168 69.4154C121.299 69.3129 121.486 69.3232 121.647 69.3626C122.532 69.5788 123.08 70.4474 123.485 71.2639C123.592 71.4799 123.697 71.7317 123.603 71.9535C123.509 72.1754 123.11 72.2232 123.059 71.9877ZM106.872 213.528C106.779 213.318 106.543 213.218 106.327 213.139C102.946 211.906 99.356 211.248 95.7574 211.201C95.2444 211.195 94.6453 211.244 94.3629 211.672C94.6376 211.904 95.0321 211.903 95.3911 211.898C99.2012 211.84 103.021 212.548 106.558 213.965C106.772 214.051 106.966 213.738 106.872 213.528ZM108.745 66.2016C108.542 66.3692 108.317 66.5088 108.093 66.6483C107.84 66.8059 107.586 66.9633 107.364 67.1608C106.944 67.5333 106.64 68.1357 106.858 68.6532C107.126 69.2925 107.987 69.4134 108.669 69.2903C108.698 69.2851 108.726 69.2797 108.755 69.2743C108.971 69.2337 109.191 69.1921 109.401 69.2496C109.639 69.3148 109.848 69.5654 109.767 69.7981C109.709 69.9616 109.538 70.0527 109.377 70.1158C108.377 70.5067 107.13 70.3613 106.388 69.5854C105.646 68.8096 105.628 67.3888 106.475 66.7298L109.784 64.1552C109.75 64.9424 109.353 65.7006 108.745 66.2016ZM121.418 72.8475C121.624 74.01 121.326 75.2047 120.904 76.3073C119.087 81.0545 114.798 84.7749 109.841 85.902C107.847 86.3556 105.646 86.3823 103.871 85.3656C102.096 84.349 100.955 82.0624 101.733 80.1707C102.647 77.9504 105.475 77.3278 107.876 77.2775C108.086 77.273 108.299 77.2699 108.513 77.2667C110.74 77.2336 113.118 77.1983 114.73 75.7152C115.304 75.1874 115.717 74.5234 116.132 73.858C116.482 73.2972 116.832 72.7355 117.278 72.2538C118.255 71.2005 120.168 70.6972 121.027 71.849C121.243 72.1383 121.355 72.4923 121.418 72.8475ZM120.398 74.6189C120.646 73.6728 120.537 72.3117 119.57 72.1688C119.21 72.1156 118.851 72.2767 118.552 72.484C117.809 72.9997 117.332 73.7767 116.853 74.5579C116.473 75.1779 116.091 75.8005 115.573 76.2975C114.22 77.5952 112.195 77.8248 110.327 77.9866L106.737 78.2974C105.822 78.3767 104.873 78.4661 104.076 78.924C102.579 79.7841 102.06 81.983 103.014 83.4217C104.046 84.9775 106.197 85.3153 108.056 85.1356C113.784 84.5816 118.942 80.1862 120.398 74.6189ZM122.444 147.342C122.249 147.365 122.047 147.31 121.89 147.192C121.784 147.112 121.699 147.005 121.646 146.883C121.473 146.488 121.706 145.969 122.117 145.836C122.527 145.703 123.021 145.987 123.113 146.408C123.204 146.83 122.872 147.293 122.444 147.342ZM129.084 147.396C128.943 147.271 128.753 147.203 128.565 147.209C128.103 147.223 127.731 147.745 127.869 148.187C128.008 148.629 128.611 148.845 128.999 148.593C129.387 148.34 129.432 147.701 129.084 147.396ZM115.124 113.762C114.643 113.209 114.685 112.279 115.212 111.77C115.74 111.261 116.671 111.254 117.206 111.755C117.778 112.29 117.786 113.311 117.222 113.855C116.658 114.398 115.638 114.353 115.124 113.762ZM108.832 118.377C108.722 118.672 108.713 119.004 108.806 119.305C109.073 120.162 110.257 120.569 110.994 120.058C111.732 119.548 111.766 118.296 111.058 117.746C110.35 117.195 109.146 117.536 108.832 118.377ZM96.1002 116.198C95.9343 116.747 95.4092 117.167 94.8378 117.209C93.9945 117.27 93.2067 116.433 93.3191 115.595C93.4314 114.757 94.4118 114.157 95.2091 114.439C95.8935 114.68 96.3105 115.504 96.1002 116.198Z" fill="#00160A"/>
</g>
<defs>
<clipPath id="clip0">
<rect width="110.639" height="157.353" fill="white" transform="translate(59.8271 29.5035)"/>
</clipPath>
</defs>
</svg>
