<svg width="18" height="14" viewBox="0 0 18 14" fill="none" xmlns="http://www.w3.org/2000/svg">
<path d="M6.65333 1V2.20548C3.77333 2.80822 2.33333 4.45205 2.33333 7.19178C2.33333 8.17808 2.6 8.61644 3.18667 8.61644C3.29333 8.61644 3.45333 8.61644 3.61333 8.56164C3.93333 8.45205 4.25333 8.39726 4.52 8.39726C5.26667 8.39726 5.85333 8.61644 6.28 9.10959C6.70667 9.60274 6.92 10.0959 6.92 10.6986C6.92 11.3014 6.70667 11.8493 6.28 12.2877C5.85333 12.726 5.26667 13 4.57333 13C3.61333 13 2.81333 12.5616 2.06667 11.6301C1.37333 10.6986 1 9.49315 1 7.9589C1 6.20548 1.48 4.67123 2.49333 3.41096C3.50667 2.15068 4.89333 1.38356 6.65333 1ZM16.7867 1V2.20548C13.9067 2.80822 12.4667 4.45205 12.4667 7.19178C12.4667 8.17808 12.7333 8.61644 13.2667 8.61644C13.3733 8.61644 13.5333 8.61644 13.6933 8.56164C14.0667 8.45205 14.3333 8.39726 14.6 8.39726C15.3467 8.39726 15.9333 8.61644 16.36 9.10959C16.7867 9.60274 17 10.0959 17 10.6986C17 11.3014 16.7867 11.8493 16.36 12.2877C15.9333 12.726 15.3467 13 14.6533 13C13.6933 13 12.84 12.5616 12.1467 11.6301C11.4533 10.6986 11.08 9.49315 11.08 7.9589C11.08 6.20548 11.56 4.67123 12.5733 3.41096C13.5867 2.15068 14.9733 1.38356 16.7867 1Z" fill="#D5C6FF" stroke="#D5C6FF" stroke-miterlimit="10"/>
</svg>
