<svg width="18" height="14" viewBox="0 0 18 14" fill="none" xmlns="http://www.w3.org/2000/svg">
<path d="M1.21263 13V11.7945C4.08306 11.1918 5.51827 9.54795 5.51827 6.80822C5.51827 5.82192 5.25249 5.38356 4.72093 5.38356C4.61462 5.38356 4.45515 5.38356 4.29568 5.43836C3.97675 5.54795 3.65781 5.60274 3.39203 5.60274C2.64784 5.60274 2.06313 5.38356 1.63788 4.89041C1.21263 4.39726 1 3.90411 1 3.30137C1 2.69863 1.21263 2.15068 1.63788 1.71233C2.06313 1.27397 2.64784 1 3.33887 1C4.29568 1 5.09303 1.43836 5.83721 2.36986C6.52824 3.30137 6.90033 4.50685 6.90033 6.0411C6.90033 7.79452 6.42193 9.32877 5.41196 10.589C4.40199 11.8493 3.01993 12.6164 1.21263 13ZM11.3123 13V11.7945C14.1827 11.1918 15.6179 9.54795 15.6179 6.80822C15.6179 5.82192 15.3522 5.38356 14.7674 5.38356C14.6611 5.38356 14.5017 5.38356 14.3422 5.43836C14.0233 5.54795 13.7043 5.60274 13.4385 5.60274C12.7475 5.60274 12.1628 5.38356 11.7375 4.89041C11.3123 4.39726 11.0997 3.90411 11.0997 3.30137C11.0997 2.75343 11.3123 2.20548 11.7375 1.71233C12.1628 1.21918 12.7475 1 13.4385 1C14.3953 1 15.1927 1.43836 15.9369 2.36986C16.6279 3.30137 17 4.50685 17 6.0411C17 7.79452 16.5216 9.32877 15.5116 10.589C14.5017 11.8493 13.0664 12.6164 11.3123 13Z" fill="#D5C6FF" stroke="#D5C6FF" stroke-miterlimit="10"/>
</svg>
