<svg width="24" height="24" viewBox="0 0 24 24" fill="none" xmlns="http://www.w3.org/2000/svg">
<path d="M11.9943 2C10.0165 2 8.08311 2.58649 6.43862 3.6853C4.79413 4.78412 3.5124 6.3459 2.75553 8.17317C1.99865 10.0004 1.80062 12.0111 2.18647 13.9509C2.57232 15.8907 3.52473 17.6725 4.92325 19.0711C6.32178 20.4696 8.10361 21.422 10.0434 21.8079C11.9832 22.1937 13.9939 21.9957 15.8212 21.2388C17.6484 20.4819 19.2102 19.2002 20.309 17.5557C21.4078 15.9112 21.9943 13.9778 21.9943 12C21.9944 10.6868 21.7358 9.38634 21.2333 8.17304C20.7308 6.95973 19.9942 5.8573 19.0656 4.92869C18.137 4.00008 17.0346 3.26349 15.8213 2.76098C14.608 2.25847 13.3076 1.99989 11.9943 2V2ZM15.1738 17.1525C15.1364 17.2458 15.0794 17.33 15.0068 17.3996C14.9341 17.4691 14.8475 17.5223 14.7526 17.5556C14.6577 17.5889 14.5568 17.6015 14.4566 17.5926C14.3565 17.5837 14.2594 17.5535 14.1718 17.504L11.4572 15.3946L9.71484 17.002C9.67441 17.0319 9.62712 17.0511 9.57732 17.0579C9.52751 17.0647 9.4768 17.0589 9.42984 17.0409L9.76384 14.0525L9.77453 14.061L9.78136 14.002C9.78136 14.002 14.6664 9.55445 14.8654 9.36496C15.0668 9.17596 15.0004 9.13496 15.0004 9.13496C15.0118 8.90443 14.6388 9.13496 14.6388 9.13496L8.16632 13.299L5.47083 12.381C5.47083 12.381 5.05683 12.2325 5.01783 11.906C4.97683 11.582 5.48432 11.406 5.48432 11.406L16.2013 7.14849C16.2013 7.14849 17.0823 6.75597 17.0823 7.406L15.1738 17.1525Z" fill="white"/>
</svg>
