<svg width="304" height="242" viewBox="0 0 304 242" fill="none" xmlns="http://www.w3.org/2000/svg">
<path d="M183.387 107.714C180.096 108.483 173.427 111.336 170.699 113.131C169.437 113.968 167.424 115.933 166.35 117.403C165.429 118.651 164.61 120.77 164.286 122.718C164.065 124.068 164.065 124.512 164.303 126.648C165.02 132.886 167.8 146.472 171.381 161.117C174.058 172.071 174.587 175.437 174.741 182.666C174.843 187.229 174.638 190.544 174.195 191.604C173.683 192.834 174.706 195.688 176.361 197.619C179.038 200.746 182.995 203.139 188.895 205.189C192.886 206.591 194.216 206.813 201.481 207.377C206.052 207.736 205.574 207.719 209.582 207.462C218.57 206.898 223.106 206.061 230.047 203.737C232.861 202.797 233.526 202.506 234.191 201.942C235.794 200.575 237.431 197.414 238.062 194.457C238.523 192.287 238.711 189.673 238.847 183.674C238.966 178.445 238.983 178.274 239.376 177.471C239.99 176.258 240.706 174.19 241.013 172.823C241.439 170.909 241.61 168.807 241.9 161.715C242.275 152.846 242.155 144.711 241.456 132.749C241.03 125.52 239.836 121.043 237.755 118.958C236.818 118.018 235.368 117.301 231.65 115.951C227.489 114.447 225.221 113.917 209.65 110.807C201.123 109.098 196.399 108.312 191.351 107.714C186.951 107.201 185.621 107.201 183.387 107.714Z" fill="white"/>
<path d="M183.66 106.124C179.857 106.996 173.393 109.696 170.187 111.764C168.925 112.584 165.804 115.694 164.832 117.095C164.065 118.206 163.11 120.684 162.837 122.273C162.445 124.529 162.888 128.648 164.303 135.842C165.924 144.062 167.97 153.273 170.034 161.476C171.91 168.995 172.524 172.156 173.001 176.702C173.564 182.17 173.479 189.006 172.831 190.869C172.489 191.843 172.506 192.612 172.916 194.218C173.871 197.961 177.879 201.823 183.728 204.643C186.406 205.924 191.351 207.65 193.466 208.026C198.173 208.864 206.103 209.205 211.833 208.812C218.86 208.334 224.146 207.274 230.9 205.001L234.055 203.942L235.232 202.831C237.176 201.003 238.318 199.02 239.188 195.995C239.887 193.569 240.109 191.467 240.297 184.802C240.467 179.282 240.535 178.411 240.791 177.967C241.354 176.992 242.48 173.335 242.735 171.644C243.247 168.175 243.418 163.526 243.418 152.589C243.418 142.387 243.298 137.91 242.821 131.057C242.36 124.563 240.979 120.137 238.728 117.967C237.295 116.583 236.647 116.241 233.032 114.891C229.348 113.524 226.073 112.669 218.365 111.08C200.185 107.321 192.818 106.124 187.412 106.005C185.723 105.971 184.103 106.022 183.66 106.124ZM193.381 108.038C199.52 108.876 207.195 110.311 219.815 112.96C226.142 114.293 228.58 114.925 232.06 116.207C235.675 117.523 236.63 118.035 237.807 119.283C240.979 122.615 241.917 130.083 241.9 152.248C241.883 163.031 241.712 167.969 241.218 171.302C240.945 173.165 239.973 176.206 239.29 177.368L238.847 178.137L238.728 184.29C238.659 187.673 238.523 191.176 238.404 192.065C237.875 196.269 236.494 199.447 234.277 201.601C233.407 202.455 233.202 202.541 230.371 203.532C225.732 205.138 220.377 206.386 215.79 206.932C214.92 207.035 212.379 207.223 210.128 207.36C206.547 207.582 205.574 207.582 202.385 207.36C194.66 206.847 193.04 206.574 188.861 205.104C184.376 203.532 182.5 202.575 179.652 200.439C177.06 198.49 175.184 196.286 174.553 194.423C174.178 193.313 174.024 191.928 174.229 191.672C174.758 191.023 175.082 184.563 174.792 180.274C174.331 173.575 173.786 170.533 171.023 159.254C168.959 150.829 167.783 145.48 166.162 137.295C164.627 129.502 164.303 127.332 164.303 124.478C164.303 122.137 164.321 122.051 164.934 120.411C165.736 118.292 166.214 117.608 168.533 115.267C170.136 113.661 170.716 113.199 172.319 112.293C175.252 110.636 180.914 108.329 183.558 107.748C185.246 107.355 189.339 107.491 193.381 108.038Z" fill="black"/>
<path d="M236.613 120.958C235.846 121.146 229.314 123.709 229.058 123.914C228.598 124.29 228.922 125.23 229.519 125.23C229.672 125.23 231.548 124.529 233.68 123.658C237.756 122.017 238.182 121.727 237.619 121.112C237.466 120.941 237.278 120.787 237.227 120.804C237.176 120.821 236.903 120.889 236.613 120.958Z" fill="black"/>
<path d="M219.337 121.914C219.047 122.427 219.439 122.991 220.224 123.179C224.556 124.238 227.165 129.758 227.625 138.747L227.745 141.208L228.222 141.259C228.904 141.344 229.092 140.729 229.075 138.302C229.058 134.987 228.205 130.715 226.943 127.69C225.579 124.392 222.97 122.017 220.429 121.709C219.644 121.623 219.491 121.658 219.337 121.914Z" fill="black"/>
<path d="M227.711 146.198C227.54 146.608 227.557 148.266 227.796 153.717C228.052 159.442 228.069 171.456 227.83 174.105C227.728 175.267 227.523 176.36 227.335 176.787C227.045 177.437 226.926 177.539 226.108 177.762C225.613 177.898 224.999 178.035 224.777 178.069C224.453 178.103 224.351 178.223 224.351 178.548C224.351 179.453 225.886 179.658 227.301 178.958C228.359 178.428 228.785 177.796 229.143 176.206C229.876 172.96 229.467 147.104 228.666 146.13C228.41 145.822 227.847 145.856 227.711 146.198Z" fill="black"/>
<path d="M234.737 178.991C233.987 179.231 232.537 179.658 231.497 179.983C229.297 180.632 229.194 180.7 229.194 181.196C229.194 181.692 229.501 181.982 230.013 181.982C230.525 181.982 235.334 180.393 236.357 179.88C236.954 179.59 237.124 179.402 237.124 179.077C237.124 178.479 236.459 178.462 234.737 178.991Z" fill="black"/>
<path d="M153.73 104.124C151.206 102.911 148.597 102.672 146.738 103.458C146.175 103.697 145.271 103.953 144.725 104.039C144.179 104.124 143.514 104.346 143.224 104.569C142.508 105.081 141.707 106.807 141.707 107.833C141.707 108.431 141.468 109.114 140.7 110.738C138.245 115.95 135.584 123.828 132.992 133.569C132.719 134.628 132.327 135.448 131.423 136.884L130.229 138.798L130.485 139.584C130.741 140.353 130.724 140.37 130.332 140.507C130.025 140.609 129.922 140.78 129.922 141.139C129.922 141.583 130.4 141.959 136.454 146.027C140.035 148.436 143.173 150.453 143.412 150.504C143.685 150.555 143.941 150.47 144.077 150.282C144.282 150.025 144.282 149.923 144.043 149.513C143.787 149.051 143.804 148.983 144.589 147.428C145.953 144.779 152.877 127.109 155.299 120.12C158.096 112.071 158.351 109.695 156.748 106.756C156.186 105.645 155.248 104.859 153.73 104.124Z" fill="white"/>
<path d="M146.652 101.92C146.141 102.057 145.373 102.45 144.981 102.757C144.418 103.202 144.128 103.321 143.753 103.236C142.815 103.048 142.235 103.851 140.411 107.833C138.023 113.045 137.273 114.856 136.164 118.052C135.141 121.009 132.975 128.118 131.901 132.116C131.321 134.218 131.116 134.697 130.127 136.303C129.496 137.311 128.933 138.268 128.882 138.439C128.814 138.61 128.916 139.26 129.104 139.858C129.291 140.473 129.445 141.139 129.445 141.362C129.445 141.567 129.598 141.891 129.786 142.062C130.076 142.319 130.195 142.336 130.57 142.182C130.98 142.011 131.014 141.908 130.946 141.174C130.911 140.729 130.775 140.012 130.639 139.584L130.417 138.815L131.577 136.918C132.685 135.09 132.77 134.885 133.913 130.783C136.028 123.213 137.887 117.539 139.439 113.882C140.479 111.456 143.276 105.372 143.446 105.15C143.532 105.047 143.907 104.928 144.282 104.859C144.674 104.808 145.254 104.535 145.629 104.244C146.601 103.475 147.522 103.202 149.194 103.202C152.621 103.202 155.776 104.876 156.97 107.354C157.755 108.961 157.823 111.182 157.175 113.968C156.442 117.146 152.673 127.468 147.522 140.37C145.425 145.617 144.487 147.702 143.48 149.257C142.594 150.624 142.542 150.812 142.901 151.239C144.077 152.692 145.953 148.847 152.809 130.886C157.755 117.932 159.119 113.558 159.119 110.55C159.119 106.449 156.936 103.629 152.638 102.176C151.138 101.664 148.034 101.544 146.652 101.92Z" fill="black"/>
<path d="M173.257 90.8296C164.73 91.6669 159.034 92.9657 154.941 95.0164C150.66 97.1696 146.448 100.622 144.316 103.749C143.753 104.569 143.412 104.911 143.156 104.911C142.645 104.911 142.389 105.236 142.389 105.902C142.389 106.637 142.645 107.133 143.037 107.133C143.463 107.133 143.753 107.474 143.753 107.987C143.753 108.483 143.89 108.688 144.35 108.944C144.623 109.098 144.742 109.491 144.964 110.824C145.118 111.764 145.697 114.43 146.277 116.788C146.857 119.146 147.676 122.94 148.102 125.247C150.097 135.876 150.831 138.542 152.758 142.421C153.935 144.78 154.77 145.976 157.158 148.642C161.336 153.324 162.018 154.162 162.7 155.58C163.962 158.195 164.73 161.527 165.088 165.833C165.19 167.064 165.344 168.277 165.429 168.568C165.77 169.644 168.686 171.131 173.001 172.413C178.646 174.104 188.52 176.599 194.046 177.71C198.173 178.548 202.01 178.342 204.329 177.163C205.694 176.463 206.581 175.762 208.951 173.438C210.657 171.763 211.646 170.635 212.447 169.422C213.692 167.542 215.636 163.783 216.131 162.262L216.455 161.288L215.67 160.45C213.505 158.126 210.452 151.82 208.832 146.335C206.683 138.969 205.83 133.518 205.233 123.265C204.636 112.84 204.227 110.038 202.556 104.894C200.765 99.4083 198.156 95.4094 194.847 93.1195C192.886 91.7695 191.675 91.2739 189.799 91.0688C184.939 90.5391 177.367 90.4194 173.257 90.8296Z" fill="white"/>
<path d="M173.939 89.3601C169.488 89.7018 163.928 90.5563 160.569 91.4107C158.829 91.855 154.105 93.769 152.655 94.6235C147.744 97.5115 143.48 101.715 141.553 105.526C140.956 106.705 140.888 107.133 141.263 107.44C141.758 107.85 142.287 107.526 142.781 106.483C144.793 102.365 149.586 97.8704 154.838 95.1532C158.829 93.1026 164.883 91.6671 172.592 90.9664C177.213 90.5392 186.133 90.6588 190.379 91.2057C194.046 91.6842 198.599 95.9222 201.021 101.134C201.396 101.938 202.01 103.544 202.402 104.706C204.074 109.799 204.551 112.857 205.046 121.641C205.626 132.014 206.325 137.244 207.979 143.652C209.633 150.06 212.584 156.828 215.193 160.126L216.267 161.493L215.807 162.792C215.312 164.21 213.59 167.508 212.345 169.405C211.424 170.823 207.177 175.113 205.557 176.258C203.391 177.796 200.731 178.36 197.098 178.052C194.967 177.864 193.756 177.625 187.497 176.138C174.365 173.011 167.595 170.789 165.941 169.08L165.378 168.499L165.139 165.714C164.747 161.134 164.099 158.331 162.786 155.563C162.018 153.922 161.404 153.136 157.584 148.881C154.941 145.942 154.105 144.814 153.048 142.815C151.325 139.551 150.251 135.962 148.921 129.16C148.409 126.477 147.795 123.333 147.556 122.154C147.317 120.975 146.721 118.258 146.192 116.087C145.322 112.516 145.049 111.2 144.828 109.542C144.725 108.773 144.214 108.534 143.719 109.012C143.395 109.337 143.361 109.525 143.429 110.431C143.48 111.012 144.026 113.541 144.64 116.087C145.254 118.634 146.141 122.769 146.635 125.315C148.221 133.723 148.631 135.483 149.739 138.816C151.138 143.037 152.621 145.566 155.691 149.035C161.012 155.033 161.2 155.29 162.24 158.417C162.939 160.502 163.434 163.321 163.604 165.987C163.758 168.602 164.031 169.491 164.934 170.26C167.1 172.122 171.21 173.541 183.302 176.565C194.319 179.334 196.024 179.641 199.64 179.522C202.59 179.419 204.21 179.009 205.984 177.847C207.57 176.822 212.464 171.934 213.573 170.26C215.79 166.927 218.314 161.168 217.939 160.314C217.836 160.074 217.546 159.904 217.171 159.835C216.54 159.716 216.336 159.476 215.039 157.306C213.266 154.367 211.168 149.531 210.025 145.737C208.081 139.294 207.109 132.852 206.581 123.008C206.035 112.755 205.591 109.73 203.818 104.33C202.812 101.237 201.72 98.947 200.305 96.8963C197.61 92.9829 193.295 89.8215 190.379 89.5993C185.041 89.2063 177.435 89.0866 173.939 89.3601Z" fill="black"/>
<path d="M179.345 77.9957C177.589 78.0811 173.905 79.7046 166.043 83.8914C160.415 86.882 160.483 86.8478 159.426 88.5567C158.147 90.6245 158.096 90.8466 158.59 91.8891L159 92.7435L158.59 93.2562C158.369 93.5467 158.164 93.9397 158.147 94.1448C158.113 94.4182 157.857 94.6404 157.311 94.8967C156.203 95.4094 150.183 98.9468 150.166 99.0835C150.114 99.5449 150.575 101.391 151.121 102.86C152.451 106.449 154.685 109.559 157.107 111.183C160.21 113.267 165.514 114.652 169.505 114.412C173.683 114.173 180.999 111.61 186.218 108.568C190.976 105.782 193.551 103.151 194.933 99.5962C195.342 98.5196 195.41 98.1607 195.342 97.443C195.257 96.4347 195.12 96.298 192.835 94.8455C190.686 93.4783 189.526 92.9657 187.139 92.3846C185.058 91.872 184.973 91.8378 184.427 91.1713L183.864 90.4878L183.916 88.2491C184.018 83.8914 183.609 80.6274 182.79 79.3286C182.193 78.3546 181.033 77.9102 179.345 77.9957Z" fill="white"/>
<path d="M178.919 76.5601C177.23 76.7481 173.837 78.2348 167.203 81.721C165.139 82.7976 162.513 84.216 161.37 84.8824L159.29 86.0787L158.181 87.7876C157.192 89.3256 157.055 89.6161 156.936 90.6073C156.817 91.5813 156.851 91.8206 157.226 92.4358C157.618 93.1193 157.635 93.1706 157.311 93.2902C157.124 93.3757 155.486 94.2814 153.645 95.3409C151.803 96.4004 149.961 97.3916 149.552 97.5625C148.648 97.9385 148.614 98.0581 148.852 99.972C149.228 102.792 150.797 106.124 153.167 109.149C155.077 111.575 156.066 112.379 158.539 113.541C161.08 114.737 163.007 115.284 165.872 115.643C168.874 116.019 170.358 115.916 173.666 115.113C179.891 113.609 186.337 110.584 190.789 107.081C193.824 104.706 195.376 102.655 196.587 99.4081C196.996 98.3315 197.013 98.2119 196.86 97.1694C196.655 95.7852 196.263 95.3238 194.063 93.9054C191.556 92.282 189.782 91.4788 187.616 90.949C186.576 90.6927 185.638 90.3851 185.502 90.2484C185.348 90.0946 185.297 89.7186 185.365 89.2231C185.485 88.2148 185.382 83.8913 185.195 82.5412C184.7 78.8671 183.182 76.8677 180.71 76.5943C180.113 76.5259 179.294 76.5088 178.919 76.5601ZM181.392 78.269C182.415 78.6279 183.336 80.3026 183.66 82.4558C183.847 83.6862 183.933 86.3692 183.865 88.6762C183.83 89.6674 183.882 90.6585 183.967 90.8636C184.291 91.5813 185.024 91.9402 187.002 92.4016C189.373 92.9655 190.652 93.5295 193.142 95.1871C195.206 96.5542 195.478 96.9131 195.308 98.1093C195.103 99.5448 193.449 102.501 191.931 104.091C187.378 108.875 175.576 114.105 168.891 114.327C164.508 114.464 158.966 112.703 156.1 110.243C154.89 109.217 153.491 107.337 152.297 105.218C151.445 103.68 150.353 100.604 150.336 99.6815L150.319 98.998L153.696 97.0498C157.959 94.589 158.335 94.4181 158.727 94.777C163.246 98.9467 166.128 102.826 166.52 105.304C166.708 106.5 166.862 106.756 167.339 106.808C168.277 106.927 168.413 105.868 167.714 103.8C166.862 101.305 165.412 99.3227 161.575 95.4093C158.983 92.7776 158.164 91.4617 158.437 90.4876C158.522 90.1629 159.017 89.2914 159.511 88.5224C160.552 86.916 160.603 86.8989 166.401 83.8058C174.417 79.5336 177.81 78.0468 179.635 78.0127C180.147 77.9956 180.658 78.0126 180.744 78.0468C180.863 78.0981 181.136 78.1835 181.392 78.269Z" fill="black"/>
<path d="M154.259 122.495C154.276 120.957 154.344 120.701 155.606 116.873C157.021 112.584 161.029 101.202 161.711 99.5447C161.95 98.9808 162.172 98.6219 162.24 98.7244C162.462 99.1004 163.007 98.9466 163.28 98.4339C163.434 98.1605 163.621 97.3744 163.724 96.7079C163.928 95.3066 163.775 94.8281 163.127 94.8281C162.666 94.8281 162.359 95.2554 162.359 95.9218C162.359 96.1953 162.257 96.3661 162.121 96.3661C161.984 96.3661 161.165 97.2377 160.296 98.2972C156.442 103.014 153.645 108.363 149.995 117.984C149.245 119.949 148.955 120.735 148.87 121.641C150.626 122.239 152.451 123.042 154.276 123.521L154.259 122.495Z" fill="black"/>
<path d="M191.13 122.7C190.993 121.829 190.823 121.299 190.584 121.008C190.345 120.701 190.089 119.915 189.834 118.667C188.503 112.225 186.747 105.389 185.144 100.416C184.41 98.1433 184.393 98.0579 184.717 97.887C185.434 97.511 185.058 96.9129 182.858 94.9819C180.795 93.1533 180.369 92.9141 179.942 93.3413C179.618 93.666 179.686 94.0249 180.215 94.5717C180.812 95.1869 180.863 95.5458 181.596 102.279C182.688 112.327 183.506 121.436 183.558 124.05C186.031 124.443 188.81 123.879 191.13 122.7Z" fill="black"/>
<path d="M221.605 171.917C221.23 167.457 220.65 164.364 219.508 160.775L218.996 159.152L216.932 157.101C214.545 154.725 213.624 153.461 213.334 152.145C213.215 151.615 212.788 150.624 212.379 149.872C211.97 149.137 211.441 148.163 211.202 147.668C210.878 147.001 210.384 146.454 209.207 145.463C205.847 142.626 199.196 135.603 196.246 131.809C194.813 129.963 191.948 125.657 191.607 124.854C191.471 124.546 191.283 123.658 191.164 122.872C191.147 122.803 191.147 122.752 191.13 122.684C188.81 123.863 186.03 124.427 183.558 123.999C183.558 124.375 183.558 124.615 183.523 124.7C183.421 125.093 183.251 125.127 179.345 125.623C172.421 126.494 168.004 126.597 163.229 125.965C161.183 125.691 157.209 124.905 155.35 124.375L154.242 124.068V123.47C152.434 123.008 150.609 122.205 148.835 121.59C148.784 122.188 148.818 122.837 148.887 123.914C148.904 124.29 148.818 126.204 148.631 128.186C148.443 130.169 148.341 132.646 148.341 133.74V135.705L149.773 138.696C151.786 142.78 156.339 150.299 159.017 153.922L159.477 154.555L159.204 155.648C158.897 156.896 159 157.528 159.665 158.4C160.176 159.049 160.245 159.374 160.466 162.108C160.671 164.466 161.319 168.038 161.694 168.961C162.018 169.73 163.826 171.9 164.866 172.771C167.544 175.01 171.654 177.044 178.714 179.607C187.582 182.82 198.975 185.571 212.226 187.741C214.579 188.117 216.898 188.51 217.41 188.613C218.86 188.886 219.61 188.835 219.712 188.476C220.736 184.939 221.264 182.034 221.588 178.172C221.844 175.318 221.844 174.72 221.605 171.917Z" fill="#95C035"/>
<path d="M179.499 92.4364C179.396 92.6414 179.413 93.1883 179.567 94.094C180.385 98.7764 181.767 115.079 182.227 122.24L182.347 123.966L181.016 124.171C172.285 125.504 166.435 125.487 159.733 124.102C158.13 123.778 156.424 123.385 155.93 123.248L155.06 123.009L155.401 121.778C156.51 117.745 161.848 102.587 163.144 99.8017C163.962 98.0416 164.031 97.6998 163.655 97.3751C163.127 96.9308 162.615 97.3067 162.069 98.5201C160.722 101.545 154.395 119.693 153.917 121.949C153.849 122.257 153.696 122.496 153.559 122.496C153.423 122.496 152.485 122.171 151.462 121.778C149.637 121.078 149.603 121.043 149.517 120.428C149.415 119.745 149.842 118.429 151.666 113.951C155.367 104.877 159.477 98.4175 163.621 95.2048C164.235 94.7263 164.201 94.0598 163.57 93.9915C163.263 93.9573 162.769 94.2307 161.745 95.051C157.567 98.3663 153.201 105.937 149.023 117.027C147.624 120.736 147.454 121.317 147.659 121.642C147.778 121.847 147.761 122.496 147.607 123.795C147.164 127.366 146.806 132.647 146.874 134.441C146.942 136.218 146.959 136.287 147.846 138.132C149.569 141.738 152.4 146.54 155.998 151.975L157.925 154.88L157.652 155.649C157.294 156.691 157.465 157.648 158.215 158.759C158.761 159.579 158.829 159.784 158.965 161.544C159.204 164.415 159.801 168.107 160.193 169.064C160.91 170.875 163.382 173.558 165.872 175.233C171.415 178.992 183.967 183.333 198.446 186.494C204.977 187.913 216.694 190.015 219.439 190.254C220.753 190.374 220.838 190.356 221.094 189.981C221.281 189.707 221.315 189.502 221.196 189.28C221.077 189.041 221.213 188.22 221.708 186.204C222.68 182.239 222.918 180.359 223.038 175.985C223.106 173.011 223.072 171.576 222.85 169.679C222.458 166.244 221.708 162.758 220.77 159.87C220.343 158.588 220.292 158.503 218.092 156.298C215.636 153.837 215.091 153.068 214.664 151.393C214.494 150.761 213.982 149.633 213.47 148.728C212.959 147.873 212.464 146.933 212.362 146.643C212.226 146.267 211.56 145.6 210.281 144.524C205.915 140.867 200.185 134.8 196.877 130.34C195.154 128.016 193.568 125.521 192.699 123.761C192.033 122.428 191.812 121.676 190.959 117.796C189.424 110.824 187.514 103.51 185.826 98.1441C185.178 96.0593 185.092 95.8884 184.717 95.8371C184.24 95.7687 184.052 95.8371 183.882 96.1618C183.745 96.4181 183.864 96.9308 184.393 98.4175C185.331 101.049 186.781 105.971 187.804 110.055C188.674 113.507 190.055 119.745 190.26 121.163L190.379 121.966L189.117 122.342C188.06 122.65 185.519 123.299 184.069 123.607C183.762 123.675 183.694 123.624 183.694 123.299C183.694 121.744 182.347 107.936 181.289 98.5713C180.505 91.5136 180.965 92.6756 180.692 92.3509C180.385 92.0092 179.703 92.0604 179.499 92.4364ZM151.138 123.18C152.127 123.555 153.628 124.051 154.497 124.29C156.987 124.991 162.615 126.068 164.832 126.256C171.892 126.854 181.682 125.88 188.861 123.863C189.868 123.573 190.72 123.368 190.754 123.402C190.788 123.436 191.112 124.068 191.488 124.82C192.784 127.418 195.785 131.639 198.94 135.33C201.174 137.944 206.751 143.584 208.9 145.412C209.923 146.284 210.844 147.19 210.964 147.446C211.066 147.702 211.577 148.625 212.072 149.531C212.567 150.419 213.078 151.547 213.181 152.009C213.556 153.615 214.34 154.76 216.711 157.17C218.894 159.391 218.979 159.494 219.405 160.775C222.151 169.149 222.407 178.24 220.139 186.682L219.593 188.716L218.229 188.613C215.841 188.425 206.359 186.768 199.81 185.401C186.099 182.513 172.677 177.967 167.237 174.361C164.423 172.498 162.035 169.935 161.592 168.295C161.182 166.808 160.705 163.903 160.586 162.348C160.381 159.374 160.33 159.135 159.733 158.28C158.983 157.187 158.914 156.879 159.204 156.025C159.341 155.614 159.46 155.102 159.46 154.863C159.46 154.589 158.624 153.205 157.26 151.171C154.31 146.797 151.359 141.824 149.756 138.594L148.443 135.945L148.392 134.236C148.324 132.305 149.091 122.53 149.296 122.53C149.33 122.496 150.148 122.804 151.138 123.18Z" fill="black"/>
<path d="M205.933 148.813C205.881 148.899 205.267 150.659 204.551 152.744C203.852 154.829 202.778 157.682 202.164 159.118C201.499 160.656 201.089 161.835 201.157 162.006C201.328 162.553 202.027 162.382 202.505 161.664C203.306 160.451 204.995 156.247 206.547 151.684C207.178 149.821 207.246 149.445 207.075 149.07C206.871 148.625 206.154 148.471 205.933 148.813Z" fill="black"/>
<path d="M197.099 152.881C195.734 153.889 194.251 154.982 193.79 155.324C193.176 155.769 192.954 156.042 192.954 156.35C192.954 156.982 193.568 156.982 194.711 156.35C195.99 155.632 200.151 152.487 200.373 152.06C200.595 151.65 200.305 151.052 199.878 151.052C199.708 151.035 198.463 151.872 197.099 152.881Z" fill="black"/>
<path d="M9.12798 135.91C8.39466 136.645 8.7869 136.798 15.7791 138.507C78.5041 153.716 108.878 160.586 159.699 171.045C212.055 181.811 238.881 187.655 255.543 191.91C279.521 198.045 294.802 201.634 295.791 201.378C296.456 201.207 296.541 200.199 295.91 200.011C295.757 199.959 294.699 199.754 293.591 199.566C289.668 198.9 275.991 195.704 261 191.945C255.935 190.68 249.676 189.142 247.101 188.527C232.895 185.16 205.25 179.265 167.458 171.523C110.873 159.937 85.3599 154.195 33.413 141.412C19.7186 138.046 11.6861 136.098 9.92952 135.756C9.55433 135.67 9.33263 135.722 9.12798 135.91Z" fill="black"/>
<path d="M145.049 84.6426L144.896 85.0698C144.555 85.9926 144.026 87.5135 143.719 88.4705C143.071 90.5041 142.27 92.2814 141.332 93.7852C140.974 94.3662 140.718 94.896 140.752 94.9644C140.803 95.0327 141.212 94.9985 141.673 94.896C142.133 94.7935 142.679 94.7251 142.884 94.7422C143.293 94.7935 144.026 95.7675 144.248 96.5878C144.572 97.7499 147.352 98.5531 150.183 98.2967C151.496 98.1771 153.645 97.5961 154.583 97.1347C150.063 93.9732 146.84 89.6155 145.049 84.6426Z" fill="white"/>
<path d="M180.027 62.119C179.908 60.2051 178.953 58.2056 177.265 56.4455C172.353 51.558 169.147 45.3205 163.212 41.8514C156.152 37.733 147.181 43.7141 144.589 50.977C142.15 58.4278 142.253 66.1862 144.265 73.6541C144.418 74.406 144.35 75.1409 144.214 75.8586C144.538 76.4055 144.759 77.4821 144.794 78.7808C144.811 79.7036 144.981 81.1049 145.152 81.9252L145.476 83.412L145.015 84.6595C146.806 89.6324 150.029 93.9901 154.583 97.1515C154.685 97.1003 154.77 97.049 154.838 97.0148L155.384 96.6559L157.226 97.5275C158.232 98.006 159.358 98.4332 159.699 98.4845C162.24 98.8092 168.089 96.5021 171.5 93.8021C175.491 90.6577 178.407 87.4962 179.772 84.8474C180.198 84.0272 180.488 83.805 181.068 83.9759C182.483 77.0207 180.744 69.4673 180.027 62.119Z" fill="white"/>
<path d="M201.55 83.2244C201.533 80.0288 200.561 76.5768 198.633 72.8514C195.973 67.6905 195.905 67.5196 195.802 64.6316C195.41 54.4294 194.25 48.6704 191.505 43.2019C190.499 41.2025 187.787 37.6822 185.843 35.8536C184.206 34.3156 181.102 32.1624 180.061 31.8548C179.277 31.6327 178.765 31.1883 178.817 30.7953C178.851 30.5219 177.742 30.3681 177.554 30.6073C177.469 30.7098 177.162 30.7098 176.736 30.5902C175.303 30.1801 170.494 29.582 169.198 29.6674C165.668 29.8896 159.136 32.1282 154.907 34.5378C149.449 37.6651 145.049 43.407 142.73 50.4135C140.752 56.3776 140.172 63.5379 141.229 68.4253C141.724 70.6811 142.662 73.364 142.986 73.4153C143.242 73.4495 143.463 73.9451 143.429 74.4236C143.412 74.885 143.617 75.3805 143.873 75.5002C144.009 75.5685 144.128 75.6882 144.231 75.8761C144.35 75.1584 144.435 74.4236 144.282 73.6716C142.252 66.2037 142.167 58.4453 144.606 50.9945C147.198 43.7317 156.152 37.7505 163.229 41.869C169.164 45.3381 172.37 51.5755 177.282 56.463C178.953 58.2061 179.448 60.8549 179.567 62.7689C180.283 70.1171 182.5 77.0382 181.102 83.9763C181.204 84.0105 181.323 84.0447 181.443 84.096L182.057 84.3523L181.613 87.0182C180.675 92.7772 178.663 98.3482 176.275 101.886C175.832 102.535 175.457 103.133 175.457 103.201C175.423 103.543 176.412 103.355 178.373 102.655C181.016 101.715 182.398 100.929 183.847 99.5273C185.041 98.3824 185.416 98.2628 185.86 98.9121C186.593 99.9375 187.633 99.8862 188.93 98.7412C189.39 98.3311 190.072 97.5621 190.464 96.9811C191.249 95.8532 192.886 94.6741 193.091 95.1184C193.21 95.3918 193.978 95.0842 195.666 94.093C197.116 93.2386 198.122 92.1961 199.384 90.2651C200.219 88.9663 200.543 88.2828 201.004 86.7618C201.498 85.07 201.55 84.6599 201.55 83.2244Z" fill="white"/>
<path d="M171.006 28.2495C167.919 28.1983 165.395 28.7109 160.927 30.3344C154.31 32.7269 149.841 35.8542 146.277 40.5195C142.73 45.1848 140.445 51.3026 139.592 58.4288C138.944 63.7776 139.268 67.5201 140.735 71.912C141.383 73.826 142.781 76.8165 143.054 76.8507C143.241 76.8678 143.378 77.8419 143.378 79.1236C143.378 79.6533 143.497 80.6787 143.634 81.4477C143.872 82.7294 143.872 82.9173 143.514 84.3186C142.969 86.5402 141.86 89.8213 141.195 91.1542C140.888 91.7865 140.155 92.9999 139.575 93.8714L138.517 95.4265L138.807 95.9221C139.183 96.5886 139.728 96.6911 141.263 96.4177C142.44 96.2126 142.542 96.2126 142.662 96.5031C143.651 98.7759 144.708 99.357 148.221 99.6133C150.643 99.7842 152.093 99.545 153.781 98.6734L155.026 98.0411L156.902 98.8785C159.511 100.058 159.596 100.075 161.251 99.8696C164.065 99.5108 168.806 97.4943 171.602 95.4265C173.41 94.0936 177.452 90.3681 178.953 88.6251L180.095 87.2921L179.993 88.1466C179.857 89.3428 179.004 92.6068 178.39 94.2986C177.213 97.5455 175.423 100.895 173.888 102.706C172.643 104.176 172.66 104.381 174.075 104.603C175.593 104.843 177.077 104.637 178.902 103.971C181.016 103.202 182.875 102.177 184.12 101.083L185.143 100.177L185.587 100.604C186.866 101.818 189.185 100.827 191.266 98.1607C192.016 97.2038 192.221 97.067 193.415 96.6227C196.416 95.529 198.855 93.6151 200.475 91.0859C202.777 87.4972 203.442 83.8401 202.556 79.5508C201.993 76.7995 201.464 75.4323 199.469 71.4848C198.48 69.5195 197.593 67.6568 197.491 67.315C197.388 66.9904 197.201 64.7688 197.047 62.4105C196.74 57.2325 196.518 55.404 195.802 51.8495C194.387 44.7234 191.607 39.5967 186.508 34.6921C183.131 31.4452 179.703 29.5996 178.885 30.5907C178.509 31.0692 178.867 31.4794 180.095 31.9579C183.984 33.4959 189.271 38.9814 191.76 44.074C194.012 48.6538 195.052 53.6097 195.512 62.0345C195.649 64.4441 195.819 66.8195 195.905 67.298C195.99 67.7765 196.57 69.1607 197.184 70.374C200.015 75.8596 200.441 76.902 201.021 79.6362C202.061 84.5408 200.68 89.3599 197.32 92.5384C196.399 93.41 194.625 94.572 193.688 94.9138C193.091 95.136 193.074 95.0334 193.602 93.8543C194.557 91.7011 195.41 86.9333 195.359 84.0623C195.308 81.5673 194.677 80.0293 193.926 80.6103C193.653 80.8325 193.636 80.9692 193.756 82.1996C194.336 88.5909 192.272 95.4778 188.844 98.5538C188.418 98.9297 187.77 99.357 187.412 99.4766L186.764 99.6988L186.184 99.1006C185.263 98.1607 185.007 98.212 183.319 99.6646C181.733 101.032 180.095 101.954 178.015 102.655C176.65 103.117 175.44 103.305 175.61 103.048C175.661 102.963 176.071 102.33 176.514 101.63C177.571 99.938 179.157 96.5202 179.874 94.4012C180.948 91.2055 181.511 88.4029 181.869 84.6262C182.244 80.7128 182.244 78.2008 181.92 73.8772C180.982 61.9149 176.77 48.107 172.097 41.7328C170.63 39.7334 169.198 38.8789 169.078 39.9213C169.044 40.1606 169.488 40.8783 170.409 42.0233C171.926 43.9373 173.018 45.8171 174.331 48.7564C175.15 50.5849 176.616 54.4128 176.599 54.6179C176.599 54.6692 175.678 53.5242 174.553 52.0546C169.283 45.1335 163.775 40.3315 160.568 39.8359C159.801 39.7163 159.596 39.7505 159.358 40.0239C158.914 40.5365 159.272 40.9296 160.585 41.3739C163.007 42.1771 166.708 45.1164 170.187 49.0127C172.063 51.1147 174.945 54.8913 176.156 56.8395C176.668 57.6598 177.333 58.668 177.623 59.0781C179.209 61.2655 181.05 74.8342 180.692 81.6527C180.607 83.3104 180.573 83.4471 180.01 84.3357C177.708 88.027 177.742 88.0099 173.495 91.8891C172.268 93.0169 170.664 94.3157 169.965 94.76C167.049 96.6056 163.092 98.1949 160.927 98.3829L159.682 98.4854L157.789 97.6481C155.401 96.6056 154.685 96.1271 152.502 94.1448C149.21 91.1542 147.317 88.4542 146.158 85.0876C145.305 82.6097 144.879 80.4223 144.879 78.44C144.879 75.757 144.862 75.6032 144.333 75.4836C144.009 75.3982 143.736 75.1247 143.429 74.595C142.849 73.5696 141.587 69.8271 141.246 68.1866C140.052 62.3934 141.11 54.1223 143.872 47.5089C145.663 43.2537 149.125 38.7935 152.792 36.0763C156.322 33.4617 163.485 30.5224 167.833 29.9243C170.596 29.5483 174.195 29.8388 176.395 30.642C177.111 30.8983 177.281 30.9154 177.537 30.7104C177.981 30.3515 177.776 29.8217 177.009 29.3261C176.224 28.8306 173.291 28.3008 171.006 28.2495ZM145.339 87.1554C146.021 88.8301 147.812 91.5302 149.159 92.9657C149.739 93.5809 151.001 94.8113 151.956 95.6657L153.679 97.2208L152.877 97.5626C151.189 98.2975 148.631 98.4342 146.516 97.9044C145.152 97.5626 144.486 97.1183 144.282 96.3835C144.196 96.0759 143.975 95.6145 143.787 95.3069C143.395 94.6917 142.627 94.5208 141.451 94.7771L140.752 94.9309L141.451 93.786C141.843 93.1537 142.372 92.1625 142.645 91.5815C143.156 90.4707 144.435 86.7624 144.503 86.1472C144.572 85.5661 144.776 85.8054 145.339 87.1554Z" fill="black"/>
<path d="M170.699 31.0693C169.266 31.2573 165.31 32.7098 163.417 33.7352C159.579 35.82 156.817 38.8277 158.113 39.5113C158.573 39.7505 158.948 39.5625 159.409 38.8277C160.006 37.8878 161.916 36.2985 163.706 35.2561C165.31 34.3333 168.703 33.0345 170.75 32.5731C171.432 32.4193 172.097 32.2313 172.234 32.1459C172.592 31.9237 172.592 31.394 172.251 31.1547C171.892 30.8984 171.892 30.8984 170.699 31.0693Z" fill="black"/>
<path d="M155.606 40.1438C153.627 40.3831 151.325 41.3913 149.876 42.6901C148.699 43.7496 146.618 46.2275 145.783 47.5775C142.832 52.3796 141.468 59.0272 142.065 65.521C142.338 68.4774 143.071 73.4503 143.31 73.9288C143.6 74.544 144.401 74.5269 144.538 73.9117C144.589 73.6725 144.401 71.8098 144.128 69.7762C143.395 64.564 143.31 63.0944 143.565 59.9671C144.043 54.003 145.834 49.4232 149.159 45.6294C149.807 44.8775 150.779 43.9376 151.274 43.5616C152.297 42.7755 154.599 41.7331 155.947 41.4768C157.021 41.2546 157.294 41.1008 157.345 40.7078C157.413 40.1609 156.919 39.99 155.606 40.1438Z" fill="black"/>
<path d="M186.934 61.4368C186.678 61.6418 186.747 62.1203 187.19 63.3849C188.316 66.5806 189.237 73.3307 189.151 77.7568C189.1 80.3885 188.333 86.3526 187.753 88.7109C186.798 92.573 186.764 92.7439 187.139 93.0173C188.23 93.7863 189.254 90.4539 190.123 83.2253C190.464 80.4227 190.652 78.1157 190.635 77.0903C190.533 71.2288 189.441 64.4103 188.282 62.4279C187.787 61.5735 187.258 61.1804 186.934 61.4368Z" fill="black"/>
<path d="M169.539 69.0068C168.516 69.81 169.181 72.2367 170.477 72.3905C171.756 72.5443 172.37 70.4765 171.398 69.229C171.006 68.7334 170.051 68.6138 169.539 69.0068Z" fill="black"/>
<path d="M150.694 69.1089C149.586 69.6728 149.978 72.3387 151.189 72.4754C152.195 72.595 152.655 71.9456 152.485 70.681C152.314 69.4677 151.479 68.7158 150.694 69.1089Z" fill="black"/>
<path d="M156.015 75.8598C155.623 76.0307 155.299 76.7655 154.736 78.8845C153.969 81.7213 153.986 81.7726 155.009 83.0372C155.93 84.165 156.441 84.4043 156.783 83.8916C157.107 83.4131 157.089 83.3277 156.356 82.2853L155.691 81.3283L155.947 80.2004C156.083 79.5852 156.373 78.594 156.578 78.0301C157.072 76.6288 157.107 76.2186 156.731 75.9623C156.39 75.6889 156.39 75.6889 156.015 75.8598Z" fill="black"/>
<path d="M169.693 60.1373C171.227 60.6329 172.029 61.4703 171.415 61.9829C171.227 62.1367 170.92 62.0513 170.102 61.6241C169.147 61.1285 168.874 61.0772 167.646 61.0772C166.555 61.0772 166.128 61.1627 165.599 61.4532C164.9 61.8462 164.559 61.8291 164.406 61.3848C164.252 60.9576 164.951 60.3253 165.906 60.0348C167.049 59.693 168.43 59.7272 169.693 60.1373Z" fill="black"/>
<path d="M161.472 91.701C157.618 91.701 156.441 89.0693 156.39 88.9667C156.22 88.5737 156.39 88.1294 156.783 87.9585C157.175 87.7876 157.618 87.9585 157.789 88.3515C157.823 88.437 158.676 90.18 161.472 90.18C163.587 90.18 165.054 88.437 165.088 87.9926C165.088 87.5654 165.429 87.2236 165.855 87.2236C166.282 87.2236 166.623 87.5654 166.623 87.9926C166.623 89.4281 164.269 91.701 161.472 91.701Z" fill="black"/>
<path d="M151.683 60.0531C152.434 60.3265 153.031 60.9759 152.894 61.386C152.758 61.8303 152.468 61.8474 151.871 61.4544C151.427 61.1638 151.069 61.0784 150.148 61.0784C149.108 61.0784 148.886 61.1468 148.085 61.6253C147.386 62.0525 147.13 62.1379 146.976 61.9841C146.448 61.4714 147.13 60.617 148.477 60.1385C149.552 59.7284 150.745 59.7113 151.683 60.0531Z" fill="black"/>
<path d="M131.815 127.023C131.338 125.69 129.394 119.299 128.046 114.702C127.705 115.078 127.347 115.454 126.955 115.813C126.324 116.377 125.625 116.821 124.874 117.112C124.533 117.471 124.209 117.829 123.885 118.205C123.629 118.581 123.408 118.957 123.22 119.385C122.521 120.905 121.071 121.845 119.468 122.187C120.44 126.562 121.327 130.304 121.515 130.68C121.651 130.954 121.924 130.903 124.328 130.099C125.778 129.621 127.893 129.04 128.967 128.818C130.059 128.596 131.218 128.322 131.542 128.22L132.122 128.015L131.815 127.023Z" fill="white"/>
<path d="M120.116 133.021C120.082 133.175 120.27 134.405 120.542 135.738C121.958 142.745 122.316 141.719 123.39 147.273C123.766 149.221 124.277 151.802 124.516 152.981C125.045 155.664 125.778 157.458 126.887 158.791C129.189 161.577 134.169 164.174 136.624 163.867C137.068 163.815 137.716 163.542 138.483 163.081C139.507 162.465 139.797 162.192 140.837 160.842C142.679 158.449 144.521 154.297 144.196 153.272C144.111 153.015 143.907 152.144 143.736 151.323C143.293 149.153 141.758 147.495 139.882 143.36C138.978 141.378 135.004 130.868 134.97 130.013C134.953 129.569 134.885 129.108 134.834 129.005C134.68 128.698 131.15 129.108 128.268 129.791C126.869 130.116 123.868 131.158 121.839 132.013C120.542 132.594 120.167 132.799 120.116 133.021Z" fill="white"/>
<path d="M144.879 150.794C144.589 149.256 139.387 141.976 138.415 138.61C136.966 133.551 135.857 129.245 135.891 128.818C135.959 128.117 135.414 127.758 134.288 127.775C133.725 127.775 132.48 127.895 132.446 127.844C132.344 127.656 130.57 121.948 129.939 119.846C129.786 119.333 129.53 118.428 129.223 117.334C128.899 117.761 129.018 117.3 128.592 117.624C129.018 119.06 128.78 120.41 129.087 121.452C129.786 123.725 130.536 126.254 130.724 126.904L131.065 128.083L129.956 128.288C127.893 128.664 125.113 129.45 123.322 130.151C122.487 130.475 121.992 130.595 121.873 130.493C121.685 130.305 120.679 126.306 119.673 121.675C119.229 121.794 118.786 121.88 118.308 121.897C118.735 123.742 119.195 125.708 119.639 127.604C120.048 129.296 120.389 130.817 120.423 130.988C120.474 131.227 120.304 131.381 119.673 131.689C118.837 132.099 118.496 132.629 118.752 133.141C118.974 133.603 119.417 133.5 121.822 132.407C125.403 130.783 129.513 129.655 132.856 129.365C134.476 129.228 134.68 129.262 134.595 129.689C134.51 130.082 134.953 131.911 136.437 137.106C138.006 142.626 142.883 148.88 143.532 152.059C143.804 153.375 143.787 153.734 143.48 154.827C142.559 158.023 140.104 161.868 138.279 162.945C137.29 163.543 136.505 163.611 134.987 163.286C132.685 162.774 129.377 160.945 127.654 159.236C126 157.596 125.386 156.006 124.448 150.931C123.015 143.19 121.122 135.585 120.423 134.184C120.082 133.483 119.264 133.517 119.076 134.252C119.025 134.457 119.281 135.978 119.656 137.619C120.867 143.002 122.077 145.89 123.101 151.922C123.749 155.733 123.936 156.348 125.147 158.365C126.119 159.971 126.307 160.21 127.398 161.082C130.656 163.662 134.578 165.269 137.034 165.029C138.944 164.841 140.649 163.372 142.611 160.296C146.124 154.776 144.998 151.444 144.879 150.794Z" fill="black"/>
<path d="M98.6962 102.791L105.143 110.259C111.521 117.658 113.005 119.231 114.693 120.427C115.529 121.025 117.268 121.794 118.394 122.067C118.803 122.17 119.008 122.324 119.195 122.683C119.332 122.956 119.434 123.298 119.417 123.469C119.4 123.622 119.553 124.135 119.741 124.614C119.929 125.075 120.338 126.476 120.645 127.724C120.798 128.339 120.798 128.561 120.918 128.971C121.975 128.8 122.35 128.8 123.015 128.63C124.482 128.236 125.915 127.861 127.33 127.348C128.609 126.886 130.383 126.117 131.099 125.519C130.417 123.434 129.172 119.641 128.984 118.786C128.763 117.846 128.746 117.043 128.814 113.779C128.848 112.327 128.831 110.378 128.78 109.439C128.575 105.662 128.643 104.175 129.07 101.731C129.291 100.467 129.445 99.1509 129.428 98.8433C129.394 98.5186 129.035 97.3053 128.609 96.1604C128.183 95.0154 127.808 93.9046 127.773 93.7166C127.688 93.221 127.535 93.1356 126.443 93.0502C125.522 92.9818 125.488 92.9647 125.488 92.5717C125.488 92.3495 125.454 92.1615 125.437 92.1615C125.42 92.1615 124.584 91.9394 123.612 91.6659C121.481 91.0678 120.884 90.9995 120.321 91.3071C119.809 91.5805 116.467 94.5369 116.228 94.9129C115.989 95.3059 115.631 96.9465 115.375 98.7408C115.256 99.5782 115.119 100.364 115.085 100.467C115.034 100.604 114.829 100.45 114.437 99.9541C113.772 99.0997 106.814 91.4438 105.722 90.333C104.989 89.5982 104.904 89.5469 104.068 89.4956C102.84 89.4102 102.602 89.5982 102.533 90.6919C102.465 91.7343 102.499 91.7685 104.324 94.0584C105.126 95.0496 106.797 97.1857 108.042 98.7579C109.27 100.33 110.873 102.364 111.555 103.235C112.681 104.654 112.97 105.149 112.681 105.132C112.544 105.115 109.611 102.347 107.36 100.091C103.693 96.4167 100.47 93.5116 99.9241 93.3749C98.1505 92.9476 97.4512 93.9046 98.2528 95.6306C99.0032 97.2199 100.964 99.4927 106.729 105.388C108.042 106.721 109.167 107.883 109.236 107.969C109.321 108.054 109.321 108.14 109.27 108.174C109.219 108.208 108.69 107.73 108.11 107.114C106.848 105.764 104.307 103.372 102.823 102.124C101.22 100.774 99.7877 100.193 99.1225 100.621C98.9179 100.757 98.8497 101.014 98.7815 101.8L98.6962 102.791ZM119.349 101.099C119.349 101.031 119.485 100.262 119.639 99.3902C119.877 98.0231 119.997 97.6813 120.525 96.8439C121.208 95.7502 122.231 94.9641 122.896 95.0154C123.118 95.0325 123.391 95.0154 123.493 94.9983C123.97 94.8616 124.175 95.3572 124.294 96.9806C124.363 97.8693 124.499 99.1509 124.601 99.8345C124.84 101.321 124.687 101.919 123.817 103.15C123.51 103.577 123.203 104.209 123.118 104.551C122.964 105.183 122.35 105.764 122.265 105.371C122.197 105.081 120.867 103.133 120.065 102.124C119.673 101.646 119.349 101.167 119.349 101.099Z" fill="white"/>
<path d="M97.8095 102.125C97.8606 102.689 98.3211 103.27 103.386 109.251C112.919 120.513 114.062 121.624 117.081 122.581C117.66 122.769 118.223 123.025 118.326 123.162C118.684 123.623 119.212 125.606 120.27 129.536C120.543 129.211 121.446 128.87 121.446 128.87C120.662 125.383 120.457 124.375 120.253 123.862L120.031 123.145L120.543 123.316C121.054 123.35 121.259 123.281 121.702 123.025C122.402 122.615 124.005 120.991 124.039 120.667C124.056 120.428 123.8 120.069 123.612 120.052C123.561 120.052 122.896 120.496 122.146 121.06L120.781 122.085L119.673 121.914C118.36 121.709 116.245 120.94 115.392 120.342C114.079 119.436 112.664 118.035 109.577 114.566C105.057 109.508 99.5149 102.945 99.2591 102.347C98.9862 101.698 99.1568 101.031 99.6343 100.946C99.8219 100.912 100.265 101.031 100.675 101.219C101.749 101.732 105.723 105.321 108.178 107.987L109.219 109.132L108.724 109.952C107.974 111.199 108.042 111.815 108.929 111.661C109.355 111.575 111.299 108.277 111.129 107.935C110.958 107.594 110.737 107.559 110.447 107.816C110.31 107.935 110.14 108.004 110.071 107.97C109.799 107.833 103.199 100.929 101.323 98.7928C99.3785 96.5883 98.5428 95.375 98.4064 94.5718C98.3552 94.2813 98.4234 94.1104 98.7304 93.837C98.9521 93.649 99.2591 93.4952 99.4126 93.5123C99.5661 93.5294 100.18 93.9908 100.777 94.5376C103.454 96.9985 104.716 98.2118 106.371 99.8694C109.457 102.963 112.033 105.355 112.425 105.492C112.885 105.646 113.261 105.458 113.363 105.03C113.414 104.808 113.209 104.432 112.647 103.749C112.22 103.219 111.129 101.835 110.242 100.673C109.355 99.5106 107.326 96.9301 105.74 94.9136C103.233 91.7692 102.84 91.2053 102.875 90.8122C102.892 90.5559 103.028 90.2483 103.182 90.0945C103.471 89.804 104.273 89.8211 104.733 90.1116C105.057 90.3167 114.301 100.45 114.471 100.775C114.591 101.014 115.171 101.066 115.426 100.861C115.546 100.758 115.648 100.194 115.716 99.3397C115.836 97.7162 116.228 95.9048 116.569 95.3237C116.705 95.1016 117.729 94.1275 118.82 93.1705C121.088 91.2053 120.85 91.2736 123.408 91.9743C125.198 92.4699 125.215 92.487 124.67 93.4269C124.073 94.4693 122.981 94.7598 121.122 94.3839C120.202 94.1959 119.86 94.1788 119.673 94.2984C119.212 94.6231 119.519 95.2554 120.27 95.4605C120.491 95.5288 120.679 95.6313 120.679 95.6826C120.679 95.751 120.423 96.1953 120.099 96.708C119.588 97.5282 119.502 97.8017 119.281 99.2713C119.144 100.194 119.042 101.066 119.059 101.219C119.076 101.561 119.093 101.578 120.764 103.937C121.89 105.526 121.992 105.714 121.873 106.124C120.884 109.508 120.969 113.489 122.009 113.575C122.504 113.609 122.606 113.216 122.538 111.729C122.402 109.132 123.254 104.654 124.107 103.595C125.113 102.347 125.301 101.219 124.926 98.6903C124.789 97.8187 124.687 96.725 124.67 96.2465C124.636 95.4263 124.653 95.3921 125.198 94.8282C125.505 94.5206 125.846 94.0421 125.966 93.8028C126.188 93.3243 126.614 93.1363 126.972 93.3756C127.091 93.461 127.62 94.7085 128.132 96.144L129.087 98.7586L128.933 99.8523C128.473 102.98 128.2 106.141 128.268 107.235C128.473 110.242 128.507 112.327 128.388 114.874C128.268 117.078 128.285 117.864 128.473 118.702C128.78 120.137 129.479 122.94 130.553 126.135C131.099 126.204 131.457 125.964 131.918 125.93C131.491 124.631 131.082 123.316 130.707 121.948C130.315 120.53 129.939 119.334 129.888 119.248C129.684 118.941 129.615 117.249 129.718 114.908C129.769 113.575 129.769 111.302 129.701 109.832C129.564 107.149 129.701 104.689 130.178 100.245L130.4 98.2801L129.632 96.2295C129.206 95.1016 128.78 93.9224 128.694 93.5807C128.49 92.8117 128.098 92.3332 127.501 92.0768C127.228 91.9572 127.023 91.7863 127.023 91.6838C127.04 91.4445 126.733 91.2907 126.136 91.2565C125.881 91.2395 124.874 91.0002 123.868 90.7097C121.736 90.1116 120.918 90.0261 120.27 90.3167C119.997 90.4363 118.803 91.4274 117.609 92.5041C115.171 94.6915 115.171 94.6914 114.676 97.2206L114.335 98.7586L111.964 96.144C110.668 94.7085 108.843 92.6749 107.906 91.6325C105.603 89.0521 105.518 88.9837 104.785 88.7274C103.693 88.3685 102.772 88.5736 102.005 89.3597C101.613 89.7527 101.578 89.8894 101.561 90.7097L101.544 91.6154L103.625 94.1617C106.916 98.2118 108.247 99.8694 107.957 99.6131C107.803 99.4764 107.036 98.7415 106.268 97.9555C105.023 96.725 101.34 93.2218 100.658 92.6237C100.538 92.5211 100.129 92.3673 99.7878 92.2819C99.2761 92.1794 99.0033 92.2135 98.4746 92.4357C97.5196 92.8458 97.1444 93.3243 97.0762 94.2642C96.9738 95.5117 97.8777 97.0326 99.873 99.015C100.385 99.5106 100.521 99.7327 100.316 99.6644C99.8048 99.4935 99.0203 99.6302 98.594 99.972C98.0653 100.382 97.7242 101.322 97.8095 102.125ZM123.578 98.7586C123.885 101.083 123.834 101.527 123.084 102.843C122.743 103.441 122.419 103.937 122.367 103.92C122.316 103.902 121.839 103.27 121.31 102.501L120.338 101.117L120.56 99.5447C120.764 98.0409 120.815 97.9213 121.464 96.9472C122.095 95.9902 122.197 95.9219 122.691 95.9219C123.22 95.9219 123.237 95.939 123.271 96.4858C123.322 96.7934 123.442 97.8187 123.578 98.7586Z" fill="black"/>
<path d="M205.199 192.424C204.824 192.185 198.48 190.305 187.702 187.263C165.975 181.128 166.589 181.299 166.179 181.333C166.026 181.35 165.736 181.248 165.48 181.094C166.674 192.014 167.203 202.951 168.482 214.024C168.601 214.896 168.686 215.767 168.703 216.639C168.959 216.468 169.164 216.4 169.164 216.502C169.164 216.724 169.71 216.741 169.931 216.536C170.034 216.451 171.705 215.511 173.683 214.452C178.714 211.751 187.088 207.052 190.823 204.83C194.762 202.489 205.523 195.636 206.052 195.158C206.12 195.09 206.103 194.526 205.984 193.928C205.813 192.936 205.711 192.766 205.199 192.424Z" fill="white"/>
<path d="M207.433 193.773C206.99 191.364 206.376 190.936 201.567 189.672C193.619 187.57 166.333 180.051 166.214 179.931C166.196 179.914 166.179 179.846 166.162 179.709C166.214 180.239 166.333 180.769 166.299 181.332L167.424 181.64C168.055 181.811 174.843 183.725 182.483 185.895C190.123 188.048 198.156 190.321 200.339 190.919C202.505 191.518 204.517 192.15 204.824 192.304C205.523 192.662 205.813 193.158 205.95 194.2L206.052 195.055L203.443 196.747C195.922 201.651 190.516 204.967 184.649 208.282C178.356 211.836 170.119 216.297 169.266 216.621C168.823 217.305 168.089 217.766 167.663 218.45C167.765 218.45 167.851 218.467 167.987 218.552C168.499 218.826 168.806 218.706 172.728 216.57C181.937 211.58 191.914 205.787 198.719 201.497C206.495 196.593 207.723 195.773 207.723 195.516C207.706 195.363 207.587 194.576 207.433 193.773Z" fill="black"/>
<path d="M203.886 193.38C203.477 193.465 171.21 212.058 170.528 212.605C170.255 212.827 169.983 213.135 169.914 213.323C169.761 213.767 170.221 214.177 170.716 214.058C171.21 213.938 203.886 195.089 204.415 194.627C205.114 194.012 204.756 193.192 203.886 193.38Z" fill="black"/>
<path d="M199.009 164.979C197.951 165.15 197.15 165.287 196.894 165.321C195.751 165.475 195.444 165.663 195.444 166.176C195.444 166.415 195.376 166.569 195.308 166.518C195.172 166.432 191.624 166.859 183.165 167.936C180.215 168.312 176.719 168.756 175.406 168.91C171.995 169.32 171.893 169.371 168.072 173.046L164.866 176.122L163.212 179.437C162.308 181.248 161.183 183.316 160.722 184.017C159.699 185.572 159.699 185.572 159.989 185.76C160.518 186.084 161.814 185.914 162.683 185.367C163.758 184.717 165.548 182.41 165.89 181.248C166.128 180.445 166.145 180.428 166.81 180.428C167.373 180.428 167.476 180.479 167.39 180.736C167.339 180.906 167.066 181.915 166.776 183.008C166.486 184.085 165.975 185.743 165.651 186.683C164.747 189.263 164.747 189.16 165.531 189.16C165.941 189.16 166.521 188.99 166.998 188.716C167.68 188.34 167.885 188.067 168.482 186.871C168.925 185.982 169.369 184.649 169.71 183.196C170.29 180.787 170.29 180.77 171.296 181.043C171.62 181.129 171.637 181.214 171.517 181.761C171.381 182.359 170.767 186.853 170.562 188.75C170.46 189.622 170.477 189.656 170.869 189.656C171.449 189.656 172.421 188.802 172.933 187.828C173.291 187.161 174.076 184.41 174.672 181.778C174.775 181.351 174.843 181.317 175.508 181.368L176.241 181.419L176.19 182.838C176.139 184.153 175.832 186.819 175.542 188.597C175.406 189.434 175.576 189.519 176.446 188.99C177.316 188.46 177.93 187.024 178.373 184.546C178.578 183.367 178.817 182.291 178.885 182.137C178.953 181.983 179.311 181.59 179.669 181.265C180.369 180.616 184.632 177.266 185.365 176.805C185.843 176.497 187.361 176.258 187.446 176.463C187.48 176.532 188.691 176.549 190.141 176.48C191.59 176.412 195.564 176.361 198.958 176.344L205.131 176.327V176.72C205.131 177.318 205.455 177.523 206.41 177.523C206.41 176.361 206.206 175.199 205.66 174.037C204.193 170.585 201.618 167.765 199.009 164.979Z" fill="white"/>
<path d="M239.632 166.278C239.41 166.312 239.239 166.056 238.949 165.218C238.352 163.527 237.38 161.578 236.05 159.425C235.129 157.938 234.771 157.204 234.566 156.298C234.311 155.204 234.208 155.033 233.304 154.196C232.418 153.376 232.23 153.085 231.497 151.274C229.263 145.822 226.227 139.448 218.058 123.179C210.145 107.406 208.525 104.638 204.978 100.793C203.477 99.1693 202.078 98.0414 200.544 97.204C199.759 96.7768 199.571 96.6059 199.64 96.3496C199.827 95.6147 197.849 94.9824 197.32 95.5806C197.747 96.2299 196.57 100.553 196.041 102.912C195.393 105.834 194.421 113.592 194.302 116.788C194.233 118.856 194.268 119.915 194.472 121.146C194.847 123.401 195.547 125.794 195.939 126.136C196.109 126.272 196.229 126.443 196.195 126.478C196.024 126.648 196.843 129.348 197.388 130.459C197.866 131.433 198.531 132.237 200.902 134.732C207.928 142.097 212.174 146.779 214.886 150.146L216.557 152.231L216.54 153.393C216.506 154.726 216.608 154.948 217.853 156.605C218.689 157.716 219.474 159.271 219.474 159.852C219.474 160.092 215.432 161.493 211.288 162.672C210.213 162.98 209.241 163.321 209.156 163.424C209.071 163.527 208.405 163.629 207.706 163.646C207.007 163.663 204.466 164.039 202.078 164.449C200.987 164.637 200.083 165.167 199.179 165.321C201.806 168.106 204.193 170.601 205.66 174.036C206.205 175.198 206.41 176.514 206.41 177.539C206.41 177.539 206.41 177.539 206.427 177.539C207.485 177.539 209.753 177.129 210.247 176.856C210.452 176.753 212.84 176.275 215.585 175.814C223.498 174.481 228.836 173.421 233.697 172.208C236.408 171.524 236.408 171.524 236.647 171.883C236.937 172.327 237.415 172.31 238.404 171.866C239.921 171.182 240.297 170.465 240.314 168.209C240.314 166.859 240.092 166.192 239.632 166.278Z" fill="white"/>
<path d="M196.399 94.708C196.246 94.8618 195.581 95.7504 195.666 95.7675C197.252 96.1948 197.832 96.3486 198.582 96.5194C201.652 97.2543 205.387 100.723 208.832 106.021C211.083 109.473 211.526 110.327 217.768 122.768C226.107 139.396 229.706 146.949 231.531 151.649C232.11 153.152 232.315 153.477 233.236 154.383C234.14 155.271 234.31 155.545 234.498 156.348C234.72 157.356 235.095 158.108 236.647 160.62C238.148 163.047 239.086 165.405 239.307 167.234C239.563 169.353 239.597 169.49 239.938 169.678C240.16 169.797 240.348 169.763 240.638 169.558C241.013 169.302 241.03 169.216 240.927 167.798C240.74 165.286 239.819 162.859 237.636 159.253C236.221 156.895 236.084 156.622 235.948 155.562C235.845 154.81 235.709 154.605 234.72 153.665C233.731 152.725 233.526 152.401 232.878 150.828C231.07 146.419 227.557 139.088 220.701 125.332C212.873 109.627 212.294 108.516 209.974 104.996C207.774 101.629 204.705 98.2283 202.539 96.7416C200.458 95.3061 198.002 94.5029 197.422 95.084L196.399 94.708Z" fill="black"/>
<path d="M195.205 105.782C194.898 106.26 194.165 108.636 193.824 110.293C193.176 113.421 193.176 119.077 193.824 121.247C194.114 122.221 194.609 122.546 195.069 122.085C195.291 121.862 195.308 121.64 195.103 120.068C194.984 119.111 194.881 117.112 194.881 115.659C194.881 112.754 195.137 111.096 195.99 108.123C196.604 105.987 196.587 105.508 195.939 105.44C195.581 105.406 195.376 105.508 195.205 105.782Z" fill="black"/>
<path d="M194.796 124.238C194.37 124.751 194.404 125.417 194.933 127.605C195.768 131.074 196.109 131.638 199.725 135.414C206.99 143.002 210.571 146.932 213.402 150.487L215.039 152.537V153.614C215.039 154.964 215.363 155.682 216.677 157.357C218.058 159.1 218.024 159.014 217.342 159.305C216.131 159.817 210.315 161.543 204.875 162.996C201.771 163.833 199.111 164.551 198.957 164.619C198.378 164.859 198.446 165.73 199.06 165.969C199.367 166.089 210.435 163.081 215.022 161.629C221.094 159.715 226.943 157.339 227.318 156.639C227.523 156.246 227.25 155.819 226.79 155.819C226.619 155.819 225.033 156.382 223.26 157.083C221.486 157.784 219.917 158.382 219.763 158.416C219.61 158.45 219.098 157.972 218.484 157.186C216.608 154.81 216.54 154.708 216.54 153.255V151.973L215.21 150.316C212.26 146.659 208.866 142.882 202.795 136.491C200.509 134.081 198.343 131.723 197.985 131.244C197.235 130.253 196.809 129.057 196.195 126.357C195.973 125.349 195.683 124.409 195.581 124.272C195.342 123.982 195.018 123.982 194.796 124.238Z" fill="black"/>
<path d="M223.004 147.41C222.731 147.718 220.735 152.742 220.343 154.075C219.917 155.545 220.889 156.023 221.571 154.69C222.014 153.819 224.249 148.145 224.249 147.889C224.249 147.581 223.788 147.103 223.498 147.103C223.379 147.103 223.157 147.239 223.004 147.41Z" fill="black"/>
<path d="M192.613 165.337C191.488 165.474 188.503 165.833 185.962 166.175C183.421 166.5 179.635 166.961 177.52 167.2C173.342 167.662 171.978 167.952 171.006 168.533C170.665 168.738 168.823 170.413 166.913 172.241L163.451 175.574L162.376 177.83C161.182 180.359 159.852 182.785 158.88 184.238C158.522 184.768 158.232 185.4 158.232 185.605C158.232 186.613 159.375 187.297 161.029 187.314C162.155 187.314 162.785 187.092 163.826 186.306C164.133 186.084 164.372 185.947 164.372 186.015C164.372 186.084 164.099 186.818 163.741 187.673C163.041 189.416 163.075 189.792 164.065 190.322C165.31 190.988 167.271 190.544 168.601 189.296C169.13 188.801 169.164 188.784 169.061 189.16C168.993 189.382 168.993 189.809 169.044 190.151C169.334 191.723 171.705 191.535 173.325 189.809C174.024 189.057 174.024 189.057 174.058 189.501C174.075 189.758 174.28 190.117 174.536 190.339C175.474 191.159 177.333 190.561 178.305 189.125C179.072 187.98 179.482 186.767 179.823 184.648C180.181 182.478 180.078 182.597 183.54 179.949L185.809 178.223L187.156 178.052C187.889 177.949 192.221 177.847 196.774 177.778L205.046 177.676L205.216 178.069C205.472 178.65 206.069 178.684 206.427 178.137C207.092 177.129 206.359 173.523 205.029 171.233C203.886 169.251 201.072 166.089 200.458 166.089C199.998 166.089 199.674 166.38 199.674 166.807C199.674 166.978 200.305 167.798 201.072 168.619C201.839 169.439 202.795 170.635 203.204 171.25C203.988 172.464 204.858 174.48 205.029 175.523L205.131 176.138L198.684 176.24C195.137 176.292 191.181 176.377 189.885 176.428C187.667 176.514 187.531 176.497 187.65 176.206C188.094 175.181 188.418 173.438 188.35 172.464C188.264 171.336 188.043 170.874 187.565 170.874C186.951 170.874 186.798 171.182 186.832 172.19C186.883 173.523 186.593 174.788 186.047 175.676C185.723 176.189 184.666 177.129 182.756 178.599C178.97 181.504 178.646 181.88 178.424 183.435C178.168 185.263 177.776 186.87 177.384 187.639C176.787 188.835 175.61 189.655 175.61 188.869C175.61 188.698 175.73 187.792 175.849 186.853C175.985 185.913 176.139 184.238 176.207 183.144L176.326 181.145L178.168 179.556C180.078 177.915 180.368 177.522 180.027 177.112C179.737 176.77 179.362 176.804 178.663 177.231C177.708 177.812 175.133 180.102 174.928 180.547C174.826 180.786 174.382 182.358 173.956 184.067C173.12 187.382 172.967 187.81 172.165 188.715C171.705 189.228 170.716 189.809 170.562 189.638C170.426 189.501 171.483 182.016 171.773 180.957C172.012 180.137 172.251 179.795 173.82 178.206C174.792 177.214 175.593 176.309 175.593 176.206C175.593 176.001 175.116 175.488 174.928 175.488C174.348 175.488 171.398 178.206 170.716 179.368C170.477 179.761 170.153 180.769 169.982 181.623C169.232 185.229 168.209 187.673 167.066 188.527C166.589 188.886 165.463 189.194 165.122 189.057C164.951 188.989 165.003 188.715 165.31 187.929C165.889 186.46 166.503 184.375 167.339 181.076L168.072 178.206L169.692 176.668C170.579 175.83 171.347 174.993 171.398 174.822C171.5 174.429 171.091 173.779 170.733 173.779C170.426 173.779 167.083 176.907 166.776 177.488C166.657 177.727 166.333 178.787 166.077 179.846C165.599 181.828 165.156 182.666 163.775 184.187C162.734 185.332 162.001 185.742 161.012 185.742C160.517 185.742 160.074 185.691 160.023 185.605C159.989 185.537 160.33 184.87 160.79 184.101C161.251 183.349 162.325 181.333 163.195 179.607L164.747 176.48L168.004 173.301C171.773 169.627 172.063 169.439 174.877 169.063C177.742 168.67 188.759 167.303 192.835 166.824C194.847 166.585 196.587 166.312 196.706 166.209C196.979 165.987 196.979 165.508 196.723 165.252C196.519 165.013 195.274 165.03 192.613 165.337Z" fill="black"/>
<path d="M237.892 170.96C232.895 172.6 215.773 176.018 210.06 176.514C207.621 176.719 207.211 176.821 206.939 177.232C206.598 177.796 207.024 178.12 208.166 178.171C211.697 178.342 236.92 173.404 239.137 172.105C239.734 171.763 239.904 171.319 239.58 170.926C239.341 170.635 238.881 170.635 237.892 170.96Z" fill="black"/>
<path d="M173.001 171.626C172.268 172.412 172.063 173.044 172.489 173.352C172.916 173.66 172.95 173.66 173.649 172.976C174.382 172.258 174.502 171.489 173.939 171.199C173.632 171.045 173.513 171.096 173.001 171.626Z" fill="black"/>
<path d="M165.48 181.093C165.412 181.059 165.344 181.008 165.293 180.974C164.679 180.512 164.713 180.7 164.303 175.659C163.689 168.089 162.769 161.219 162.206 160.108C161.592 158.878 160.688 158.536 146.738 154.554C130.775 149.991 122.265 147.872 104.188 143.976C94.0916 141.789 91.8234 141.413 90.442 141.635C90.0498 141.703 89.5552 141.874 89.3164 142.028C88.1397 142.797 88.549 146.625 92.7443 174.121C95.5753 192.731 96.2234 196.662 96.4962 197.174C96.6838 197.516 98.4745 198.234 102.465 199.601C110.088 202.198 118.223 204.574 135.209 209.154C145.868 212.025 152.894 213.973 159.238 215.835C165.395 217.647 166.009 217.749 167.22 217.339C167.731 217.168 168.362 216.861 168.635 216.656C168.652 216.639 168.669 216.639 168.686 216.621C168.652 215.75 168.584 214.878 168.465 214.007C167.203 202.933 166.674 192.013 165.48 181.093Z" fill="white"/>
<path d="M169.249 216.622C169.198 216.639 169.181 216.639 169.181 216.639C169.181 216.605 169.249 216.331 169.351 216.024C169.539 215.357 169.283 212.247 168.516 205.788C167.765 199.55 166.282 183.708 166.282 181.897V181.555V181.333H166.316C166.367 180.769 166.231 180.239 166.179 179.71C166.077 179.146 165.924 177.591 165.77 175.813C165.071 167.32 164.303 161.424 163.724 159.869C162.956 157.836 162.274 157.562 147.949 153.461C133.043 149.189 124.277 146.984 106.848 143.122C93.6141 140.183 91.2777 139.79 89.7087 140.285C88.6002 140.627 88.1568 141.003 87.6452 142.045C87.1506 143.054 87.1335 143.173 87.2359 144.643C87.4917 148.197 88.532 155.648 92.0963 179.077C93.9893 191.569 94.5521 195.124 94.9784 197.277C95.1319 198.063 95.2172 198.166 95.9676 198.593C98.5086 200.028 109.935 203.498 132.293 209.598C145.373 213.17 154.327 215.716 159.955 217.442C165.753 219.237 166.623 219.373 167.254 218.707C167.407 218.536 167.51 218.468 167.629 218.45C168.055 217.767 168.789 217.306 169.249 216.622ZM166.879 217.169C166.503 217.528 166.35 217.562 165.6 217.442C165.139 217.374 162.376 216.622 159.494 215.785C153.235 213.956 145.425 211.786 135.056 208.983C116.245 203.908 104.512 200.404 98.5428 198.046L96.5474 197.26L96.104 194.936C95.6777 192.697 92.2157 170.276 90.6296 159.562C89.1971 149.838 88.6173 144.575 88.8048 143.173C88.8901 142.507 89.0095 142.353 89.5893 142.011C90.2033 141.652 90.425 141.618 91.8064 141.687C92.642 141.721 94.6885 142.028 96.3257 142.37C103.318 143.789 121.481 147.873 127.62 149.428C133.794 150.983 153.832 156.588 158.659 158.109C160.739 158.776 161.66 159.34 162.103 160.245C162.82 161.681 163.553 167.662 164.627 180.752C165.787 194.833 166.196 199.328 166.845 204.933C168.107 215.768 168.107 216.024 166.879 217.169Z" fill="black"/>
<path d="M62.6102 45.4584L70.9496 53.0801L72.2798 41.8356C73.0984 37.4608 77.7713 32.9664 83.4503 38.657L93.9386 66.9052L84.1154 88.5399L62.5761 78.6111L52.0878 50.363C52.6676 42.3311 59.1311 42.6729 62.6102 45.4584Z" fill="white"/>
<path d="M83.4498 38.6744C77.7708 32.9666 73.0979 37.4781 72.2793 41.8529L70.9491 53.0975L84.1149 88.5572L93.9381 66.9225L83.4498 38.6744Z" fill="white"/>
<path d="M52.0872 50.3629C52.667 42.331 59.1305 42.6728 62.6096 45.4413L70.949 53.063L84.1148 88.5227L62.5754 78.594L52.0872 50.3629Z" fill="white"/>
<path d="M62.6102 45.4584L70.9496 53.0801L72.2798 41.8356C73.0984 37.4608 77.7713 32.9664 83.4503 38.657L93.9386 66.9052L84.1154 88.5399L62.5761 78.6111L52.0878 50.363C52.6676 42.3311 59.1311 42.6729 62.6102 45.4584Z" stroke="black" stroke-width="4.9191" stroke-miterlimit="10" stroke-linecap="round" stroke-linejoin="round"/>
<path d="M83.4498 38.6744C77.7708 32.9666 73.0979 37.4781 72.2793 41.8529L70.9491 53.0975L84.1149 88.5572L93.9381 66.9225L83.4498 38.6744Z" fill="#95C035"/>
<path d="M52.0872 50.3629C52.667 42.331 59.1305 42.6728 62.6096 45.4413L70.949 53.063L84.1148 88.5227L62.5754 78.594L52.0872 50.3629Z" fill="white"/>
<path d="M62.2687 32.8977C61.8935 32.7439 61.4842 32.6242 61.0919 32.5046L65.526 16.834C66.3957 17.0732 67.2485 17.3637 68.0841 17.6884L62.2687 32.8977ZM50.3308 33.8888C49.9726 34.0939 49.6315 34.3161 49.2905 34.5553L39.8425 21.3113C40.5758 20.7816 41.3262 20.286 42.1107 19.8417L50.3308 33.8888ZM43.5262 45.0821L27.2906 44.2448C27.3418 43.3391 27.4271 42.4333 27.5465 41.5618L43.6456 43.8688C43.5944 44.2619 43.5432 44.672 43.5262 45.0821Z" fill="black"/>
</svg>
