<svg width="173" height="250" viewBox="0 0 173 250" fill="none" xmlns="http://www.w3.org/2000/svg">
<g clip-path="url(#clip0)">
<path d="M90.3344 30.9829C86.5225 31.5183 82.2144 32.9682 77.5906 35.288C69.7864 39.214 65.5911 43.6975 63.2679 50.5902C62.4559 52.9769 62.2303 54.1146 61.892 57.3267C61.5537 60.7172 60.8093 64.3085 58.8696 71.8927C56.7494 80.2575 56.2531 83.8265 56.7945 87.061C57.3809 90.5854 58.2155 92.3922 59.9973 93.9313C61.1025 94.9128 63.0649 95.6712 65.0046 95.8943C66.4031 96.0504 66.4256 95.9835 65.6362 93.5075C64.531 90.0723 64.2603 87.7971 64.2829 82.0197C64.3054 77.5585 64.3731 76.2201 64.8016 74.0118C65.343 71.0227 66.2452 68.7252 66.6963 69.1713C66.8993 69.3721 66.8542 69.9743 66.4482 71.8481C65.2979 77.2908 65.3204 81.0606 66.4933 85.098C68.2752 91.1876 69.9894 93.4629 73.3727 94.3105C75.2899 94.8012 75.6508 94.6897 75.944 93.6413C76.3275 92.2583 76.6883 92.1914 78.4928 93.1283C80.4551 94.1544 83.0039 94.8459 84.9887 94.9128L86.5225 94.9574L86.703 94.2659C87.0413 92.9944 87.2894 92.9944 89.4998 94.3105C91.2817 95.3812 94.462 96.6304 95.3642 96.6304C96.2664 96.6304 99.4468 95.3812 101.229 94.3105C103.439 92.9944 103.665 92.9944 104.026 94.2659L104.206 94.9574L105.74 94.9128C107.725 94.8459 110.273 94.1544 112.236 93.1283C114.04 92.1914 114.401 92.2583 114.784 93.6413C114.92 94.1097 115.19 94.5336 115.371 94.5782C115.754 94.6451 120.604 90.3177 121.416 89.1578C122.566 87.5071 122.814 87.2617 123.198 87.2617C123.604 87.2617 124.055 86.0572 124.777 83.1351C125.431 80.4806 125.25 76.3316 124.303 71.8258C123.919 69.9743 123.852 69.3721 124.077 69.1713C124.528 68.7252 125.431 71.0227 125.972 74.0118C126.378 76.2201 126.468 77.5585 126.468 82.0197C126.491 87.7971 126.22 90.0723 125.115 93.5075C124.325 95.9835 124.348 96.0504 125.746 95.8943C127.686 95.6712 129.648 94.9128 130.754 93.9313C132.536 92.3699 133.37 90.5854 133.957 87.061C134.498 83.8265 134.002 80.2575 131.881 71.8927C129.919 64.1747 129.197 60.6949 128.859 57.1705C128.543 54.0699 128.363 53.1777 127.506 50.5902C125.205 43.6975 120.987 39.1916 113.183 35.2657C105.198 31.2506 98.0709 29.9122 90.3344 30.9829Z" fill="white"/>
<path d="M89.5449 29.4218C85.4398 30.1579 81.2671 31.697 76.5755 34.1507C69.7187 37.742 65.9519 41.3333 63.0648 47.1107C61.5536 50.0997 60.8544 52.5088 60.4484 55.9886C59.8845 60.8737 59.2755 63.9519 57.4937 71.09C55.4637 79.1871 55.1028 81.2839 55.1028 84.7414C55.1028 89.225 56.2982 92.4817 58.7568 94.7346C60.2454 96.0953 61.5311 96.7645 63.8994 97.3445C65.9745 97.8575 67.5083 97.8798 68.2075 97.4114C68.7939 96.9876 68.7488 96.5414 67.8466 94.7346C67.3053 93.6416 66.4256 90.7195 66.4256 90.0057C66.4256 89.8272 66.6963 90.1841 67.0346 90.831C68.5458 93.7085 71.1848 95.6269 74.6358 96.3184C76.2147 96.6307 76.4853 96.6307 76.9364 96.3407C77.2296 96.1622 77.5229 95.6715 77.5905 95.2477L77.7484 94.4893L79.1469 95.1361C82.2821 96.5861 86.1616 97.0768 87.5826 96.2292C87.9886 95.9838 88.3044 95.7161 88.3044 95.5823C88.3044 95.4707 89.0938 95.8276 90.0411 96.363C91.9358 97.4337 94.2364 98.2367 95.4093 98.2367C96.5822 98.2367 98.8828 97.4337 100.777 96.363C101.725 95.8276 102.514 95.4707 102.514 95.5823C102.514 95.6938 102.83 95.9838 103.236 96.2292C104.657 97.0991 108.537 96.5861 111.694 95.1361C113.138 94.467 113.341 94.4669 113.341 95.1584C113.341 95.6492 113.341 95.6492 114.333 95.2477C114.784 95.0692 115.145 94.8015 115.168 94.6454C115.303 93.1509 114.762 92.0133 113.927 92.0133C113.634 92.0133 112.642 92.4148 111.717 92.9055C109.055 94.3331 104.544 95.2477 104.544 94.3777C104.544 93.7978 104.025 92.9055 103.597 92.7717C103.304 92.6825 102.334 93.1286 100.687 94.0877C99.2888 94.9131 97.5746 95.7161 96.7626 95.9392C95.3867 96.3184 95.274 96.3184 93.853 95.8946C93.041 95.6492 91.3042 94.8239 89.996 94.0431C88.4171 93.1063 87.4924 92.7048 87.1991 92.794C86.748 92.9278 86.2518 93.7978 86.2518 94.4C86.2518 95.27 81.7407 94.3331 79.0792 92.9278C78.1544 92.4371 77.1845 92.0356 76.8913 92.0356C76.1695 92.0356 75.6508 92.7271 75.6508 93.6862V94.5116L74.7937 94.3554C72.5381 93.9762 70.4405 92.5263 69.0871 90.4518C67.9594 88.6896 66.6963 84.8976 66.0422 81.3509C65.6813 79.3656 65.8843 76.8896 66.7639 72.3614C67.2376 69.8631 67.3053 69.2162 67.0797 68.9486C66.3128 68.034 65.5008 69.127 64.8467 71.9599C64.0798 75.2166 63.8317 77.938 63.8543 82.6669C63.8768 88.1989 64.5084 92.2809 65.8392 95.4484C66.0422 95.9169 65.7038 95.8723 63.1776 95.1138C61.9371 94.7346 61.3506 94.4 60.268 93.3963C57.9673 91.2772 57.0651 88.8458 57.0877 84.6745C57.0877 81.2393 57.3583 79.7002 59.3206 71.9599C61.1702 64.6211 62.1401 59.9814 62.1401 58.4423C62.1401 56.8362 62.9746 52.5534 63.6287 50.8581C65.1399 46.8653 67.9594 42.6048 70.5081 40.4634C75.132 36.5821 84.0188 32.4554 89.8832 31.4963C91.1689 31.2955 93.3568 31.1394 95.4093 31.1394C97.4618 31.1394 99.6497 31.2732 100.935 31.4963C106.8 32.4554 115.687 36.5821 120.31 40.4634C122.859 42.6048 125.679 46.8653 127.19 50.8581C127.821 52.5534 128.679 56.8362 128.679 58.4423C128.679 59.9814 129.648 64.6211 131.498 71.9599C133.438 79.7002 133.708 81.2393 133.731 84.6745C133.731 88.8458 132.851 91.2995 130.551 93.3963C129.468 94.3777 128.882 94.7346 127.641 95.1138C125.115 95.8723 124.776 95.9169 124.979 95.4484C126.31 92.2809 126.942 88.1989 126.964 82.6669C126.987 73.9228 125.363 67.0079 123.716 68.9486C123.491 69.2162 123.536 69.8408 124.032 72.3391C125.182 78.2949 125.205 80.2132 124.1 84.3622C123.807 85.4998 123.062 89.0242 123.062 89.3365C123.062 89.3811 123.446 88.9573 123.897 88.3996C124.348 87.842 124.754 87.3959 124.799 87.4405C124.844 87.4851 124.709 88.3996 124.528 89.4927C124.122 91.7679 123.446 94.0654 122.859 95.0692C122.634 95.4707 122.386 96.073 122.295 96.4522C121.98 97.8352 123.784 98.2144 126.964 97.4114C129.333 96.8091 130.618 96.1622 132.107 94.8016C134.565 92.5486 135.761 89.2919 135.761 84.8083C135.761 81.3509 135.4 79.2541 133.37 71.1569C131.588 64.0189 130.979 60.9406 130.415 56.0332C129.491 48.0252 125.182 41.0434 118.461 36.649C114.108 33.7938 107.657 30.9386 103.259 29.9125C101.183 29.4218 100.236 29.3326 96.1311 29.2656C92.5899 29.1095 90.8757 29.1764 89.5449 29.4218Z" fill="black"/>
<path d="M80.365 91.7471C79.756 92.1263 79.8236 95.8291 80.5003 99.1082C81.2672 102.833 81.3123 102.9 82.5303 102.9C83.7257 102.9 86.297 101.986 93.3118 99.0412C98.1612 97.0114 98.2289 96.9667 98.2289 96.3199C98.2289 95.7176 98.0935 95.5838 97.056 95.1599C92.0487 93.0408 81.6957 90.9217 80.365 91.7471Z" fill="#8FB83B"/>
<path d="M121.235 91.6562C121.055 91.7009 119.837 91.9016 118.529 92.1024C114.785 92.6823 110.206 93.9315 107.296 95.1583C106.259 95.6045 106.123 95.7383 106.123 96.3183C106.123 96.9875 106.191 97.0098 111.153 99.0843C118.281 102.051 120.626 102.899 121.822 102.899C123.04 102.899 123.085 102.832 123.852 99.1066C124.551 95.716 124.619 92.1024 123.965 91.7455C123.559 91.5447 122.025 91.4778 121.235 91.6562Z" fill="black"/>
<path d="M79.7785 90.2941C78.5605 90.8295 78.3124 91.811 78.4703 95.1123C78.6507 99.2167 79.5304 102.875 80.568 103.901C81.1544 104.481 81.3123 104.526 82.6656 104.436C84.2445 104.347 86.297 103.589 94.8455 99.9751C99.1987 98.146 99.9656 97.6329 99.5596 96.8299C99.1987 96.1607 98.3642 96.3838 93.2666 98.5475C84.5603 102.25 82.2371 102.986 81.7408 102.228C81.1318 101.247 80.5454 97.7667 80.5228 94.9785L80.5003 92.0786L81.4927 92.0117C83.8385 91.8556 91.575 93.5062 95.3192 95.0008C96.4244 95.4469 97.4845 95.7592 97.6875 95.7146C98.1612 95.6253 98.522 95.0008 98.3642 94.5769C98.1386 93.997 95.7703 92.9486 92.7704 92.101C86.6354 90.3611 81.2672 89.6026 79.7785 90.2941Z" fill="black"/>
<path d="M119.431 90.318C113.521 91.2326 106.394 93.5078 105.965 94.5785C105.807 95.0023 106.168 95.6269 106.642 95.7161C106.845 95.7607 107.905 95.4261 109.01 95.0023C112.754 93.5301 120.491 91.8571 122.837 92.0133L123.829 92.0802L123.807 94.98C123.784 97.7683 123.22 101.248 122.589 102.23C122.115 102.988 119.769 102.252 111.063 98.549C105.965 96.3853 105.153 96.1622 104.77 96.8314C104.341 97.6121 105.131 98.1252 109.484 99.9766C118.032 103.59 120.085 104.326 121.664 104.438C123.017 104.527 123.175 104.482 123.762 103.903C124.799 102.876 125.679 99.2182 125.882 95.1139C125.995 92.8609 125.949 92.1694 125.656 91.4779C125.025 89.9834 123.446 89.6934 119.431 90.318Z" fill="black"/>
<path d="M135.896 120.298L133.19 109.145L128.904 107.138C128.904 107.138 112.664 123.867 91.4622 126.544C70.2601 129.221 55.8247 114.41 56.0502 107.985C56.2758 101.561 56.0502 107.985 56.0502 107.985L61.9823 104.572C61.9823 104.572 60.1102 103.123 58.3058 103.569C56.5013 104.015 47.6145 112.112 47.6145 112.112C47.6145 112.112 36.2015 134.574 32.5926 138.813C28.9837 143.051 20.4127 166.249 17.706 170.934C17.706 170.934 14.9994 176.577 14.9994 179.12C14.9994 181.641 18.4504 188.779 20.8638 190.117C23.2772 191.456 25.217 193.842 28.0815 194.132C30.9461 194.422 33.9459 193.396 34.8482 193.084C35.7504 192.794 41.3216 189.671 41.6148 188.623C41.908 187.574 48.8325 178.652 48.8325 178.652L127.483 177.759L128.994 165.268C128.994 165.268 119.972 133.593 121.168 130.916C122.363 128.262 131.836 126.321 135.896 120.298Z" fill="white"/>
<path d="M57.6742 103.1C54.6744 104.193 51.1332 107.026 48.0882 110.773C42.4042 117.733 36.9909 126.811 34.9609 132.789L34.0813 135.355L32.7054 136.358C31.2167 137.451 30.4273 138.589 30.2017 140.017C30.1115 140.53 29.6604 141.734 29.1867 142.716C27.4274 146.307 18.6759 165.134 17.5707 167.855C14.3227 175.885 13.5558 179.164 14.3002 181.707C15.27 184.986 17.7737 189.514 18.7887 189.849C19.0142 189.916 19.9165 190.63 20.751 191.388C23.9764 194.31 26.0966 195.314 29.1867 195.314C31.0137 195.314 31.1942 195.269 32.9986 194.355C35.7053 192.994 38.8405 192.816 41.5697 189.693C44.3665 186.458 46.8251 182.889 49.1934 179.833C50.1182 178.629 50.9076 177.67 50.9527 177.714C50.9753 177.737 51.5392 181.35 52.1707 185.7C52.8023 190.05 53.727 196.206 54.2233 199.351L55.1029 205.062L54.336 206.913C53.5917 208.72 52.8699 211.977 52.8699 213.494C52.8699 213.895 52.6669 214.564 52.4188 214.966C51.6068 216.304 50.4114 219.695 49.8475 222.305C49.1934 225.227 49.1257 226.364 49.5768 226.721C50.885 227.792 58.2381 229.041 67.8693 229.844C78.8763 230.759 95.6801 230.937 103.056 230.223C110.522 229.51 118.258 228.305 121.732 227.301C123.062 226.922 123.581 226.409 123.333 225.718C123.062 225.004 122.476 224.937 120.965 225.383C118.033 226.275 110.95 227.457 104.071 228.193C99.5822 228.684 83.3423 228.863 76.5757 228.506C70.3504 228.194 63.1326 227.524 58.9148 226.922C55.7119 226.454 52.0805 225.695 51.5843 225.405C51.3813 225.271 51.4264 224.736 51.7647 223.041C52.3512 220.186 52.8925 218.579 53.9977 216.393C54.4939 215.434 54.8999 214.297 54.8999 213.895C54.8999 212.356 55.6217 209.144 56.4111 207.248C57.0201 205.776 57.178 205.084 57.0878 204.46C57.0201 204.013 56.2081 198.727 55.2608 192.704C53.2985 180.101 52.3286 173.342 51.8549 168.613C50.6595 156.791 51.5166 147.489 54.8097 136.091C55.4638 133.793 56.2758 131.317 56.5916 130.581C57.4712 128.484 57.2682 127.659 55.9375 127.994C55.2834 128.15 54.8097 129.176 53.5466 133.258C51.697 139.191 50.3888 145.37 49.6896 151.326C49.1032 156.323 49.3738 165.334 50.2986 172.339L50.6144 174.748L48.2912 177.781C45.6522 181.239 42.8102 185.276 39.7201 188.778C37.5773 191.21 34.1715 191.544 31.9836 192.637C30.7431 193.262 30.495 193.306 28.8259 193.217C26.232 193.083 24.7659 192.28 21.7886 189.358C19.1947 186.815 17.8414 184.964 17.2775 183.202C17.0745 182.555 16.691 181.395 16.4655 180.681C16.1497 179.744 16.0595 179.075 16.1497 178.361C16.3302 177.067 17.909 172.405 19.533 168.346C20.751 165.312 29.6378 146.419 31.3069 143.14C31.7581 142.27 32.1641 141.132 32.2543 140.574C32.4798 139.147 32.6603 138.901 34.397 137.652C35.8406 136.626 35.9759 136.448 36.3143 135.265C37.7352 130.247 40.5547 124.737 45.1785 118.045C48.3363 113.472 49.4866 112.045 52.103 109.435C55.6217 105.933 57.9449 104.661 60.832 104.661C61.8695 104.661 62.2755 104.795 63.1326 105.353C63.8093 105.799 64.3281 106 64.6213 105.91C65.6137 105.598 65.1626 104.126 63.8093 103.3C62.5688 102.587 59.411 102.475 57.6742 103.1Z" fill="black"/>
<path d="M85.6879 74.7038C84.6729 74.86 83.0038 75.3284 81.8986 75.7076C80.2972 76.2876 79.9363 76.4883 79.9137 76.8898C79.8912 77.1575 79.8686 80.035 79.8461 83.2917C79.8235 88.846 79.7784 89.3814 79.1694 92.1027C77.7484 98.5939 75.7861 99.9992 61.9371 104.594C59.4334 105.42 57.0877 106.29 56.7042 106.513C56.0727 106.892 56.005 107.048 56.005 108.007C56.005 110.171 58.0576 114.387 60.674 117.621C63.0423 120.543 67.1925 123.465 70.8916 124.781C80.1393 128.105 89.7705 128.038 100.078 124.558C110.702 120.967 119.025 116.417 125.994 110.394L127.979 108.676L127.912 107.449L127.889 106.178L126.13 105.33C125.16 104.862 122.634 103.88 120.491 103.167C114.536 101.159 110.86 99.7984 109.371 99.0623C107.251 98.0139 105.627 96.8763 105.356 96.2517C105.221 95.9394 104.86 95.3817 104.589 95.0471C104.296 94.6902 103.619 93.508 103.056 92.3704C101.454 89.1583 100.372 84.2509 100.033 78.7412C99.8978 76.5552 99.7625 75.5961 99.5369 75.4622C99.3791 75.373 98.3415 75.083 97.304 74.8153C95.7251 74.4361 94.6424 74.3692 91.4396 74.3915C89.2742 74.3915 86.6804 74.5254 85.6879 74.7038Z" fill="white"/>
<path d="M88.0789 73.4764C84.673 73.878 80.1845 75.3279 78.9665 76.4432C78.2673 77.0678 78.177 78.1831 78.7184 79.6776C79.5304 81.9305 79.3274 87.8417 78.2898 92.6376C77.5906 95.8051 77.4553 96.162 76.4403 97.2773C74.7035 99.1956 72.2901 100.311 63.719 103.188C60.5613 104.259 57.5614 105.352 57.0652 105.62C56.569 105.888 56.0051 106.088 55.8021 106.044C55.5991 105.999 55.2607 106.155 55.0352 106.445C54.6066 106.914 54.6066 106.936 55.1254 108.52C56.366 112.356 58.9598 116.639 61.6665 119.338C65.343 122.996 70.3278 125.718 75.5606 126.922C79.7334 127.882 82.3498 128.149 85.7105 128.015C91.4396 127.77 95.883 126.811 102.424 124.402C112.664 120.632 121.371 115.412 128.769 108.631C130.348 107.181 130.528 106.936 130.393 106.423C130.212 105.754 129.558 105.441 128.994 105.754C128.724 105.91 128.002 105.642 126.333 104.795C125.07 104.148 122.25 103.01 120.085 102.296C109.484 98.7049 107.837 97.9688 106.01 95.9612C103.868 93.6191 102.717 90.9423 101.68 85.8788C101.116 83.0682 100.981 80.9045 101.184 76.7778C101.229 75.7294 100.732 75.1717 99.2212 74.6141C96.4018 73.5434 91.6426 73.0749 88.0789 73.4764ZM96.1988 75.7963C98.9055 76.354 98.9055 76.354 98.9055 78.0269C98.9055 81.3283 99.9881 88.0202 101.003 90.9869C101.657 92.8606 102.537 94.6451 103.507 95.9835C103.913 96.5412 104.296 97.1658 104.364 97.3665C104.454 97.5673 104.928 98.058 105.469 98.4372C107.544 99.9317 110.296 101.047 119.115 104.014C121.235 104.728 123.919 105.776 125.047 106.356L127.145 107.382L125.724 108.631C121.055 112.758 114.378 117.108 108.492 119.807C105.875 121.011 100.665 123.019 97.5296 124.023C87.9661 127.123 77.5906 126.655 69.9218 122.84C64.9821 120.387 61.0575 116.55 58.644 111.843C58.0802 110.728 57.1779 108.386 57.1779 108.029C57.1779 107.672 59.2982 106.802 64.5761 105.018C73.6434 101.962 76.2598 100.69 77.974 98.5934C79.2597 96.9873 79.6206 96.1174 80.3424 92.6376C80.9288 89.8047 80.9739 89.2693 80.9739 83.5366L80.9965 77.447L82.034 77.0008C85.8233 75.4171 91.8005 74.9041 96.1988 75.7963Z" fill="black"/>
<path d="M63.6289 129.199C61.9598 128.842 60.7193 128.552 60.6516 128.485C60.629 128.463 61.3057 126.879 62.1628 124.983C63.3808 122.284 63.7191 121.303 63.7191 120.455C63.7191 119.518 63.7868 119.384 64.2379 119.384C64.6664 119.362 65.0724 118.693 66.922 114.968C68.1174 112.559 69.9895 109.079 71.0496 107.25C72.7413 104.305 72.9894 103.792 72.9894 102.833C72.9894 101.807 73.1022 101.606 74.7938 99.4424C75.8088 98.171 77.0493 96.6764 77.6132 96.0965C78.6733 94.9812 78.8312 94.4458 78.2448 93.8658C77.4554 93.0851 76.5982 93.5089 75.1773 95.3157C74.7487 95.8734 73.4179 97.5464 72.1999 99.0409C70.3053 101.383 69.8542 101.807 68.952 102.141C68.3655 102.342 67.7565 102.632 67.5761 102.766C67.125 103.123 62.8169 108.811 61.0125 111.466C59.614 113.518 59.4336 113.942 59.4336 114.811C59.4336 115.771 59.3885 115.838 58.802 115.838C58.2382 115.838 58.0126 116.105 56.6818 118.336C53.5692 123.533 53.0955 124.47 53.0955 125.407C53.0955 125.652 53.0955 125.831 53.0504 125.987C56.3209 127.615 60.0426 129.511 63.6289 129.199Z" fill="black"/>
<path d="M120.378 128.641C120.356 128.373 120.333 128.083 120.333 127.793C120.333 127.124 119.859 124.626 119.296 122.261C118.732 119.897 118.213 117.622 118.123 117.22C118.055 116.818 117.852 116.484 117.694 116.484C117.491 116.484 117.401 116.172 117.401 115.48C117.401 114.298 115.123 107.316 113.363 103.056C112.213 100.267 112.191 100.245 111.176 99.8434C110.183 99.4419 110.138 99.3527 109.281 97.2336C108.243 94.646 107.815 93.9546 107.274 93.9546C107.025 93.9546 106.439 93.4415 105.898 92.7277C104.567 91.0101 104.003 90.7424 103.349 91.4562C102.965 91.8578 103.033 92.0362 104.522 95.0922L106.078 98.3043L105.965 99.8657C105.875 101.026 106.01 102.119 106.416 104.104C107.634 109.792 108.898 117.733 109.258 121.726C109.371 122.953 109.619 125.384 109.822 127.146C109.98 128.552 110.093 129.778 110.115 130.247C113.589 131.05 117.175 130.269 120.378 128.641Z" fill="black"/>
<path d="M126.423 205.954C128.453 207.739 126.874 211.085 127.777 213.316C129.649 217.42 130.551 221.881 132.445 225.874C132.468 225.896 132.513 225.941 132.558 225.986C132.716 226.142 133.37 226.253 134.024 226.253H135.22L135.784 224.402C136.099 223.376 136.957 220.097 137.723 217.063C138.716 213.003 139.077 211.152 139.077 209.992V208.43L137.385 206.869C135.445 205.085 132.175 202.854 129.152 201.248C127.461 200.356 126.784 200.11 125.927 200.11C125.724 200.11 125.544 200.11 125.386 200.088C125.273 200.4 125.16 200.69 125.07 201.002C124.393 202.608 124.844 204.616 126.423 205.954Z" fill="#8FB83B"/>
<path d="M62.1853 231.429H55.1255V238.411H62.1853V231.429Z" fill="#FAFCFC"/>
<path d="M55.6894 231.429H48.6295V238.411H55.6894V231.429Z" fill="#FAFCFC"/>
<path d="M53.321 234.909C53.321 235.578 52.7797 236.113 52.103 236.113C51.4263 236.113 50.885 235.578 50.885 234.909C50.885 234.239 51.4263 233.704 52.103 233.704C52.7797 233.704 53.321 234.239 53.321 234.909Z" fill="#95C036"/>
<path d="M49.1934 231.429H42.1335V238.411H49.1934V231.429Z" fill="#FAFCFC"/>
<path d="M45.607 236.113C46.2797 236.113 46.825 235.574 46.825 234.909C46.825 234.243 46.2797 233.704 45.607 233.704C44.9344 233.704 44.389 234.243 44.389 234.909C44.389 235.574 44.9344 236.113 45.607 236.113Z" fill="#95C036"/>
<path d="M42.6974 231.429H35.6376V238.411H42.6974V231.429Z" fill="#FAFCFC"/>
<path d="M58.9373 225.005H51.8774V231.987H58.9373V225.005Z" fill="#FAFCFC"/>
<path d="M56.5689 228.485C56.5689 229.154 56.0276 229.689 55.3509 229.689C54.6743 229.689 54.1329 229.154 54.1329 228.485C54.1329 227.816 54.6743 227.28 55.3509 227.28C56.0276 227.28 56.5689 227.816 56.5689 228.485Z" fill="#95C036"/>
<path d="M52.4414 225.005H45.3816V231.987H52.4414V225.005Z" fill="#FAFCFC"/>
<path d="M50.0731 228.485C50.0731 229.154 49.5317 229.689 48.8551 229.689C48.1784 229.689 47.6371 229.154 47.6371 228.485C47.6371 227.816 48.1784 227.28 48.8551 227.28C49.5317 227.28 50.0731 227.816 50.0731 228.485Z" fill="#95C036"/>
<path d="M43.5771 228.484C43.5771 229.153 43.0357 229.688 42.3591 229.688C41.6824 229.688 41.1411 229.153 41.1411 228.484C41.1411 227.815 41.6824 227.279 42.3591 227.279C43.0357 227.279 43.5771 227.815 43.5771 228.484Z" fill="#95C036"/>
<path d="M62.1853 218.58H55.1255V225.562H62.1853V218.58Z" fill="#FAFCFC"/>
<path d="M55.6894 218.58H48.6295V225.562H55.6894V218.58Z" fill="#FAFCFC"/>
<path d="M53.321 222.06C53.321 222.729 52.7797 223.265 52.103 223.265C51.4263 223.265 50.885 222.729 50.885 222.06C50.885 221.391 51.4263 220.855 52.103 220.855C52.7797 220.855 53.321 221.391 53.321 222.06Z" fill="#95C036"/>
<path d="M46.825 222.06C46.825 222.729 46.2837 223.265 45.607 223.265C44.9304 223.265 44.389 222.729 44.389 222.06C44.389 221.391 44.9304 220.855 45.607 220.855C46.2837 220.855 46.825 221.391 46.825 222.06Z" fill="#95C036"/>
<path d="M50.9753 244.255H48.7197V250.501H50.9753V244.255Z" fill="#FAFCFC"/>
<path d="M53.321 247.756C53.321 248.425 52.7797 248.961 52.103 248.961C51.4263 248.961 50.885 248.425 50.885 247.756C50.885 247.087 51.4263 246.552 52.103 246.552C52.7797 246.552 53.321 247.087 53.321 247.756Z" fill="#95C036"/>
<path d="M45.607 248.962C46.2797 248.962 46.825 248.422 46.825 247.757C46.825 247.092 46.2797 246.553 45.607 246.553C44.9344 246.553 44.389 247.092 44.389 247.757C44.389 248.422 44.9344 248.962 45.607 248.962Z" fill="#95C036"/>
<path d="M58.9373 237.854H51.8774V244.835H58.9373V237.854Z" fill="#FAFCFC"/>
<path d="M56.5689 241.333C56.5689 242.003 56.0276 242.538 55.3509 242.538C54.6743 242.538 54.1329 242.003 54.1329 241.333C54.1329 240.664 54.6743 240.129 55.3509 240.129C56.0276 240.129 56.5689 240.664 56.5689 241.333Z" fill="#95C036"/>
<path d="M52.4414 237.854H45.3816V244.835H52.4414V237.854Z" fill="#FAFCFC"/>
<path d="M50.0731 241.333C50.0731 242.003 49.5317 242.538 48.8551 242.538C48.1784 242.538 47.6371 242.003 47.6371 241.333C47.6371 240.664 48.1784 240.129 48.8551 240.129C49.5317 240.129 50.0731 240.664 50.0731 241.333Z" fill="#95C036"/>
<path d="M45.9453 237.854H38.8855V244.835H45.9453V237.854Z" fill="#FAFCFC"/>
<path d="M43.577 241.333C43.577 242.003 43.0356 242.538 42.359 242.538C41.6823 242.538 41.141 242.003 41.141 241.333C41.141 240.664 41.6823 240.129 42.359 240.129C43.0356 240.129 43.577 240.664 43.577 241.333Z" fill="#95C036"/>
<path d="M62.1853 231.429H55.1255V238.411H62.1853V231.429Z" fill="#FAFCFC"/>
<path d="M55.6894 231.429H48.6295V238.411H55.6894V231.429Z" fill="#FAFCFC"/>
<path d="M53.321 234.909C53.321 235.578 52.7797 236.113 52.103 236.113C51.4263 236.113 50.885 235.578 50.885 234.909C50.885 234.239 51.4263 233.704 52.103 233.704C52.7797 233.704 53.321 234.239 53.321 234.909Z" fill="#95C036"/>
<path d="M49.1934 231.429H42.1335V238.411H49.1934V231.429Z" fill="#FAFCFC"/>
<path d="M46.825 234.909C46.825 235.578 46.2837 236.113 45.607 236.113C44.9304 236.113 44.389 235.578 44.389 234.909C44.389 234.239 44.9304 233.704 45.607 233.704C46.2837 233.704 46.825 234.239 46.825 234.909Z" fill="#95C036"/>
<path d="M42.6974 231.429H35.6376V238.411H42.6974V231.429Z" fill="#FAFCFC"/>
<path d="M53.3211 247.756C53.3211 248.425 52.7798 248.961 52.1031 248.961C51.4265 248.961 50.8851 248.425 50.8851 247.756C50.8851 247.087 51.4265 246.552 52.1031 246.552C52.7798 246.552 53.3211 247.087 53.3211 247.756Z" fill="#95C036"/>
<path d="M46.8251 247.756C46.8251 248.425 46.2838 248.961 45.6072 248.961C44.9305 248.961 44.3892 248.425 44.3892 247.756C44.3892 247.087 44.9305 246.552 45.6072 246.552C46.2838 246.552 46.8251 247.087 46.8251 247.756Z" fill="#95C036"/>
<path d="M49.1934 231.429H42.1335V238.411H49.1934V231.429Z" fill="#FAFCFC"/>
<path d="M42.6974 231.429H35.6376V238.411H42.6974V231.429Z" fill="#FAFCFC"/>
<path d="M40.329 234.909C40.329 235.578 39.7877 236.113 39.1111 236.113C38.4344 236.113 37.8931 235.578 37.8931 234.909C37.8931 234.239 38.4344 233.704 39.1111 233.704C39.7877 233.704 40.329 234.239 40.329 234.909Z" fill="#95C036"/>
<path d="M43.5771 228.484C43.5771 229.153 43.0357 229.688 42.3591 229.688C41.6824 229.688 41.1411 229.153 41.1411 228.484C41.1411 227.815 41.6824 227.279 42.3591 227.279C43.0357 227.279 43.5771 227.815 43.5771 228.484Z" fill="#95C036"/>
<path d="M40.3292 247.757C40.3292 248.426 39.7878 248.962 39.1112 248.962C38.4345 248.962 37.8932 248.426 37.8932 247.757C37.8932 247.088 38.4345 246.553 39.1112 246.553C39.7878 246.553 40.3292 247.088 40.3292 247.757Z" fill="#95C036"/>
<path d="M32.6152 248.962C33.2879 248.962 33.8332 248.422 33.8332 247.757C33.8332 247.092 33.2879 246.553 32.6152 246.553C31.9425 246.553 31.3972 247.092 31.3972 247.757C31.3972 248.422 31.9425 248.962 32.6152 248.962Z" fill="#95C036"/>
<path d="M45.9455 237.854H38.8856V244.835H45.9455V237.854Z" fill="#FAFCFC"/>
<path d="M43.5771 241.333C43.5771 242.003 43.0358 242.538 42.3591 242.538C41.6824 242.538 41.1411 242.003 41.1411 241.333C41.1411 240.664 41.6824 240.129 42.3591 240.129C43.0358 240.129 43.5771 240.664 43.5771 241.333Z" fill="#95C036"/>
<path d="M39.472 236.225H33.8331V244.924H39.472V236.225Z" fill="#FAFCFC"/>
<path d="M37.0811 241.332C37.0811 242.002 36.5398 242.537 35.8631 242.537C35.1865 242.537 34.6451 242.002 34.6451 241.332C34.6451 240.663 35.1865 240.128 35.8631 240.128C36.5398 240.128 37.0811 240.663 37.0811 241.332Z" fill="#95C036"/>
<path d="M49.1934 231.429H42.1335V238.411H49.1934V231.429Z" fill="#FAFCFC"/>
<path d="M42.6974 231.429H35.6376V238.411H42.6974V231.429Z" fill="#FAFCFC"/>
<path d="M40.329 234.909C40.329 235.578 39.7877 236.113 39.1111 236.113C38.4344 236.113 37.8931 235.578 37.8931 234.909C37.8931 234.239 38.4344 233.704 39.1111 233.704C39.7877 233.704 40.329 234.239 40.329 234.909Z" fill="#95C036"/>
<path d="M49.1709 244.254H42.1787V250.5H49.1709V244.254Z" fill="#FAFCFC"/>
<path d="M42.6298 244.254H35.6376V250.5H42.6298V244.254Z" fill="#FAFCFC"/>
<path d="M40.329 247.756C40.329 248.425 39.7877 248.961 39.1111 248.961C38.4344 248.961 37.8931 248.425 37.8931 247.756C37.8931 247.087 38.4344 246.552 39.1111 246.552C39.7877 246.552 40.329 247.087 40.329 247.756Z" fill="#95C036"/>
<path d="M36.3143 244.254H32.4799V250.5H36.3143V244.254Z" fill="#FAFCFC"/>
<path d="M33.8332 247.756C33.8332 248.425 33.2919 248.961 32.6152 248.961C31.9385 248.961 31.3972 248.425 31.3972 247.756C31.3972 247.087 31.9385 246.552 32.6152 246.552C33.2919 246.552 33.8332 247.087 33.8332 247.756Z" fill="#95C036"/>
<path d="M53.1181 240.752C51.9677 243.964 51.3813 247.266 50.8174 250.545H102.402C102.289 250.255 102.176 249.965 102.063 249.675C100.259 245.214 100.033 240.529 99.1311 236.068C109.507 232.722 120.108 232.276 130.934 231.607C131.385 231.384 132.062 232.053 132.288 232.276C133.054 233.235 133.709 234.306 134.453 235.265C134.408 235.042 134.363 234.819 134.318 234.618C133.483 230.692 132.806 227.703 132.513 226.699C132.265 225.852 132.242 225.696 132.445 225.874C130.551 221.881 129.649 217.42 127.776 213.316C126.874 211.085 128.453 207.739 126.423 205.954C124.844 204.616 124.393 202.609 125.07 201.047C125.16 200.735 125.273 200.445 125.386 200.133C125.07 200.11 124.844 200.043 124.844 199.999C124.844 199.909 125.138 197.657 125.498 195.024C126.558 187.396 127.912 176.644 128.566 170.934C129.017 166.874 129.107 165.402 128.949 164.442C128.837 163.773 127.799 159.58 126.671 155.096C123.897 144.166 121.574 134.485 121.123 131.898C120.92 130.738 120.649 129.6 120.559 129.377C120.491 129.265 120.446 128.975 120.401 128.641C117.198 130.247 113.612 131.028 110.138 130.269C110.138 130.381 110.138 130.47 110.138 130.47C110.093 130.515 108.131 130.76 105.785 131.005C93.6276 132.232 83.1844 132.232 73.4405 131.005C71.8165 130.804 66.8994 129.868 63.6514 129.198C60.0651 129.511 56.3435 127.615 53.0955 125.986C53.0504 126.254 52.9151 126.343 52.6218 126.366C52.1933 126.432 51.9677 126.834 51.246 128.886C50.7723 130.247 50.0957 132.634 49.7122 134.24C49.3513 135.846 48.81 137.831 48.5168 138.701C48.2235 139.571 47.8627 141.311 47.7273 142.605C47.0732 148.962 47.2311 161.61 48.0431 167.922C48.9228 174.859 49.7799 180.481 50.0731 181.194C50.2535 181.618 50.4565 182.734 50.5242 183.648C50.6144 184.563 50.8625 186.325 51.0881 187.552C51.7873 191.388 51.855 193.128 51.3362 194.868C51.0881 195.716 50.7723 196.519 50.6595 196.675C50.1859 197.233 50.1182 198.772 50.5016 199.954C50.84 201.002 50.84 201.159 50.5242 201.984C50.3438 202.475 50.028 204.058 49.8475 205.464C49.419 208.832 48.5619 211.464 47.3213 213.249C45.6071 215.725 41.0284 227.012 40.7803 229.398L40.6675 230.38C44.5696 232.365 49.4867 231.317 52.6444 234.06C54.0203 235.176 53.7947 238.299 53.1181 240.752Z" fill="#8FB83B"/>
<path d="M137.588 244.256H133.077V250.502H137.588V244.256Z" fill="#FAFCFC"/>
<path d="M133.528 244.256H126.536V250.502H133.528V244.256Z" fill="#FAFCFC"/>
<path d="M131.273 247.757C131.273 248.426 130.731 248.962 130.055 248.962C129.378 248.962 128.837 248.426 128.837 247.757C128.837 247.088 129.378 246.553 130.055 246.553C130.731 246.553 131.273 247.088 131.273 247.757Z" fill="#95C036"/>
<path d="M127.213 244.256H119.995V250.502H127.213V244.256Z" fill="#FAFCFC"/>
<path d="M124.777 247.757C124.777 248.426 124.235 248.962 123.559 248.962C122.882 248.962 122.341 248.426 122.341 247.757C122.341 247.088 122.882 246.553 123.559 246.553C124.235 246.553 124.777 247.088 124.777 247.757Z" fill="#95C036"/>
<path d="M135.784 237.786H129.919V244.924H135.784V237.786Z" fill="#FAFCFC"/>
<path d="M134.52 241.332C134.52 242.002 133.979 242.537 133.302 242.537C132.626 242.537 132.084 242.002 132.084 241.332C132.084 240.663 132.626 240.128 133.302 240.128C133.979 240.128 134.52 240.663 134.52 241.332Z" fill="#95C036"/>
<path d="M130.393 237.854H123.333V244.835H130.393V237.854Z" fill="#FAFCFC"/>
<path d="M128.025 241.333C128.025 242.003 127.483 242.538 126.807 242.538C126.13 242.538 125.589 242.003 125.589 241.333C125.589 240.664 126.13 240.129 126.807 240.129C127.483 240.129 128.025 240.664 128.025 241.333Z" fill="#95C036"/>
<path d="M123.897 237.854H116.837V244.835H123.897V237.854Z" fill="#FAFCFC"/>
<path d="M121.529 241.333C121.529 242.003 120.987 242.538 120.311 242.538C119.634 242.538 119.093 242.003 119.093 241.333C119.093 240.664 119.634 240.129 120.311 240.129C120.987 240.129 121.529 240.664 121.529 241.333Z" fill="#95C036"/>
<path d="M133.641 231.429H126.581V238.411H133.641V231.429Z" fill="#FAFCFC"/>
<path d="M131.273 234.909C131.273 235.578 130.731 236.113 130.055 236.113C129.378 236.113 128.837 235.578 128.837 234.909C128.837 234.239 129.378 233.704 130.055 233.704C130.731 233.704 131.273 234.239 131.273 234.909Z" fill="#95C036"/>
<path d="M127.145 231.429H120.085V238.411H127.145V231.429Z" fill="#FAFCFC"/>
<path d="M124.777 234.909C124.777 235.578 124.235 236.113 123.559 236.113C122.882 236.113 122.341 235.578 122.341 234.909C122.341 234.239 122.882 233.704 123.559 233.704C124.235 233.704 124.777 234.239 124.777 234.909Z" fill="#95C036"/>
<path d="M120.672 233.102H113.679V238.455H120.672V233.102Z" fill="#FAFCFC"/>
<path d="M120.672 244.256H113.679V250.502H120.672V244.256Z" fill="#FAFCFC"/>
<path d="M117.063 248.962C117.735 248.962 118.281 248.422 118.281 247.757C118.281 247.092 117.735 246.553 117.063 246.553C116.39 246.553 115.845 247.092 115.845 247.757C115.845 248.422 116.39 248.962 117.063 248.962Z" fill="#95C036"/>
<path d="M114.13 244.256H107.138V250.502H114.13V244.256Z" fill="#FAFCFC"/>
<path d="M110.567 248.962C111.239 248.962 111.785 248.422 111.785 247.757C111.785 247.092 111.239 246.553 110.567 246.553C109.894 246.553 109.349 247.092 109.349 247.757C109.349 248.422 109.894 248.962 110.567 248.962Z" fill="#95C036"/>
<path d="M107.589 244.256H102.176V250.502H107.589V244.256Z" fill="#FAFCFC"/>
<path d="M123.897 237.854H116.837V244.835H123.897V237.854Z" fill="#FAFCFC"/>
<path d="M121.529 241.333C121.529 242.003 120.987 242.538 120.311 242.538C119.634 242.538 119.093 242.003 119.093 241.333C119.093 240.664 119.634 240.129 120.311 240.129C120.987 240.129 121.529 240.664 121.529 241.333Z" fill="#95C036"/>
<path d="M117.401 237.854H110.341V244.835H117.401V237.854Z" fill="#FAFCFC"/>
<path d="M115.033 241.333C115.033 242.003 114.491 242.538 113.815 242.538C113.138 242.538 112.597 242.003 112.597 241.333C112.597 240.664 113.138 240.129 113.815 240.129C114.491 240.129 115.033 240.664 115.033 241.333Z" fill="#95C036"/>
<path d="M110.905 237.854H103.845V244.835H110.905V237.854Z" fill="#FAFCFC"/>
<path d="M127.145 231.429H120.085V238.411H127.145V231.429Z" fill="#FAFCFC"/>
<path d="M118.281 234.909C118.281 235.578 117.739 236.113 117.063 236.113C116.386 236.113 115.845 235.578 115.845 234.909C115.845 234.239 116.386 233.704 117.063 233.704C117.739 233.704 118.281 234.239 118.281 234.909Z" fill="#95C036"/>
<path d="M114.13 234.217H107.138V238.455H114.13V234.217Z" fill="#FAFCFC"/>
<path d="M111.785 234.909C111.785 235.578 111.243 236.113 110.567 236.113C109.89 236.113 109.349 235.578 109.349 234.909C109.349 234.239 109.89 233.704 110.567 233.704C111.243 233.704 111.785 234.239 111.785 234.909Z" fill="#95C036"/>
<path d="M107.364 234.887H100.372V244.255H107.364V234.887Z" fill="#FAFCFC"/>
<path d="M51.2459 131.898C51.4038 131.586 51.9 130.448 52.3511 129.377C52.8022 128.307 53.2308 127.414 53.321 127.414C53.4112 127.414 54.539 127.816 55.8472 128.284C58.0577 129.11 64.9371 130.783 69.1324 131.519C80.9965 133.615 98.7025 133.37 115.822 130.85C117.852 130.56 119.544 130.336 119.544 130.359C119.566 130.381 119.747 131.318 119.972 132.433C120.581 135.601 123.288 146.865 125.769 156.569C127.01 161.454 128.047 165.603 128.025 165.781C128.002 167.164 125.273 188.534 123.581 200.423C123.378 201.917 123.333 202.832 123.491 203.367C123.694 204.103 125.025 205.933 125.792 206.557C126.085 206.802 126.175 207.271 126.175 208.699C126.175 210.795 126.22 210.974 129.694 221.993C130.979 226.097 132.085 229.622 132.152 229.8C132.242 230.046 132.062 230.135 131.543 230.179C129.446 230.291 122.25 230.983 119.183 231.384C111.852 232.321 99.2213 234.552 98.68 234.998C98.3191 235.288 98.3642 235.711 99.1987 239.95C99.7852 242.939 100.733 246.775 101.77 250.523H103.755C102.244 245.281 101.093 240.396 100.778 237.585L100.642 236.336L101.409 236.202C101.815 236.135 104.792 235.6 108.018 235.042C114.694 233.882 120.649 233.057 124.934 232.7C126.558 232.566 128.228 232.432 128.656 232.388C130.641 232.209 130.506 232.12 131.656 234.128C133.866 237.942 135.896 244.099 137.34 250.501H139.37C138.896 248.359 138.31 246.062 137.52 243.162C135.626 236.202 134.115 230.715 133.618 229.042C133.19 227.592 133.19 227.547 133.618 227.77C134.318 228.127 134.927 228.038 135.31 227.48C135.919 226.566 136.776 223.778 138.242 217.956C139.866 211.487 140.25 209.635 140.069 208.899C139.731 207.539 132.761 202.408 128.115 200.088L125.814 198.928L126.107 196.675C128.791 176.622 129.761 168.19 129.694 165.803C129.649 164.51 129.062 161.833 127.055 153.981C123.671 140.798 122.228 134.552 121.912 131.786C121.777 130.56 121.529 129.199 121.371 128.775C121.213 128.351 120.671 126.076 120.153 123.711C117.897 113.272 114.672 103.881 111.334 97.8808C109.935 95.3825 107.138 92.2819 104.048 89.8282C102.244 88.4006 101.499 88.1329 100.981 88.7352C100.53 89.2706 100.935 89.8728 102.627 91.2112C106.484 94.2672 108.559 96.6093 110.409 99.9999C113.296 105.286 116.702 115.458 118.574 124.314C118.957 126.098 119.318 127.771 119.363 128.039C119.453 128.485 119.341 128.552 118.258 128.775C116.296 129.177 111.514 129.868 111.401 129.779C111.356 129.734 111.176 128.396 110.995 126.834C109.935 117.421 109.439 113.629 108.627 109.079C107.612 103.301 106.687 99.13 105.83 96.4755C105.334 94.9364 105.153 94.6241 104.68 94.5126C104.048 94.3564 103.462 94.7579 103.462 95.3379C103.462 95.561 103.755 96.6317 104.138 97.747C105.74 102.476 107.612 112.558 108.762 122.819C109.213 126.723 109.529 129.98 109.461 130.046C109.281 130.225 101.116 130.983 96.6951 131.229C89.3646 131.63 81.8536 131.452 74.9291 130.671C70.8466 130.203 69.3579 129.957 65.4558 129.087C61.4184 128.173 61.2831 128.128 61.2831 127.905C61.2831 127.548 65.0949 119.228 66.8994 115.681C70.2827 108.989 73.3277 104.037 76.3726 100.268C77.3876 99.0184 78.4026 97.5908 78.6508 97.1224C79.2823 95.8955 80.1394 92.795 80.3198 91.122L80.4552 89.7167L79.6206 90.3413C77.8162 91.7912 75.6509 93.7988 73.2149 96.2301C66.1776 103.234 60.6741 110.64 54.3586 121.615C53.2759 123.488 52.2158 125.206 51.9677 125.429C51.7196 125.674 51.5391 125.987 51.5391 126.165C51.5391 126.321 51.088 127.437 50.5241 128.574C49.9603 129.734 49.5092 131.006 49.5092 131.363C49.5092 132.634 50.682 132.991 51.2459 131.898ZM127.167 201.85C130.393 203.457 134.385 206.133 136.844 208.386C137.994 209.435 138.107 209.635 138.017 210.26C137.656 212.379 134.836 223.488 134.34 224.759L134.092 225.384L132.987 224.313L131.882 223.242L130.393 218.223C128.498 211.799 128.182 210.394 128.228 208.632C128.25 207.829 128.25 206.959 128.25 206.669C128.228 206.379 127.641 205.509 126.874 204.706C125.634 203.367 125.521 203.144 125.521 202.252C125.521 201.717 125.634 201.271 125.746 201.271C125.882 201.271 126.513 201.538 127.167 201.85ZM55.351 123.511C59.4335 116.016 65.0498 107.829 69.8767 102.364C71.9067 100.067 77.0719 94.8248 77.1847 94.9587C77.2298 95.0033 77.117 95.4048 76.9365 95.8509C76.7561 96.2971 75.7862 97.7023 74.8163 98.9515C72.651 101.695 71.5458 103.39 69.3128 107.361C66.8543 111.711 64.3055 116.819 61.8244 122.418C60.629 125.117 59.5689 127.414 59.4561 127.504C59.2982 127.66 55.2157 126.344 54.4939 125.898C54.2458 125.741 54.4037 125.251 55.351 123.511Z" fill="black"/>
<path d="M32.4347 250.546C33.6301 244.256 35.4797 237.095 36.833 233.66L37.6676 231.563L39.4945 231.697C40.5095 231.786 42.4719 232.076 43.8928 232.366C46.8476 232.968 51.7647 234.218 52.2158 234.508C52.4865 234.686 52.4639 235.155 52.1256 237.564C51.697 240.686 50.682 245.862 49.667 250.546H51.6519C53.4338 242.27 54.8999 233.415 54.4262 233.125C53.93 232.812 47.4341 231.117 44.5244 230.515L41.6599 229.935L42.4944 227.593C43.8252 223.868 48.4942 212.96 49.7122 210.729C50.2535 209.725 50.2986 209.235 49.8475 208.878C49.261 208.387 48.4942 208.788 47.8626 209.926C46.7799 211.889 41.1411 225.764 40.1035 228.998C39.9005 229.623 39.8554 229.645 38.1187 229.667C36.7879 229.689 36.3142 229.779 36.1789 230.046C34.3745 233.482 32.0287 241.958 30.4498 250.546H32.4347Z" fill="black"/>
<path d="M49.0129 133.259C48.5167 133.527 48.2911 134.307 47.6144 138.144C46.8025 142.695 46.5995 144.725 46.4416 150.301C46.1935 158.264 46.5544 162.815 48.4716 176.846C48.9001 180.035 49.3963 183.984 49.5317 185.612C49.8249 188.958 50.1632 189.716 51.0429 189.248C51.4714 189.025 51.5391 188.802 51.5391 187.486C51.5391 185.433 51.0429 180.95 49.9828 173.544C48.5167 163.283 48.4941 163.06 48.4941 153.536C48.4941 144.167 48.5392 143.52 49.8249 136.917C50.1181 135.445 50.2986 134.062 50.2309 133.839C50.073 133.304 49.464 133.014 49.0129 133.259Z" fill="black"/>
<path d="M50.4564 190.386C50.276 190.564 50.1858 191.59 50.1858 193.531C50.1858 196.275 50.1632 196.431 49.6219 197.078C48.9227 197.903 48.9227 198.394 49.5993 199.799L50.1406 200.914L49.5768 202.364C48.4941 205.175 48.3813 205.576 48.4941 205.978C48.6745 206.558 49.4414 206.736 49.9377 206.312C50.3662 205.933 52.2157 201.583 52.2157 200.959C52.2157 200.758 52.0128 200.089 51.7421 199.509L51.2684 198.438L51.7421 197.68C52.1481 197.011 52.2157 196.542 52.2157 193.999C52.2157 191.724 52.1481 190.988 51.8774 190.586C51.4714 190.051 50.885 189.962 50.4564 190.386Z" fill="black"/>
<path d="M114.582 207.851C111.266 208.921 100.507 210.461 93.7178 210.84C88.4173 211.13 75.899 211.152 71.6135 210.862C64.7792 210.394 59.6591 209.546 56.8172 208.408C54.9451 207.672 54.4714 207.583 54.0654 208.007C52.464 209.591 57.1329 211.219 66.5385 212.334C70.7113 212.825 87.9211 213.026 94.417 212.669C99.7627 212.357 102.379 212.044 108.492 210.951C115.123 209.769 117.514 208.877 116.815 207.806C116.476 207.293 116.341 207.293 114.582 207.851Z" fill="black"/>
<path d="M107.928 56.9489C107.928 56.2798 107.477 55.3875 107.477 54.4953C107.702 46.9111 108.153 39.327 104.093 32.6351C99.131 24.3817 93.2666 16.1284 83.5678 14.3439C66.4257 11.221 60.3357 32.6351 60.3357 46.9111C60.3357 47.4242 60.268 47.9595 60.1327 48.4949C60.4485 48.5841 60.6289 48.9187 61.0349 49.9894C61.5311 51.3278 61.5762 51.5731 61.3056 51.9746C61.0575 52.3538 61.0575 52.7107 61.2605 53.9599C61.3958 54.8075 61.6665 55.6552 61.8695 55.8559C62.1401 56.1459 62.2303 56.9266 62.2755 58.9788C62.3206 61.1871 62.4559 62.2132 63.0198 64.2877C64.6889 70.5558 67.0121 74.2363 72.3126 78.9653C75.2223 81.5751 75.8087 81.9543 79.3499 83.4934L81.8987 84.6088L84.064 84.3857C87.7856 83.9842 93.3568 81.7089 97.1913 79.0099C100.958 76.3554 107.725 68.6151 107.725 66.9645C107.725 66.6299 107.86 66.3622 108.108 66.1391C108.401 63.1055 108.198 59.9826 107.928 56.9489Z" fill="white"/>
<path d="M134.34 69.1054C134.092 68.1239 133.167 65.2241 132.287 62.6366C129.107 53.2902 128.363 49.7212 126.987 37.3189C126.491 32.88 126.265 31.6085 125.476 28.9541C122.16 17.7117 117.92 11.0198 111.311 6.49161C109.191 5.0417 105.356 3.25719 103.304 2.76645C98.5897 1.62883 92.7704 1.22732 88.5526 1.76267C82.4626 2.52108 77.6357 4.41712 73.1923 7.78537C71.0496 9.41373 67.2603 13.1166 65.6363 15.1465C60.5613 21.5707 58.3058 27.1249 57.584 35.1106C57.3584 37.6758 57.3584 38.5904 57.6742 41.3564C57.8998 43.3193 58.2832 45.3492 58.6441 46.5537C59.208 48.3382 59.2982 48.5167 59.8395 48.5167C59.9523 48.5167 60.02 48.5167 60.1102 48.539C60.2455 47.9813 60.3132 47.446 60.3132 46.9552C60.3132 32.6792 66.4032 11.2652 83.5453 14.388C93.2441 16.1725 99.1085 24.4259 104.071 32.6792C108.131 39.3711 107.68 46.9552 107.454 54.5394C107.454 55.4316 107.905 56.3239 107.905 56.9931C108.176 60.0267 108.379 63.1496 108.063 66.1833C108.131 66.1387 108.176 66.0941 108.243 66.0494L108.807 65.6925V72.0052C108.807 80.9054 108.289 86.7051 106.89 93.62C106.574 95.1369 106.326 96.8321 106.326 97.4344C106.326 98.349 106.394 98.5051 106.777 98.5051C107.589 98.5051 108.875 97.7021 110.973 95.873C113.183 93.9323 113.882 93.7093 113.612 94.9807C113.476 95.6722 113.476 95.6722 114.311 95.5384C114.762 95.4715 115.619 95.0476 116.183 94.6015C117.063 93.9323 117.266 93.8654 117.536 94.1108C117.807 94.3784 117.784 94.6238 117.378 95.9399C116.679 98.1705 116.702 98.282 117.987 98.282C118.574 98.282 119.634 98.1259 120.311 97.9251C120.987 97.7467 122.95 97.4344 124.641 97.256C128.182 96.8991 128.904 96.6537 130.37 95.3153C132.287 93.5754 133.551 91.4563 134.385 88.5788C136.099 82.7346 136.077 75.7527 134.34 69.1054Z" fill="white"/>
<path d="M88.4173 0.223218C86.6579 0.446281 83.1844 1.227 81.6055 1.74005C71.6586 5.04138 61.7568 15.1907 57.9674 25.9424C56.6818 29.6229 56.2532 32.032 56.0954 36.4487C55.8698 43.1852 56.7043 46.8657 59.5463 51.9292C60.2681 53.2007 60.5388 53.513 61.0575 53.5576C61.5312 53.6022 61.7342 53.513 61.8695 53.1115C61.9823 52.8215 62.0274 49.5425 61.9598 45.795C61.847 39.6161 61.8921 38.7462 62.3206 36.2925C63.1552 31.4744 65.2303 26.2101 67.5986 22.8418C70.3278 19.0051 75.2449 15.2354 77.5455 15.2354C78.538 15.2354 78.9214 14.2539 78.1771 13.607C76.5305 12.1348 70.9368 15.5476 66.9671 20.4327C65.4333 22.3288 62.9973 26.79 62.0274 29.4668C60.4485 33.8165 59.8621 37.7201 59.8395 43.8097L59.817 48.3602L59.2757 46.9995C57.4487 42.3375 57.3359 34.3073 59.0501 28.4853C60.3132 24.1356 62.0951 20.6558 65.0273 16.7299C68.2076 12.4917 72.0646 8.92268 76.2824 6.26823C82.1469 2.60999 89.748 1.16008 97.5973 2.16387C104.905 3.10073 109.619 5.21983 114.243 9.61417C118.98 14.0977 122.318 20.1204 124.98 28.8422C125.927 31.9428 125.949 32.1658 127.393 44.3451C128.092 50.3455 129.152 54.7175 131.994 63.3054C135.287 73.2764 135.896 77.7822 134.814 84.7418C134.092 89.4038 132.197 93.1736 129.491 95.315C128.16 96.3634 127.077 96.6757 124.1 96.8764C122.679 96.9657 121.078 97.211 120.536 97.3895C119.995 97.5902 119.07 97.8133 118.439 97.9025C117.108 98.081 117.063 97.9471 117.807 95.8057C118.258 94.512 118.258 94.3781 117.92 93.8651C117.424 93.1067 117.175 93.1513 115.732 94.1774C113.521 95.7388 113.409 95.6719 114.942 93.7535C117.401 90.6753 118.145 88.6231 116.792 88.6231C116.409 88.6231 116.025 89.0469 115.191 90.3184C113.318 93.1736 107.251 98.5717 106.597 97.9471C106.529 97.8802 106.755 96.1849 107.138 94.1774C108.559 86.5486 108.943 82.7788 109.123 74.4586C109.349 64.51 108.469 48.2041 107.274 40.3299C105.447 28.1507 103.011 21.035 98.2965 14.0085C96.5823 11.4433 94.4396 9.21266 93.7178 9.21266C93.199 9.21266 92.7479 9.63648 92.7479 10.1272C92.7479 10.328 93.2892 11.0418 93.9433 11.711C97.056 14.8338 100.327 20.6112 102.289 26.4777C102.74 27.8161 103.101 28.9984 103.101 29.1099C103.101 29.2214 102.357 28.3292 101.454 27.1246C97.9131 22.418 95.2741 19.7189 91.9359 17.3545C90.1315 16.083 84.9888 13.5401 83.3423 13.1163C81.1093 12.5363 80.3199 12.7147 80.3199 13.8301C80.3199 14.4323 80.7484 14.6554 82.6205 15.0123C83.3874 15.1684 85.2821 15.9269 87.2669 16.9083C92.2291 19.3397 94.823 21.5927 99.4017 27.3923C100.462 28.7307 101.793 30.5821 102.357 31.4967C102.92 32.4112 103.62 33.5265 103.913 33.9504C105.176 35.8464 106.687 49.2748 107.071 62.3017L107.228 67.1198L105.334 69.7743C102.808 73.2987 98.9732 77.113 95.9733 79.076C92.0036 81.6858 86.7482 83.8272 83.7032 84.0726C82.3273 84.1842 81.989 84.1395 80.3875 83.4703C77.1396 82.132 75.5607 81.1728 73.1247 79.0314C68.2978 74.7932 65.6363 71.1573 64.1025 66.7406C63.0424 63.6847 62.5236 60.8964 62.3883 57.7066C62.3206 55.989 62.1627 54.4945 62.05 54.3829C61.9372 54.2714 61.5989 54.2268 61.2831 54.316C60.3583 54.5391 60.1779 55.6544 60.4485 59.0449C60.9673 65.6476 63.3356 71.5365 67.3505 76.1539C69.3354 78.4514 73.5532 82.1766 75.3802 83.2473C77.9064 84.7418 81.6732 86.214 82.8235 86.1694C85.4625 86.0802 88.7781 85.0764 92.7479 83.1804C98.1161 80.5928 102.311 77.0238 106.913 71.068L107.409 70.4212L107.296 74.3248C107.071 81.9981 106.484 87.4632 105.266 93.3967C104.95 95.0027 104.612 96.8987 104.544 97.6795C104.409 98.9509 104.454 99.0848 104.995 99.6424C105.311 99.9547 105.785 100.222 106.01 100.222C106.71 100.222 108.311 99.5978 109.461 98.8617C110.116 98.4602 111.063 98.1033 111.897 97.9694C112.642 97.8579 113.724 97.5679 114.266 97.3226L115.258 96.8764L115.236 97.8579C115.213 98.6163 115.326 98.9509 115.709 99.3524C116.499 100.133 119.07 100.044 121.619 99.1294C123.288 98.5271 123.807 98.4379 125.679 98.4825C128.318 98.5271 129.378 98.1256 131.318 96.2965C135.062 92.7721 136.821 88.0654 137.114 80.7936C137.34 74.9047 136.618 70.9119 133.799 62.5247C130.438 52.5092 130.055 50.6355 128.408 36.0918C127.934 31.8312 127.055 28.5076 125.002 23.1095C121.732 14.4769 116.589 7.89659 110.251 4.19374C105.334 1.31623 99.8303 0.0224602 92.7253 0.0893791C90.763 0.111685 88.7781 0.178606 88.4173 0.223218Z" fill="black"/>
<path d="M91.8006 3.41346C87.9436 4.21649 84.8761 5.55487 81.3574 7.94164C79.2147 9.39155 78.538 10.663 79.6658 11.0868C80.0492 11.2207 80.2973 11.0868 82.9138 9.30232C87.5827 6.13483 91.4397 4.90798 96.65 4.90798C99.695 4.90798 101.973 5.28719 104.59 6.22405C106.484 6.89324 107.544 6.87093 107.657 6.11252C107.77 5.30949 107.341 5.01951 105.086 4.2834C100.665 2.92272 95.7929 2.58813 91.8006 3.41346Z" fill="black"/>
<path d="M118.732 51.0371C118.484 51.327 118.484 51.7286 118.799 53.3346C119.747 58.2197 119.95 60.7626 119.95 66.763C119.95 73.0757 119.972 72.7411 118.393 80.1245C117.762 83.1358 117.739 83.6712 118.326 84.0281C119.048 84.4742 119.589 83.5596 120.311 80.6821C121.754 74.9494 121.98 72.9864 121.98 66.763C121.98 62.7256 121.867 60.2496 121.596 58.2197C121.19 55.2306 120.469 51.8401 120.085 51.1263C119.814 50.6132 119.138 50.5686 118.732 51.0371Z" fill="black"/>
<path d="M129.649 71.9822C129.31 72.8522 130.145 73.7667 130.867 73.3206C131.724 72.7852 131.34 71.6699 130.303 71.6699C130.032 71.6699 129.716 71.8261 129.649 71.9822Z" fill="black"/>
<path d="M130.167 75.663C129.964 75.8861 129.806 76.3991 129.806 76.8229C129.806 77.8713 128.972 82.868 128.521 84.4963C128.025 86.3031 127.303 87.9092 126.446 89.0691C125.634 90.1621 125.589 90.4521 126.085 90.9428C126.581 91.4336 126.716 91.4113 127.551 90.7198C129.22 89.3368 130.393 86.2808 131.273 81.1281C131.972 76.9791 131.994 76.0422 131.34 75.5961C130.709 75.1723 130.618 75.1723 130.167 75.663Z" fill="black"/>
<path d="M89.2068 36.56C88.0339 36.9169 87.1091 37.7646 87.2896 38.2999C87.5151 38.8799 87.9662 38.9022 88.891 38.3892C89.5902 38.0099 90.1541 37.8984 91.5976 37.8984C93.2216 37.8984 93.5825 37.9876 94.8456 38.6345C95.9283 39.1922 96.3343 39.3037 96.5824 39.103C97.3944 38.4338 96.3342 37.3184 94.2366 36.6939C92.5449 36.1362 90.6729 36.0916 89.2068 36.56Z" fill="black"/>
<path d="M67.1926 37.3187C65.1626 37.9656 64.1025 39.0586 64.9145 39.7278C65.1626 39.9286 65.5686 39.817 66.6513 39.2594C67.9144 38.6125 68.2753 38.5233 69.8993 38.5233C71.3428 38.5233 71.9067 38.6348 72.6059 39.014C73.5307 39.5271 73.9818 39.5047 74.1848 38.9248C74.3878 38.3671 73.463 37.5418 72.1999 37.1626C70.6887 36.7611 68.8617 36.8057 67.1926 37.3187Z" fill="black"/>
<path d="M90.8082 47.2005C89.7707 48.2936 89.9737 50.2342 91.1917 50.658C92.0488 50.948 93.1766 50.4573 93.3796 49.6988C93.9209 47.5797 92.1164 45.8399 90.8082 47.2005Z" fill="black"/>
<path d="M68.7039 47.7576C68.1626 48.1814 67.8694 49.4752 68.0949 50.3674C68.2979 51.1259 69.4257 51.6389 70.2828 51.3266C71.5008 50.9028 71.7038 48.9622 70.6662 47.8691C70.0798 47.2669 69.358 47.2223 68.7039 47.7576Z" fill="black"/>
<path d="M76.4855 53.9593C76.3051 54.1378 76.0344 54.7178 75.8765 55.2308C75.7412 55.7439 75.2224 57.573 74.7262 59.2682C74.2525 60.9635 73.8466 62.5473 73.8466 62.7703C73.8466 63.3949 75.4705 64.9786 76.1246 64.9786C77.275 64.9786 77.5682 64.0418 76.666 63.1941C76.3502 62.9042 76.1021 62.458 76.1021 62.1904C76.1021 61.9227 76.5081 60.2274 77.0043 58.4429C78.0193 54.7401 78.0869 54.1601 77.478 53.8478C76.9366 53.5578 76.8915 53.5578 76.4855 53.9593Z" fill="black"/>
<path d="M83.3424 71.4475C81.7184 72.2951 80.2072 72.3397 78.7411 71.559C77.3426 70.8229 76.6209 70.8229 76.4404 71.559C75.9893 73.3435 80.4327 74.8157 83.1168 73.7673C85.3949 72.8751 86.4325 71.849 85.8009 71.0906C85.3949 70.6221 84.7408 70.7114 83.3424 71.4475Z" fill="black"/>
<path d="M58.6892 125.406C58.644 124.559 58.5764 124.514 57.7193 124.336C56.9298 124.18 56.5238 124.269 54.9901 124.893C53.1856 125.652 51.4489 126.7 50.885 127.369C50.7271 127.57 50.5015 127.726 50.4113 127.726C50.1632 127.726 49.3738 124.09 49.058 121.592C48.9227 120.477 48.5618 118.491 48.2686 117.131C47.9077 115.502 47.6821 113.539 47.5919 111.331C47.5017 109.48 47.2987 106.981 47.1182 105.755C46.5318 101.784 45.0206 97.0551 43.7349 95.0921C43.2387 94.356 43.0808 94.2668 42.2237 94.2891C41.7049 94.3114 41.141 94.356 40.9606 94.4229C40.4869 94.6014 40.6448 96.1851 41.5922 100.736C42.968 107.249 43.171 108.788 43.2838 112.669C43.374 115.614 43.4417 116.283 43.78 116.64C44.3665 117.287 43.7575 117.599 42.0433 117.488C41.5471 117.465 40.8704 117.644 40.1937 118.023C39.1111 118.625 38.863 119.138 39.4043 119.696C39.6298 119.941 39.4043 119.964 38.0735 119.852C36.6074 119.718 36.3368 119.763 35.006 120.365C34.2165 120.722 33.4722 121.213 33.382 121.436C33.1113 122.083 32.6151 124.291 32.7053 124.38C32.7504 124.425 32.1189 124.938 31.2843 125.518C29.4348 126.812 29.119 127.146 29.2769 127.793C29.3897 128.217 29.1867 128.462 28.0589 129.265L26.7056 130.225L26.8409 132.946C26.9086 134.44 27.0665 136.515 27.2018 137.563C27.8334 143.14 27.9461 151.059 27.3822 151.75C27.2695 151.884 26.48 154.048 25.6229 156.546C24.7658 159.044 23.4802 162.301 22.7809 163.773C22.0817 165.245 21.2021 167.097 20.8412 167.878C20.2096 169.238 20.1645 169.283 19.7811 168.948C19.6457 168.814 19.4653 168.725 19.3074 168.658C18.9691 169.952 18.6082 171.224 18.3826 172.517C17.706 178.986 22.6682 183.447 28.5326 184.786C34.397 185.901 40.7125 181.217 40.9381 175.863C41.0057 173.9 41.1636 171.915 41.4794 169.997L41.1185 169.818L40.6899 170.354C40.4418 170.644 40.2614 170.8 40.2388 170.688C40.2388 170.577 40.2388 169.127 40.2388 167.476C40.2614 163.996 40.8253 159.758 41.8403 155.542C42.2237 153.936 42.6071 152.241 42.6974 151.75C42.9455 150.412 43.6898 149.185 44.795 148.27C46.4641 146.887 48.7873 142.493 49.4866 139.37C49.8926 137.586 50.2309 136.894 51.6293 135.043C52.306 134.15 52.8699 133.303 52.8699 133.191C52.8699 133.08 53.2759 132.678 53.7495 132.366C54.8096 131.652 57.2456 128.842 58.1253 127.369C58.5764 126.566 58.7343 126.031 58.6892 125.406Z" fill="white"/>
<path d="M28.5326 184.764C22.6682 183.425 17.706 178.964 18.3827 172.495C18.6082 171.201 18.9691 169.93 19.3075 168.636C18.6985 168.413 17.9541 168.614 17.4128 169.172C16.4429 170.175 15.473 172.495 15.3377 174.124C15.27 174.927 15.1121 175.93 14.9994 176.354C14.661 177.514 14.7287 182.667 15.1121 185.299C16.1046 191.924 17.5256 195.605 19.5781 196.854C21.5179 198.036 23.6606 198.237 26.8635 197.567C29.5025 197.01 31.0363 196.474 33.8331 195.136C38.3668 192.995 39.6299 191.969 42.4042 188.177C44.2537 185.634 46.8025 180.927 46.8025 180.012C46.8025 179.7 46.8702 179.678 47.0732 179.879C47.5243 180.325 48.1333 180.191 48.4265 179.589C48.6521 179.12 48.5844 178.83 47.9303 177.626C46.2161 174.391 43.5094 171.023 41.9531 170.22L41.4794 169.975C41.1862 171.893 41.0283 173.878 40.9381 175.841C40.7125 181.195 34.397 185.879 28.5326 184.764Z" fill="white"/>
<path d="M40.5998 92.6824C39.1337 93.3739 38.7954 93.887 38.8405 95.4038C38.8631 96.1176 39.3818 99.2182 39.9908 102.252C41.5697 110.037 41.9983 115.703 40.9833 115.703C40.4419 115.703 38.5924 116.729 38.006 117.353C37.6676 117.71 37.2165 117.933 36.8331 117.933C35.7504 117.933 33.0212 119.071 32.2318 119.852C31.6679 120.409 31.3972 120.967 31.104 122.216C30.3146 125.584 30.4048 126.633 31.4423 126.633C32.0964 126.633 32.3671 126.097 32.8408 123.911C33.0889 122.774 33.4272 121.636 33.5851 121.368C33.9009 120.878 36.1113 119.941 36.9684 119.941C37.397 119.941 37.7804 120.454 39.2014 122.841C40.1487 124.447 41.096 125.807 41.299 125.897C41.7727 126.075 42.3592 125.696 42.4494 125.138C42.517 124.692 41.5697 122.796 40.0359 120.275L39.1563 118.848L39.9232 118.379C41.2539 117.554 41.9306 117.465 42.4494 118C44.2313 119.918 47.0056 128.573 47.0056 132.187C47.0056 133.949 46.6898 134.685 45.1109 136.514C44.4117 137.317 43.8478 138.143 43.8478 138.321C43.8478 138.522 44.0508 138.79 44.3215 138.99C44.9756 139.459 45.5169 139.146 46.8702 137.585C48.4266 135.778 48.9228 134.641 49.013 132.655C49.0581 131.607 49.2611 130.648 49.5318 130.09C49.7573 129.599 49.9603 129.064 49.9603 128.93C49.9603 128.506 52.058 126.521 53.1632 125.919C54.5616 125.138 56.5916 124.402 57.2908 124.402C57.6743 124.402 57.9449 124.603 58.1254 124.96C58.3509 125.45 58.3058 125.673 57.8322 126.521C57.4036 127.302 57.3359 127.592 57.5389 127.904C57.9224 128.506 58.5088 128.506 59.1404 127.926C60.4035 126.744 60.6516 125.428 59.8847 123.934C58.8923 122.015 56.9299 121.904 53.4113 123.577C51.6745 124.402 51.3137 124.514 51.3137 124.201C51.3137 123.264 50.637 118.937 50.2084 117.063C49.9378 115.926 49.7348 114.275 49.7348 113.338C49.7348 111.041 49.1258 105.754 48.5619 103.189C47.5469 98.5267 45.5846 93.8201 44.2989 92.9055C43.3516 92.2586 41.705 92.1471 40.5998 92.6824ZM42.9682 94.5116C43.8253 94.9577 45.4718 98.839 46.4868 102.743C47.0281 104.884 47.4792 108.498 47.6146 112.134C47.7048 114.253 47.9303 116.171 48.2912 117.71C48.5844 119.004 48.9228 121.145 49.0807 122.506C49.216 123.867 49.419 125.183 49.5318 125.473C49.7122 125.919 49.6445 126.12 49.0807 126.766C48.6521 127.257 48.3815 127.436 48.3138 127.235C46.78 122.015 45.3139 118.312 44.1862 116.885L43.4193 115.903V113.16C43.4193 109.702 43.1712 107.717 42.0434 102.296C41.5472 99.9097 41.0735 97.2106 41.0058 96.3184C40.8705 94.7569 40.893 94.69 41.4118 94.4892C42.1336 94.2439 42.4268 94.2216 42.9682 94.5116Z" fill="black"/>
<path d="M34.2843 126.164C33.9008 126.588 33.9008 126.677 34.3519 127.859C34.6226 128.551 34.8031 129.153 34.7805 129.175C34.758 129.198 34.4196 128.774 34.0362 128.261C33.2918 127.19 32.9535 126.967 32.322 127.168C31.4874 127.435 31.5551 128.149 32.5926 129.599C34.9384 132.878 38.6375 138.432 38.7728 138.856C38.8856 139.191 38.4796 140.195 37.4195 142.269C36.6075 143.875 35.9759 145.325 36.0436 145.459C36.1789 145.816 34.3745 146.106 34.0362 145.771C33.9234 145.66 33.8106 144.767 33.8106 143.831C33.8106 142.492 33.9234 141.912 34.3294 141.154C35.1414 139.615 35.0963 139.459 32.1415 135.376C30.2018 132.677 29.7506 132.187 29.277 132.187C28.8935 132.187 28.2845 132.834 28.2845 133.257C28.2845 133.458 29.277 134.975 30.495 136.626L32.7054 139.615L32.2769 140.752C31.7355 142.158 31.5325 144.723 31.8483 145.905C32.1641 147.087 33.2242 148.091 34.1264 148.091C34.9158 148.091 35.9308 147.444 36.2692 146.73C36.3819 146.485 36.6977 146.217 36.9684 146.15C37.7804 145.95 40.893 140.529 40.893 139.302C40.893 138.745 40.9607 138.678 41.2765 138.856C41.8403 139.169 42.4493 138.789 43.5095 137.473C44.7726 135.912 45.1785 135.064 45.1785 134.016C45.1785 132.923 43.4869 127.079 43.0583 126.632C42.8553 126.432 42.5396 126.365 42.1561 126.454C41.3667 126.655 41.3892 127.302 42.3591 130.648C43.4418 134.373 43.4418 134.417 41.6373 136.536C41.2313 137.005 40.893 137.54 40.893 137.696C40.893 137.852 40.7802 137.986 40.6675 137.986C40.5321 137.986 40.4419 137.919 40.4419 137.808C40.4419 137.696 39.5397 136.291 38.4119 134.618C36.5398 131.852 36.4045 131.607 36.833 131.428C37.5774 131.094 37.5548 130.536 36.6977 128.372C35.6827 125.696 35.1414 125.227 34.2843 126.164Z" fill="black"/>
<path d="M29.0965 126.32C27.9462 126.922 26.1643 128.305 25.4877 129.108L24.8561 129.844L25.014 132.833C25.1042 134.484 25.3298 137.54 25.5102 139.637C25.6907 141.734 25.8485 144.879 25.8485 146.641V149.831L24.4727 154.18C23.0066 158.798 22.4878 160.136 20.7059 163.861C19.6684 166.025 19.5105 166.248 18.518 166.739C16.6685 167.676 14.5483 170.843 13.6235 174.011C13.1498 175.617 13.1047 176.241 13.1047 180.256C13.1047 185.298 13.601 188.822 14.8189 192.503C15.9693 196.005 17.3226 197.767 19.7135 198.927C21.1345 199.618 21.3149 199.663 23.796 199.641C25.8937 199.641 26.8184 199.507 28.6003 199.038C32.2543 198.035 36.8781 195.915 39.3592 194.086C42.2463 191.967 45.562 187.484 47.6596 182.844C49.3513 179.097 49.5769 177.847 48.5844 177.736C47.8401 177.647 47.6145 177.981 45.8778 181.863C43.7124 186.681 40.4419 190.986 37.3744 193.06C35.0512 194.622 30.9235 196.451 27.9236 197.254C25.7358 197.834 21.7435 197.834 20.548 197.232C17.909 195.938 16.3527 192.614 15.3152 185.967C14.7513 182.465 14.8189 177.223 15.4279 174.948C15.8339 173.431 17.3903 170.174 17.5933 170.397C17.6384 170.442 17.5256 171.111 17.3452 171.914C16.6685 175.081 17.8414 177.87 21.2924 181.305C23.0291 183.022 23.796 183.625 25.2621 184.339C28.6905 186.034 31.713 186.078 35.006 184.517C36.9684 183.58 39.472 181.305 40.3968 179.565L41.0734 178.316L41.3667 180.413C41.5246 181.55 41.7501 182.688 41.8629 182.911C42.1787 183.491 43.1485 183.402 43.4418 182.755C43.735 182.108 43.1937 178.16 42.4719 175.751C42.0884 174.501 42.0208 173.609 42.0433 170.241C42.0659 163.995 42.6298 159.779 44.2989 153.154L44.953 150.567L46.5093 149.005C48.5167 146.998 50.5467 143.117 51.3136 139.882C51.8098 137.763 51.8324 137.718 54.6067 133.926C56.7269 131.049 57.381 129.978 57.3359 129.532C57.2908 129.064 57.1555 128.974 56.6141 128.974C56.0277 128.974 55.6443 129.376 53.0729 132.766C50.1182 136.625 49.8475 137.116 49.1934 139.904C48.7648 141.667 47.4566 144.544 46.2161 146.373C44.9981 148.202 44.1184 148.738 42.0659 148.983C39.9231 149.228 38.1187 149.741 37.7578 150.165C37.3969 150.611 37.645 151.548 38.1864 151.704C38.4119 151.771 38.9984 151.682 39.472 151.526C39.9682 151.348 40.893 151.147 41.5697 151.058C42.7651 150.901 42.7877 150.901 42.6298 151.437C42.2238 152.909 40.8479 159.512 40.5321 161.408C40.3517 162.59 40.1036 166.248 39.9908 169.572C39.878 172.895 39.675 175.996 39.5171 176.487C38.3217 180.502 34.2392 183.714 30.2694 183.736C29.0063 183.736 26.9086 183.112 25.5779 182.353C23.6607 181.238 21.0668 178.561 20.0518 176.643C19.3075 175.26 19.1721 174.769 19.1721 173.632C19.1721 171.869 19.6458 170.576 22.172 165.244C23.4351 162.568 24.7884 159.266 25.6907 156.656C26.4801 154.314 27.247 152.217 27.4049 151.972C27.856 151.258 27.9011 145.503 27.4951 140.707C26.9538 134.06 26.8184 130.781 27.044 130.357C27.1568 130.157 28.0139 129.443 28.9386 128.796C30.7205 127.547 31.1265 126.833 30.3596 126.275C29.9311 125.874 29.9311 125.874 29.0965 126.32Z" fill="black"/>
<path d="M78.6958 143.139C78.6733 143.117 78.6507 143.117 78.6282 143.094C77.8162 142.604 77.5004 142.247 77.5004 141.89C77.5004 141.622 77.3651 141.109 77.1846 140.752C76.6884 139.749 72.7638 129.443 70.012 121.926C67.2151 114.319 66.4257 112.468 65.6814 111.977C65.3205 111.732 63.719 111.531 60.3357 111.263C55.1931 110.884 53.5014 110.951 46.5318 111.843C44.1635 112.156 43.5996 112.156 43.3966 111.933C43.1034 111.576 42.0207 111.553 41.6824 111.91C41.299 112.29 41.3441 113.762 41.7726 114.609C41.9756 115.011 42.4718 115.747 42.9004 116.26C43.3289 116.773 43.6673 117.375 43.6673 117.598C43.6673 117.821 44.6146 120.721 45.7649 124.023C46.3288 125.629 46.8476 127.101 47.2085 128.194C50.6143 131.518 53.7044 134.997 58.0802 136.759C65.0724 139.882 72.7412 141.221 79.7334 144.344C79.1921 144.031 78.8763 143.608 78.6958 143.139Z" fill="#8FB83B"/>
<path d="M105.672 176.711L105.176 177.224L103.823 175.729C102.176 173.922 93.5372 163.26 91.3043 160.293C89.5675 157.996 88.7781 156.59 88.8006 155.921C88.8232 155.698 88.5525 154.694 88.2142 153.713C87.8758 152.731 87.2443 150.523 86.8157 148.806C86.0714 145.861 84.673 142.448 84.2219 142.448C84.1091 142.448 84.0189 142.359 84.0189 142.225C84.0189 142.114 83.5903 141.311 83.0715 140.485C81.6506 138.188 79.8461 134.529 79.0792 132.366C77.974 129.221 77.4552 128.15 77.0718 128.217C76.5756 128.306 75.4704 130.381 75.4704 131.273C75.4704 131.741 76.2824 134.15 77.568 137.407C79.801 143.073 80.0491 143.787 79.8687 143.787C79.801 143.787 79.2822 143.497 78.6958 143.14C78.8762 143.608 79.192 144.032 79.7333 144.389C72.7412 141.266 65.0723 139.928 58.0802 136.805C53.7044 135.043 50.6143 131.54 47.2084 128.239C47.5919 129.399 47.84 130.113 47.8174 130.135C47.7949 130.157 47.1859 129.934 46.4867 129.622C45.7875 129.31 44.998 129.064 44.7499 129.064C44.5018 129.064 44.1409 128.908 43.9605 128.73C43.5319 128.306 43.374 128.306 42.6974 128.841C41.5245 129.734 41.8854 131.63 43.4868 133.035C43.9379 133.436 44.4567 134.106 44.6597 134.574L45.0206 135.422L44.5018 134.931C44.2086 134.663 43.8477 134.44 43.6898 134.44C43.2387 134.44 43.3966 135.622 43.983 136.626C44.5695 137.63 47.5242 141.4 49.5091 143.697C50.1407 144.433 50.885 145.437 51.1331 145.928C51.3812 146.419 51.9676 147.333 52.4188 147.936L53.2307 149.051L52.103 148.292C51.4714 147.869 50.3888 146.954 49.667 146.24C48.3813 144.969 47.9302 144.701 47.9302 145.236C47.9302 146.151 49.1708 147.356 55.757 152.821C57.6516 154.382 59.2079 155.765 59.2079 155.854C59.2079 156.144 58.6891 156.546 58.3283 156.546C58.1478 156.546 57.6065 156.278 57.1328 155.966C56.2081 155.341 55.9148 155.364 56.1629 156.077C56.3885 156.747 59.9523 160.226 61.1251 160.918C61.689 161.252 63.9446 162.189 66.155 163.015C71.7487 165.134 75.6057 166.74 76.3951 167.32C76.9365 167.721 77.0492 167.944 76.9816 168.435C76.8914 168.97 76.959 169.082 77.5229 169.193C78.5379 169.394 84.6504 176.956 88.9585 183.313C89.4998 184.116 90.0186 184.808 90.1314 184.875C90.2216 184.919 89.9284 185.388 89.4773 185.968C89.6126 186.012 89.7479 186.079 89.8833 186.124C93.2666 187.685 96.6499 184.339 99.8077 182.555C100.935 181.886 102.289 181.663 103.642 180.77C105.041 179.834 105.807 178.272 105.83 176.577C105.762 176.599 105.717 176.666 105.672 176.711Z" fill="white"/>
<path d="M140.092 121.368C138.265 116.907 136.438 114.074 133.167 110.706C132.242 109.747 131.611 108.899 131.566 108.542C131.521 108.118 131.34 107.962 130.889 107.918C130.37 107.851 130.212 107.985 129.851 108.698C128.814 110.728 121.461 127.971 121.461 128.373C121.461 128.618 121.664 128.952 121.889 129.109C122.295 129.399 122.318 129.555 122.002 133.325C120.807 148.047 120.062 154.493 118.281 164.955C117.401 170.175 117.085 171.602 116.724 171.981C116.476 172.249 116.138 172.807 115.957 173.253C115.664 173.944 115.664 174.212 115.935 175.26C116.115 175.93 116.273 176.799 116.273 177.201C116.273 178.16 115.01 181.35 114.333 182.108L113.792 182.711L110.973 179.878C109.303 178.205 108.198 176.911 108.266 176.733C108.334 176.576 108.198 176.242 107.95 176.019C107.567 175.662 107.409 175.64 106.845 175.885C106.552 176.019 106.123 176.286 105.853 176.532C105.83 178.227 105.063 179.811 103.665 180.725C102.311 181.618 100.958 181.841 99.8302 182.51C96.6725 184.294 93.2891 187.64 89.9058 186.079C89.7705 186.012 89.6352 185.967 89.4998 185.923C89.3871 186.079 89.2517 186.235 89.1164 186.391C88.4397 187.172 87.6729 188.265 87.4022 188.756C86.9511 189.648 86.9511 189.737 87.312 190.496C87.9435 191.812 89.1841 192.548 89.7931 191.945C89.9284 191.812 90.5825 192.258 91.5975 193.195C95.7477 197.076 102.785 201.76 108.153 204.259C113.093 206.556 118.777 208.229 121.551 208.229C123.491 208.229 124.416 207.828 125.408 206.511C125.949 205.82 126.085 205.753 126.784 205.887C127.641 206.043 127.709 205.909 127.303 204.772C127.1 204.169 127.19 203.701 127.957 201.314C128.453 199.775 129.671 195.291 130.686 191.276C131.678 187.283 133.483 180.614 134.678 176.443C139.347 160.092 142.46 143.63 142.46 135.154C142.437 130.447 141.468 124.737 140.092 121.368Z" fill="white"/>
<path d="M129.649 107.07C129.378 107.74 129.716 108.23 131.318 109.435C132.22 110.104 133.528 111.331 134.205 112.112C139.934 118.759 142.167 125.228 142.167 135.199C142.167 144.411 139.483 158.91 134.588 176.131C133.415 180.235 131.588 187.016 130.551 191.188C129.491 195.359 128.228 200.021 127.731 201.538C127.235 203.054 126.874 204.437 126.942 204.616C127.122 205.107 128.137 204.995 128.521 204.437C129.197 203.478 130.19 200.556 131.115 196.786C133.483 187.195 134.227 184.406 136.302 177.045C138.783 168.301 139.866 163.929 141.49 155.854C143.588 145.46 144.332 139.08 144.129 133.459C143.746 123.265 140.813 116.038 134.385 109.546C132.107 107.182 130.032 106.134 129.649 107.07Z" fill="black"/>
<path d="M52.103 109.368C50.6143 109.479 44.7725 110.126 43.1936 110.349C41.4568 110.595 40.5997 111.13 40.5997 112.022C40.5997 112.937 41.2087 113.227 42.1109 112.758C42.5169 112.535 43.8477 112.268 45.0657 112.134C46.2837 112 47.9302 111.799 48.7648 111.688C53.118 111.041 63.8318 111.264 65.3204 112.045C66.2903 112.535 66.9219 113.941 70.1473 122.729C71.7262 127.035 74.0268 133.124 75.2674 136.314C76.5079 139.481 77.4778 142.114 77.4327 142.158C77.3876 142.18 76.1922 141.757 74.7712 141.221C72.4028 140.329 66.7866 138.478 60.8545 136.671C58.2832 135.89 57.2907 135.288 53.9074 132.455C51.9225 130.782 49.7572 129.287 47.9528 128.306C47.2085 127.904 47.0957 127.659 44.8401 121.101C43.5545 117.376 42.3816 114.186 42.2463 114.008C41.8854 113.584 40.9832 113.673 40.7125 114.164C40.5321 114.498 40.9155 115.792 42.6974 120.789L44.9078 126.99L43.6222 127.101C42.0433 127.235 41.5245 127.592 41.6373 128.507C41.7275 129.399 42.2914 129.734 43.0357 129.354C44.6371 128.507 48.3814 130.403 53.321 134.596C56.2081 137.05 57.4035 137.742 59.9297 138.478C63.4935 139.526 72.5833 142.56 75.1997 143.563C76.7109 144.143 78.0191 144.835 78.786 145.437C79.4627 145.973 80.2747 146.575 80.6356 146.798C81.2446 147.177 81.2897 147.177 81.7182 146.731C82.1468 146.307 82.1468 146.218 81.8761 145.66C81.6957 145.326 81.1995 144.723 80.7483 144.322C80.2972 143.92 79.9364 143.497 79.9364 143.363C79.9364 143.229 78.9665 140.664 77.7485 137.608C76.4628 134.329 75.5832 131.808 75.6057 131.384C75.6283 130.604 76.3275 129.109 76.8688 128.663C77.3425 128.261 77.7034 128.864 78.7184 131.763C79.7559 134.708 81.2897 137.875 83.2294 141.021C85.5075 144.701 85.7782 145.37 86.7255 149.029C87.1992 150.88 87.8533 153.155 88.1691 154.047C88.4849 154.962 88.7555 155.899 88.7555 156.144C88.7555 156.903 89.8833 158.754 92.0712 161.609C94.9131 165.312 101.612 173.588 103.507 175.707L104.995 177.38L103.845 178.451C102.379 179.811 99.1987 181.886 96.3792 183.313C94.1463 184.451 91.4622 185.522 90.9208 185.522C90.7629 185.522 89.7254 184.183 88.6427 182.555C87.5601 180.927 85.8233 178.495 84.8083 177.134C82.8686 174.547 78.583 169.372 78.177 169.127C77.771 168.881 77.0718 169.193 76.9139 169.684C76.7335 170.242 77.0718 170.777 79.1695 173.231C82.034 176.577 83.1843 178.116 86.4097 182.8L89.5675 187.395L90.6276 187.462C92.432 187.574 97.4845 185.254 102.266 182.086C104.747 180.436 107.499 178.071 107.499 177.558C107.499 177.38 106.665 176.354 105.672 175.283C100.417 169.64 91.0336 157.661 91.0336 156.59C91.0336 156.412 90.6276 155.074 90.154 153.624C89.6803 152.174 89.0036 149.787 88.6653 148.337C87.8758 144.857 87.5826 144.188 85.3948 140.641C83.0941 136.916 81.8084 134.329 80.6581 131.117C79.5529 128.038 79.2371 127.436 78.4703 126.834C77.4553 126.053 76.4403 126.209 75.2674 127.369C74.7035 127.927 74.2298 128.351 74.1847 128.328C74.1622 128.306 72.9893 125.049 71.5909 121.123C69.0647 113.985 67.9594 111.42 67.1474 110.706C66.8993 110.506 66.2903 110.171 65.749 109.992C64.2378 109.479 55.757 109.078 52.103 109.368Z" fill="black"/>
<path d="M120.581 127.325C120.468 127.615 120.333 129.265 120.243 131.005C120.062 134.82 119.341 144.032 118.844 148.471C117.92 157.014 115.551 170.599 114.897 171.335C114.333 171.937 113.792 173.298 113.792 174.079C113.792 174.413 113.927 175.261 114.108 175.953C114.424 177.112 114.401 177.291 113.972 178.562C113.724 179.321 113.431 179.923 113.341 179.923C113.07 179.923 110.386 176.889 109.281 175.35C108.266 173.923 107.815 173.61 107.183 173.945C106.033 174.547 107.251 176.443 111.852 181.194C115.168 184.63 121.957 190.853 122.543 191.009C123.13 191.165 123.716 190.742 123.716 190.184C123.716 189.961 122.318 188.533 120.491 186.883C118.732 185.299 116.747 183.447 116.115 182.801L114.942 181.596L115.754 179.522L116.544 177.447L116.138 175.663C115.709 173.744 115.754 173.499 116.724 172.272C117.108 171.804 117.401 170.621 118.078 166.584C119.927 155.676 120.671 149.988 121.551 139.638C122.25 131.384 122.363 127.726 121.912 127.191C121.483 126.7 120.784 126.745 120.581 127.325Z" fill="black"/>
<path d="M41.5696 131.295C41.0509 131.719 41.0509 131.741 41.3892 132.366C41.6599 132.834 41.6824 133.191 41.5245 133.771C41.0734 135.511 41.8854 137.273 44.7274 140.775C45.9679 142.292 45.9905 142.337 45.9003 143.586C45.7649 145.928 46.0807 146.575 48.5393 148.939C50.276 150.612 50.885 151.371 51.4264 152.508C52.8248 155.475 58.2381 161.52 60.6515 162.814C61.2605 163.149 63.2679 163.952 65.14 164.621C66.9896 165.29 70.1022 166.494 72.0194 167.298C73.9366 168.101 75.7185 168.814 75.9892 168.881C76.4854 169.015 77.2072 168.569 77.2072 168.101C77.2072 167.32 73.9366 165.758 66.0423 162.836C63.8995 162.033 61.6891 161.052 61.0124 160.606C59.8621 159.825 55.554 155.52 55.554 155.141C55.554 155.051 56.0051 155.297 56.569 155.743C57.8546 156.724 58.4411 156.903 58.8696 156.457C59.5237 155.81 58.9599 155.118 55.7344 152.508C52.0353 149.452 48.2235 145.883 48.043 145.214C47.9528 144.902 48.5393 145.326 49.667 146.441C51.2008 147.936 52.0579 148.493 56.366 150.925C61.9372 154.048 63.0198 154.538 63.5837 154.07C64.0123 153.713 64.0348 153.066 63.6514 152.754C63.4935 152.642 62.1627 151.862 60.6741 151.036C55.1029 147.958 52.509 146.352 51.2234 145.125C50.0505 144.032 45.6522 138.79 44.3891 136.983C43.9605 136.359 43.3515 134.641 43.5094 134.485C43.6222 134.373 48.2009 138.188 50.7948 140.53C53.0503 142.56 53.2308 142.671 58.2606 145.103C61.1026 146.463 64.125 148.025 64.9821 148.56C67.1475 149.899 67.6888 150.077 68.1399 149.653C68.6361 149.162 68.5685 148.85 67.7565 148.092C66.7415 147.133 64.6889 145.995 59.0501 143.251C54.6518 141.11 54.0879 140.753 52.2835 139.147C49.8475 136.961 43.1034 131.362 42.5395 131.05C42.2012 130.916 41.9756 130.961 41.5696 131.295Z" fill="black"/>
<path d="M121.483 179.61C119.341 180.011 117.424 180.457 117.243 180.614C116.792 180.993 116.837 181.573 117.356 182.019C117.762 182.376 117.897 182.376 119.995 181.93C123.762 181.127 125.814 180.569 126.13 180.279C126.513 179.922 126.288 179.119 125.769 178.985C125.566 178.918 123.626 179.208 121.483 179.61Z" fill="black"/>
<path d="M87.8758 190.808C87.5149 191.477 88.4848 192.771 90.9659 194.935C98.319 201.359 106.101 205.954 113.837 208.43C119.453 210.237 122.431 210.527 124.664 209.523C126.716 208.586 128.024 206.4 126.874 205.798C126.265 205.485 126.265 205.485 125.115 206.668C123.694 208.118 122.701 208.385 120.175 208.051C111.694 206.891 99.4242 200.355 91.5524 192.815C89.0036 190.384 88.3044 190.005 87.8758 190.808Z" fill="black"/>
<path d="M108.537 241.331C108.537 242.001 107.995 242.536 107.319 242.536C106.642 242.536 106.101 242.001 106.101 241.331C106.101 240.662 106.642 240.127 107.319 240.127C107.995 240.127 108.537 240.662 108.537 241.331Z" fill="#95C036"/>
<path d="M104.612 238.543C104.612 239.213 104.071 239.748 103.394 239.748C102.717 239.748 102.176 239.213 102.176 238.543C102.176 237.874 102.717 237.339 103.394 237.339C104.071 237.339 104.612 237.874 104.612 238.543Z" fill="#95C036"/>
</g>
<defs>
<clipPath id="clip0">
<rect width="173" height="250" fill="white"/>
</clipPath>
</defs>
</svg>
