<svg width="65" height="65" viewBox="0 0 65 65" fill="none" xmlns="http://www.w3.org/2000/svg">
<circle cx="32.1278" cy="32.128" r="32" transform="rotate(0.229651 32.1278 32.128)" fill="#D5C6FF"/>
<path d="M24.8414 37.5181H25.2902C27.6276 37.5181 29.5224 39.4129 29.5224 41.7502V42.2241C29.5224 43.2811 28.6655 44.1381 27.6085 44.1381H26.9794C26.494 44.1381 26.0267 44.3226 25.6722 44.6541C25.6722 44.6541 25.6722 44.6541 25.6722 44.6541C25.3176 44.9857 24.8504 45.1702 24.365 45.1702H21.463C20.9776 45.1702 20.5103 44.9857 20.1558 44.6541L20.1453 44.6444C19.797 44.3187 19.3396 44.1347 18.8628 44.1284L18.2011 44.1199C17.1539 44.1064 16.312 43.2535 16.312 42.2062V41.7502C16.312 39.4129 18.2068 37.5181 20.5442 37.5181H20.9872" stroke="#080212" stroke-linecap="round" stroke-linejoin="round"/>
<path d="M24.8432 35.4707V37.4585C24.8432 38.5237 23.9797 39.3872 22.9145 39.3872C21.8494 39.3872 20.9858 38.5237 20.9858 37.4585V35.4707" stroke="#080212" stroke-linecap="round" stroke-linejoin="round"/>
<path d="M24.8428 41.3752H26.7715" stroke="#080212" stroke-linecap="round" stroke-linejoin="round"/>
<path d="M29.7917 28.8389C29.7917 29.0117 29.7853 29.1832 29.7728 29.3529C29.5099 32.9094 26.541 35.7133 22.9173 35.7133C19.1206 35.7133 16.043 32.6355 16.043 28.8389" stroke="#080212" stroke-linecap="round" stroke-linejoin="round"/>
<path d="M22.9174 33.6555C22.5791 33.6555 22.2537 33.5998 21.9501 33.497C21.6679 33.4015 21.4016 33.2646 21.1597 33.0907M29.1269 32.0183L29.9231 32.0157C30.0731 32.0152 30.2201 31.9734 30.3479 31.8948C30.4755 31.8161 30.579 31.7037 30.647 31.5701C30.9127 31.0488 30.5605 30.4258 29.9771 30.3844L29.7027 30.375L29.1269 32.0183ZM16.2071 30.3865L15.7028 30.3844C15.1193 30.4258 14.7672 31.0488 15.0329 31.5701C15.1008 31.7037 15.2043 31.8161 15.3319 31.8948C15.4598 31.9734 15.6067 32.0152 15.7567 32.0157L16.7945 32.0183L16.2071 30.3865Z" stroke="#080212" stroke-linecap="round" stroke-linejoin="round"/>
<path d="M16.043 29.5926C16.043 29.5926 15.5539 26.6238 15.6751 21.9645L16.6219 22.7729L16.7015 18.6037L22.2233 19.9977L22.462 18.3984C22.462 18.3984 26.4561 18.9856 28.2725 21.9645C28.2725 21.9645 29.9236 23.8412 29.7942 29.5926" stroke="#080212" stroke-linecap="round" stroke-linejoin="round"/>
<path d="M29.7944 29.5927C29.7944 29.5927 30.132 23.8039 26.1283 25.1917C24.2187 25.8536 21.6187 25.8536 19.7092 25.1917C15.9948 23.9042 16.017 28.7934 16.0396 29.5069" stroke="#080212" stroke-linecap="round" stroke-linejoin="round"/>
<path d="M43.4759 33.0906C43.2265 33.2627 42.9476 33.394 42.6531 33.4968C42.1029 33.6891 41.2117 33.7169 40.5931 33.4968C40.3097 33.396 40.0423 33.2627 39.8027 33.0906" stroke="#080212" stroke-linecap="round" stroke-linejoin="round"/>
<path d="M48.4353 27.9126V28.8142C48.4353 32.6109 45.3576 35.6885 41.5609 35.6885C37.7643 35.6885 34.6865 32.6109 34.6865 28.8142V27.9126" stroke="#080212" stroke-linecap="round" stroke-linejoin="round"/>
<path d="M34.0239 27.9125H39.1873L39.9219 26.9512L40.6327 27.9125H42.72L43.4764 25.8535L44.49 27.9125H49.0979C49.0979 23.75 45.7235 20.3755 41.5609 20.3755C37.3984 20.3755 34.0239 23.75 34.0239 27.9125Z" stroke="#080212" stroke-linecap="round" stroke-linejoin="round"/>
<path d="M34.0271 27.9075C34.0271 27.9075 34.0334 28.8398 34.0334 29.9983L34.024 32.3984C34.0052 34.7125 33.9495 37.3157 33.8071 38.4821C34.8471 38.4821 36.4947 38.4783 36.4947 38.4783M49.0672 27.919C49.0672 27.919 49.0614 28.826 49.0614 29.9679L49.0715 32.4295C49.091 34.7364 49.1459 37.3215 49.2883 38.4821C48.2476 38.4821 46.6122 38.4783 46.6122 38.4783" stroke="#080212" stroke-linecap="round" stroke-linejoin="round"/>
<path d="M43.485 37.5183H43.9338C46.2711 37.5183 48.1659 39.4131 48.1659 41.7505V42.2244C48.1659 43.2814 47.3091 44.1384 46.2521 44.1384H45.623C45.1376 44.1384 44.6703 44.3228 44.3157 44.6544C44.3157 44.6544 44.3157 44.6544 44.3157 44.6544C43.9612 44.9859 43.4939 45.1704 43.0084 45.1704H40.1066C39.6211 45.1704 39.1538 44.9859 38.7992 44.6544L38.7888 44.6446C38.4405 44.3189 37.9832 44.1349 37.5064 44.1287L36.8447 44.1201C35.7975 44.1066 34.9556 43.2538 34.9556 42.2064V41.7505C34.9556 39.4131 36.8504 37.5183 39.1878 37.5183H39.6307" stroke="#080212" stroke-linecap="round" stroke-linejoin="round"/>
<path d="M43.4868 35.471V37.4589C43.4868 38.524 42.6233 39.3876 41.5581 39.3876C40.4929 39.3876 39.6294 38.524 39.6294 37.4589L39.6345 35.4365" stroke="#080212" stroke-linecap="round" stroke-linejoin="round"/>
<path d="M43.4863 41.3755H45.4149" stroke="#080212" stroke-linecap="round" stroke-linejoin="round"/>
</svg>
