<svg width="65" height="65" viewBox="0 0 65 65" fill="none" xmlns="http://www.w3.org/2000/svg">
<circle cx="32.1278" cy="32.128" r="32" transform="rotate(0.229651 32.1278 32.128)" fill="#D5C6FF"/>
<path d="M31.4104 29.4402C29.7702 29.4402 28.4404 30.7699 28.4404 32.4102C28.4404 34.0504 29.7702 35.3802 31.4104 35.3802C33.0507 35.3802 34.3804 34.0504 34.3804 32.4102C34.3804 30.7699 33.0507 29.4402 31.4104 29.4402Z" stroke="#080212" stroke-width="1.134"/>
<path d="M31.4104 29.4402C29.7702 29.4402 28.4404 30.7699 28.4404 32.4102C28.4404 34.0504 29.7702 35.3802 31.4104 35.3802C33.0507 35.3802 34.3804 34.0504 34.3804 32.4102C34.3804 30.7699 33.0507 29.4402 31.4104 29.4402Z" fill="#080212"/>
<path d="M40.4435 47.8097C45.566 44.8522 45.7698 35.6152 40.8986 27.178C36.0275 18.741 27.926 14.2989 22.8035 17.2564C17.681 20.2138 17.4772 29.451 22.3484 37.888C27.2195 46.3252 35.321 50.7672 40.4435 47.8097Z" stroke="#080212" stroke-width="1.0836"/>
<path d="M13.7705 32.5901C13.7705 38.5051 21.6682 43.3001 31.4105 43.3001C41.1528 43.3001 49.0505 38.5051 49.0505 32.5901C49.0505 26.6751 41.1528 21.8801 31.4105 21.8801C21.6682 21.8801 13.7705 26.6751 13.7705 32.5901Z" stroke="#080212" stroke-width="1.0836"/>
<path d="M42.5883 18.6647C37.9914 14.9423 29.2948 18.0623 23.1638 25.6335C17.0328 33.2047 15.7891 42.36 20.3858 46.0824C24.9827 49.8048 33.6793 46.6848 39.8103 39.1136C45.9413 31.5424 47.1851 22.3871 42.5883 18.6647Z" stroke="#080212" stroke-width="1.0836"/>
<path d="M22.8603 16.615C27.4571 20.3374 45.9412 31.5422 39.8103 39.1135C33.6792 46.6846 24.9826 49.8047 20.3857 46.0823" stroke="#080212" stroke-width="2.709" stroke-linecap="round" stroke-linejoin="round" stroke-dasharray="0.01 90"/>
</svg>
