<svg width="65" height="65" viewBox="0 0 65 65" fill="none" xmlns="http://www.w3.org/2000/svg">
<circle cx="32.1278" cy="32.128" r="32" transform="rotate(0.229651 32.1278 32.128)" fill="#D5C6FF"/>
<path d="M23.0046 34.21V31.0048V34.21ZM23.0047 31.0048C21.756 31.0048 20.7437 29.9925 20.7437 28.7437V15.6875H25.2658V28.7437C25.2658 29.9925 24.2535 31.0048 23.0047 31.0048V31.0048Z" stroke="#080212" stroke-linecap="round" stroke-linejoin="round"/>
<path d="M24.8063 38.305H21.2036M21.2036 34.2102H24.8063V47.5114C24.8063 48.5063 23.9998 49.3127 23.005 49.3127C22.0101 49.3127 21.2036 48.5063 21.2036 47.5114V34.2102Z" stroke="#080212" stroke-linecap="round" stroke-linejoin="round"/>
<path d="M35.7446 18.1V15.7114H39.3266V18.1M39.3266 28.9486V49.3129H35.7446V28.9486H39.3266Z" stroke="#080212" stroke-linecap="round" stroke-linejoin="round"/>
<path d="M30.9117 18.6898C34.2172 17.8554 40.8536 17.8554 44.1592 18.6898C45.1026 18.9279 45.7574 19.7863 45.7574 20.7594V26.0645C45.7574 26.9499 45.214 27.7474 44.3862 28.0615C41.093 29.3115 33.9778 29.3115 30.6846 28.0615C29.8569 27.7474 29.3135 26.9499 29.3135 26.0645V20.7594C29.3135 19.7863 29.9682 18.9279 30.9117 18.6898V18.6898Z" stroke="#080212" stroke-linecap="round" stroke-linejoin="round"/>
</svg>
