<svg width="65" height="65" viewBox="0 0 65 65" fill="none" xmlns="http://www.w3.org/2000/svg">
<circle cx="32.1278" cy="32.128" r="32" transform="rotate(0.229651 32.1278 32.128)" fill="#D5C6FF"/>
<path d="M36.0926 40.4588H40.238M19.3296 43.863V37.0547V43.863ZM22.8264 40.4588H32.2233H22.8264Z" stroke="#080212" stroke-linecap="round" stroke-linejoin="round"/>
<path d="M41.5207 46.518C44.5399 46.518 46.9777 44.1638 46.9777 40.4223C46.9777 37.0556 44.5345 34.3257 41.5207 34.3257H16.0229C16.0229 35.8328 17.2447 37.0547 18.7518 37.0547L40.6924 37.0546C42.5725 37.0546 44.0966 38.5786 44.0966 40.4587C44.0966 42.3388 42.5725 43.8629 40.6924 43.8629L18.6779 43.863C17.2116 43.863 16.0229 45.0517 16.0229 46.518H41.5207Z" stroke="#080212" stroke-linecap="round" stroke-linejoin="round"/>
<path d="M23.5684 21.2109V24.6422M27.2254 24.5397V21.2109V24.5397Z" stroke="#080212" stroke-linecap="round" stroke-linejoin="round"/>
<path d="M40.1742 24.6153H30.7773M43.671 28.0195V21.2112V28.0195Z" stroke="#080212" stroke-linecap="round" stroke-linejoin="round"/>
<path d="M46.9782 30.6745C46.9782 29.2082 45.7896 28.0195 44.3233 28.0195L22.3088 28.0194C20.4287 28.0194 18.9046 26.4953 18.9046 24.6152C18.9046 22.7351 20.4287 21.2111 22.3088 21.2111L44.2493 21.2112C45.7565 21.2112 46.9782 19.9893 46.9782 18.4822H21.4805C18.4667 18.4822 16.0234 21.2121 16.0234 24.5788C16.0234 28.3203 18.4613 30.6745 21.4805 30.6745H46.9782Z" stroke="#080212" stroke-linecap="round" stroke-linejoin="round"/>
<path d="M23.5684 24.7075V30.1151L25.3969 28.0597L27.2254 30.1151V24.7075" stroke="#080212" stroke-linecap="round" stroke-linejoin="round"/>
</svg>
