<svg width="65" height="65" viewBox="0 0 65 65" fill="none" xmlns="http://www.w3.org/2000/svg">
<circle cx="32.1278" cy="32.128" r="32" transform="rotate(0.229651 32.1278 32.128)" fill="#D5C6FF"/>
<path d="M39.9919 44.4876L39.9221 35.3844H35.8945L29.4266 31.1047M34.9674 48.8798V44.4705V48.8798ZM25.0687 48.8798V44.4705V48.8798ZM39.9169 16.1204V20.5297V16.1204ZM34.9674 16.1204V20.5297V16.1204ZM25.0687 16.1204V20.5297V16.1204ZM30.0181 16.1204V20.5297V16.1204ZM39.9169 48.8798V44.4705V48.8798ZM30.0181 48.8798V44.4705V48.8798ZM48.9999 39.9241H44.5905H48.9999ZM48.9999 34.9748H44.5905H48.9999ZM48.9999 25.0761H44.5905H48.9999ZM48.9999 30.0254H44.5905H48.9999ZM16.0605 39.9241H20.47H16.0605ZM16.0605 34.9748H20.47H16.0605ZM16.0605 25.0761H20.47H16.0605ZM16.0605 30.0254H20.47H16.0605Z" stroke="#080212" stroke-width="1.0836" stroke-linecap="round" stroke-linejoin="round"/>
<path d="M42.0842 44.4704H22.9006C21.5869 44.4704 20.522 43.4055 20.522 42.0918V22.9082C20.522 21.5945 21.5869 20.5295 22.9006 20.5295H42.0842C43.3979 20.5295 44.4628 21.5945 44.4628 22.9082V42.0918C44.4628 43.4055 43.3979 44.4704 42.0842 44.4704Z" stroke="#080212" stroke-width="1.0836" stroke-linecap="round" stroke-linejoin="round"/>
<path d="M20.522 35.0368H26.2031L32.671 39.3165M44.2662 30.0669H37.57L37.5656 25.1789L44.2662 30.0669ZM28.3508 25.1311H20.6992H28.3508Z" stroke="#080212" stroke-width="1.0836" stroke-linecap="round" stroke-linejoin="round"/>
<path d="M37.5449 25.1113H37.5885" stroke="#080212" stroke-width="1.575" stroke-linecap="round" stroke-linejoin="round"/>
<path d="M29.5146 30.9946H29.5582" stroke="#080212" stroke-width="1.575" stroke-linecap="round" stroke-linejoin="round"/>
<path d="M28.377 25.1113H28.4205M32.5817 39.3163H32.6253H32.5817Z" stroke="#080212" stroke-width="1.575" stroke-linecap="round" stroke-linejoin="round"/>
</svg>
