<svg width="65" height="65" viewBox="0 0 65 65" fill="none" xmlns="http://www.w3.org/2000/svg">
<circle cx="32.1278" cy="32.128" r="32" transform="rotate(0.229651 32.1278 32.128)" fill="#D5C6FF"/>
<path d="M38.2241 19.2485H38.2252L41.8751 22.2007" stroke="#080212" stroke-width="1.09524" stroke-linecap="round" stroke-linejoin="round"/>
<path d="M40.7252 23.6233L43.3202 20.4132L45.0003 19.3688L40.3383 15.6001L39.6689 17.4616L38.2257 19.2482L31.324 27.7855M40.9024 28.496C42.0518 30.381 42.7149 32.5965 42.7149 34.9657C42.7149 39.2525 40.5482 43.0323 37.2505 45.2694M34.177 42.6954L34.1803 42.6933C36.7392 40.8148 38.7054 38.3664 38.7054 34.9657C38.7054 32.5965 37.9917 30.3114 36.8423 28.4264M36.8423 28.4264L34.9753 30.7359M36.8423 28.4264L38.192 26.7563M26.3338 42.4292L30.1465 43.4332M32.6181 42.1713V39.7851L23.1648 31.8502M24.6028 45.9125H38.0476C39.6335 45.9125 40.9311 47.2102 40.9311 48.7962V50.3904H21.7192V48.7962C21.7192 47.2102 23.0169 45.9125 24.6028 45.9125ZM27.2342 45.9125L29.9298 43.6499L31.0212 42.7338C31.9146 41.9838 33.3361 41.9838 34.2295 42.7338L35.321 43.6499L38.0165 45.9125H27.2342Z" stroke="#080212" stroke-width="1.09524" stroke-linecap="round" stroke-linejoin="round"/>
<path d="M27.5785 30.3474L27.5786 30.3488L29.6998 28.6881L29.6885 28.6912L30.389 28.1475M27.5785 30.3474L30.389 28.1475M27.5785 30.3474L29.005 32.1691L31.1261 30.5083L32.2559 31.4216C32.2884 31.4481 32.3219 31.4733 32.3563 31.4972L31.1752 33.9235L33.2546 34.9356L34.9052 31.5461C35.0956 31.4197 35.2654 31.2648 35.4088 31.0868L30.7995 27.3608C30.6114 27.593 30.4719 27.8605 30.389 28.1475M27.5785 30.3474L29.6555 28.7045M26.0084 43.4118L20.8335 41.6988L21.5107 39.6528L26.6857 41.3658L26.0084 43.4118ZM38.0945 26.0702C38.0945 27.4258 39.1934 28.5246 40.5489 28.5246C41.9045 28.5246 43.0034 27.4258 43.0034 26.0702C43.0034 24.7146 41.9045 23.6157 40.5489 23.6157C39.1934 23.6157 38.0945 24.7146 38.0945 26.0702Z" stroke="#080212" stroke-width="1.09524" stroke-linecap="round" stroke-linejoin="round"/>
</svg>
