<svg width="65" height="65" viewBox="0 0 65 65" fill="none" xmlns="http://www.w3.org/2000/svg">
<circle cx="32.1278" cy="32.128" r="32" transform="rotate(0.229651 32.1278 32.128)" fill="#D5C6FF"/>
<path d="M30.3625 30.2589V33.8087H26.5836V37.5876H23.0331V33.8087H19.2549V30.2589H23.0331V26.48H26.5836V30.2589H30.3625Z" stroke="#080212" stroke-width="1.0836" stroke-linecap="round" stroke-linejoin="round"/>
<path d="M45.2398 45.9997H18.1749C16.4287 45.9997 15 44.5709 15 42.8248V25.4333C15 23.6871 16.4287 22.2583 18.1749 22.2583H45.2398C46.986 22.2583 48.4146 23.6871 48.4146 25.4333V42.8248C48.4146 44.5709 46.986 45.9997 45.2398 45.9997Z" stroke="#080212" stroke-width="1.0836" stroke-linecap="round" stroke-linejoin="round"/>
<path d="M40.414 41.7253H44.068M23.938 22.2589C24.688 19.2563 27.8809 17 31.7073 17C35.5338 17 38.7267 19.2563 39.4767 22.2589H23.938ZM40.414 34.4282H44.068H40.414ZM40.414 38.0768H44.068H40.414Z" stroke="#080212" stroke-width="1.0836" stroke-linecap="round" stroke-linejoin="round"/>
</svg>
