<svg width="219" height="163" viewBox="0 0 219 163" fill="none" xmlns="http://www.w3.org/2000/svg">
<path fill-rule="evenodd" clip-rule="evenodd" d="M141.01 22.41C159.854 18.1848 177.312 23.1978 186.695 37.5164C196.078 51.835 193.623 74.5557 191.591 84.5848C189.558 94.6138 184.402 103.8 178.003 111.774C166.116 126.587 150.054 137.922 132.097 144.04C114.14 150.159 94.644 151.414 75.9309 148.318C65.4335 146.582 32.5968 138.075 25.5086 112.404C18.4203 86.7335 13.9344 64.7929 29.284 55.8805C44.6337 46.968 55.2659 53.6713 62.8647 56.9677C98.3657 72.3681 122.167 26.6352 141.01 22.41Z" fill="#261F56"/>
<path fill-rule="evenodd" clip-rule="evenodd" d="M167.545 46.4545C170.568 46.2207 173.826 46.372 176.289 48.1423C178.753 49.9127 179.872 53.8003 177.849 56.0625C180.136 55.167 182.823 56.6859 183.969 58.8612C185.114 61.0366 185.055 63.6429 184.71 66.078C183.856 72.1085 181.402 77.9043 177.667 82.7104C177.495 83.217 177.323 83.7236 177.152 84.2303C181.567 85.3705 198.808 92.0774 194.15 108.612C189.491 125.146 169.146 131.439 167.064 133.418C163.434 136.867 157.894 137.103 152.893 136.944C140.598 136.553 128.339 134.988 116.339 132.277C115.319 132.046 114.027 131.906 113.438 132.772C109.182 139.041 100.28 139.601 92.7303 139.056C83.0329 138.355 73.3912 136.882 63.9261 134.655C58.5573 133.391 52.8561 131.633 49.5115 127.24C45.6124 122.12 46.0627 115.02 46.6954 108.612C44.1326 110.039 39.8821 110.812 33.9438 110.931C30.4475 110.216 28.2666 108.947 27.4011 107.122C23.4432 98.778 22.086 88.0256 27.0147 79.8009C27.6067 78.813 28.2898 77.8394 29.2539 77.2106C30.276 76.5441 31.5221 76.3249 32.7369 76.2172C37.5287 75.792 42.4452 76.9124 46.5818 79.3721C46.5448 65.9051 46.5079 52.4382 46.4709 38.9713C46.4688 38.2001 46.4795 37.3817 46.89 36.7293C47.4837 35.7856 48.6999 35.4931 49.7946 35.2884C59.7525 33.4264 69.8233 32.1706 79.933 31.5303C83.2363 31.321 87.757 32.2419 87.772 35.5572C87.8296 48.2538 87.8872 60.9503 87.9448 73.6468C87.9585 76.6688 88.1524 76.416 89.5658 75.5404C88.6773 75.6326 88.8756 74.123 89.5489 73.5351C92.0625 71.3401 95.7256 71.2593 99.0602 71.2935C106.519 71.37 113.978 71.4465 121.436 71.5229C128.663 71.597 137.33 72.515 140.602 78.97C140.507 77.0516 142.243 75.2412 144.16 75.2589C146.251 75.2781 148 73.461 148.61 71.4575C149.221 69.454 148.952 67.3013 148.677 65.2247C145.305 61.9543 144.422 56.395 146.615 52.2381C148.808 48.0813 153.89 45.6787 158.487 46.6257C161.457 47.2373 164.522 46.6884 167.545 46.4545ZM80.9973 108.734C80.898 111.407 80.793 114.116 80.0076 116.673L80.9973 108.734ZM77.907 75.9281C78.6012 76.1316 79.4602 76.7482 79.0957 77.374C82.1114 77.6758 81.211 77.536 81.3466 73.9763C81.4843 70.3642 81.4958 66.3703 79.135 63.6364C77.046 61.2173 73.6391 60.4607 70.4574 60.1886C66.7438 59.871 62.9903 60.0236 59.3146 60.6416C57.5211 60.9431 55.5785 61.4627 54.5377 62.9565C53.9552 63.7925 53.7409 64.8249 53.5698 65.8299C52.8967 69.783 52.6865 73.815 52.9448 77.8168C60.6765 74.2136 69.7227 73.5291 77.907 75.9281ZM145.006 102.467C145.195 102.276 145.482 102.229 145.748 102.192C146.81 102.046 147.873 101.9 148.935 101.753C146.497 100.65 145.019 98.0296 144.577 95.3863C144.136 92.743 144.567 90.0404 145.003 87.3961C143.443 89.1348 143.555 91.7581 143.76 94.0867C144.207 99.1832 144.817 102.658 145.006 102.467ZM124.945 127.57C125.154 126.889 125.866 126.524 126.386 126.039C127.324 125.166 127.672 123.847 127.978 122.602C129.035 118.299 130.098 113.945 130.085 109.514C130.082 108.576 130.035 107.611 130.345 106.726C130.655 105.84 131.433 105.039 132.37 105.035C133.358 105.03 133.594 103.657 133.505 102.671C133.201 99.2719 132.896 95.8728 132.592 92.4738C132.494 91.3881 132.395 90.2924 132.066 89.2533C130.85 85.4119 126.164 83.0892 122.377 84.4511C121.914 84.6178 121.79 85.2044 121.737 85.6949C121.155 91.1318 120.572 96.5688 119.989 102.006C119.885 102.972 121.131 103.588 122.071 103.349C123.011 103.11 123.729 102.374 124.541 101.844C125.354 101.314 126.5 101.009 127.246 101.629C128.09 102.33 129.339 101.551 130.071 100.735C130.804 99.918 131.759 98.9336 132.801 99.2742C131.578 100.446 130.356 101.617 129.133 102.788C128.728 103.177 128.37 103.952 128.883 104.182C130.287 103.683 131.557 102.808 132.525 101.673C132.973 101.659 132.994 102.363 132.744 102.735C131.803 104.138 129.588 104.451 129.017 106.042C127.686 109.755 123.535 112.221 119.643 111.61C118.845 111.485 118.447 112.537 118.351 113.34C117.968 116.544 117.585 119.748 117.202 122.952C117.114 123.689 117.032 124.469 117.335 125.146C117.84 126.276 119.192 126.704 120.391 127.008C121.975 127.41 123.578 127.814 125.197 127.99C125.879 128.064 125.877 127.814 124.945 127.57ZM61.8221 121.696C64.0861 122.456 66.4823 122.713 68.8565 122.966C69.8633 123.073 70.9355 123.169 71.8387 122.71C72.9018 122.171 73.4683 121.002 73.9256 119.9C76.4757 113.752 77.9316 107.15 78.2044 100.499C78.2432 99.5533 77.0351 99.136 76.0928 99.0727C68.5703 98.5669 61.3761 101.879 54.5632 105.114C54.2367 105.269 53.8872 105.446 53.7259 105.77C53.6056 106.011 53.6119 106.294 53.6208 106.563C53.7429 110.238 53.8968 114.045 55.5376 117.334C55.9807 118.222 56.5443 119.077 57.3423 119.666C57.8257 120.023 58.379 120.271 58.9276 120.515C59.8797 120.94 60.8339 121.365 61.8221 121.696ZM110.486 108.096C111.489 102.694 112.195 97.2378 112.602 91.7588C112.741 89.8845 112.843 87.979 112.438 86.1437C112.034 84.3084 111.058 82.5242 109.462 81.5351C108.479 80.9256 107.328 80.652 106.19 80.4486C104.113 80.0775 102 79.9091 99.8901 79.9466C98.0286 79.9797 96.0746 80.207 94.5549 81.2845C94.0524 81.6408 93.5959 82.1071 93.4123 82.6958C93.2288 83.2845 93.3833 84.0078 93.8931 84.3536C95.1816 85.2276 95.7069 86.8629 95.9483 88.4028C96.1898 89.9427 96.2478 91.5551 96.9484 92.947C97.3096 93.6648 97.8276 94.2911 98.3709 94.8827C101.316 98.0906 105.158 100.464 109.343 101.66C110.078 101.87 111.014 102.325 110.859 103.075C113.173 104.538 110.448 108.303 110.486 108.096ZM104.109 124.027C104.961 123.509 105.538 122.645 106.047 121.787C108.205 118.142 109.62 114.059 110.18 109.859C102.418 109.824 94.7032 106.891 88.8733 101.759C88.6737 102.561 88.7119 103.4 88.7391 104.226C88.9093 109.384 88.6037 114.558 87.8276 119.66C87.6426 120.876 88.368 122.092 89.3652 122.811C90.3623 123.529 91.5908 123.837 92.7968 124.07C95.5156 124.595 98.2938 124.81 101.061 124.71C102.113 124.672 103.209 124.575 104.109 124.027ZM153.086 79.5355C152.633 78.4434 152.294 77.2121 151.355 76.4951C150.417 75.7781 148.649 76.129 148.594 77.31C149.523 77.1387 150.233 78.2873 150.075 79.22C149.917 80.1527 149.24 80.8943 148.702 81.6721C147.959 82.7467 147.45 83.9632 146.948 85.1695C145.751 88.0397 145.286 91.2119 145.607 94.3056C145.795 96.1269 146.294 97.9978 147.523 99.353C148.753 100.708 150.86 101.386 152.48 100.538C153.872 99.809 154.566 98.2029 154.885 96.6631C155.204 95.1232 155.261 93.5112 155.864 92.059C156.976 89.3799 159.719 87.7615 162.432 86.7454C158.354 86.1904 154.663 83.3437 153.086 79.5355ZM141.807 82.4336C141.988 83.1358 142.239 83.82 142.555 84.4727C142.745 83.553 143.05 82.6571 143.46 81.8125C143.045 81.765 142.627 81.7424 142.21 81.7449C142.108 81.7455 142.001 81.7492 141.916 81.8036C141.723 81.9261 141.75 82.2121 141.807 82.4336ZM92.6438 81.7107C92.387 81.9177 92.2363 82.3633 92.5075 82.5511C92.9227 82.1347 93.3379 81.7183 93.7531 81.3019C93.6672 81.1953 93.5424 81.121 93.408 81.0962C93.2433 81.3823 92.9006 81.5037 92.6438 81.7107Z" fill="white"/>
<path d="M164.542 78.7274C165.429 78.7274 166.148 78.0072 166.148 77.1188C166.148 76.2303 165.429 75.5101 164.542 75.5101C163.655 75.5101 162.936 76.2303 162.936 77.1188C162.936 78.0072 163.655 78.7274 164.542 78.7274Z" fill="#FFB61D"/>
<path d="M155.344 77.1188C155.828 77.1188 156.22 76.7259 156.22 76.2413C156.22 75.7567 155.828 75.3639 155.344 75.3639C154.86 75.3639 154.468 75.7567 154.468 76.2413C154.468 76.7259 154.86 77.1188 155.344 77.1188Z" fill="#FFB61D"/>
<path fill-rule="evenodd" clip-rule="evenodd" d="M72.3944 54.0347C75.0223 54.0514 77.6503 54.0681 80.2782 54.0848C80.4013 54.0856 80.5335 54.0892 80.6327 54.1622C80.8354 54.3112 80.7545 54.6603 80.5458 54.8008C80.337 54.9413 80.0665 54.9354 79.8151 54.9266C77.5025 54.8462 75.1829 54.9665 72.8908 55.2858C72.5423 55.3343 72.1746 55.3853 71.8485 55.2526C71.5225 55.1199 71.2731 54.7289 71.4232 54.41C71.58 54.0769 72.0267 54.0323 72.3944 54.0347ZM63.6064 53.7762C63.7729 53.9425 63.6931 54.2477 63.5081 54.3931C63.3231 54.5384 63.0753 54.5675 62.8414 54.5912C60.5116 54.8275 58.1818 55.0638 55.852 55.3001C55.5764 55.3281 55.2916 55.3551 55.028 55.2701C54.7643 55.1851 54.5258 54.9568 54.5196 54.6795C54.5132 54.3934 54.7558 54.1504 55.0265 54.0591C55.2973 53.9678 55.5915 53.9934 55.8763 54.0158C58.2635 54.204 60.6738 54.0955 63.0346 53.6937C63.2323 53.66 63.4643 53.6343 63.6064 53.7762ZM63.28 49.2966C63.4541 49.4373 63.3922 49.7389 63.2175 49.8789C63.0428 50.0189 62.8051 50.0421 62.5821 50.0597L55.1 50.651C54.8199 50.6731 54.5298 50.694 54.2656 50.5983C54.0014 50.5025 53.7696 50.256 53.7848 49.975C53.8001 49.6903 54.0626 49.4694 54.3392 49.4022C54.6159 49.335 54.9055 49.3852 55.1871 49.4269C57.7265 49.8028 60.3087 49.46 62.8651 49.2272C63.0085 49.2142 63.168 49.206 63.28 49.2966ZM73.7294 47.8117C75.2906 48.0115 76.8733 48.0419 78.441 47.9022C79.0642 47.8466 79.8176 47.8206 80.1717 48.3373C79.7514 48.6776 79.1738 48.7259 78.6344 48.76C76.8467 48.8729 75.059 48.9857 73.2713 49.0986C72.8634 49.1243 72.3552 49.0934 72.1872 48.7203C72.0365 48.3855 72.3017 47.9828 72.6425 47.8472C72.9833 47.7116 73.3657 47.7652 73.7294 47.8117ZM60.2422 45.8972C60.2441 46.1677 59.9058 46.2844 59.6386 46.3236L55.7095 46.9004C55.4291 46.9416 55.1393 46.9823 54.8654 46.9091C54.5916 46.8358 54.3355 46.6176 54.3099 46.3349C54.2786 45.9887 54.603 45.6966 54.9418 45.6212C55.2805 45.5457 55.6314 45.6246 55.9756 45.669C57.1624 45.8222 58.3596 45.5609 59.5555 45.5198C59.8481 45.5097 60.2401 45.6039 60.2422 45.8972ZM79.2005 44.9551C79.5045 44.9892 79.8165 45.1709 79.8978 45.4662C79.3579 45.8752 78.6443 45.9497 77.9701 46.0095C76.8159 46.112 75.6618 46.2145 74.5076 46.3169C74.101 46.353 73.6945 46.3891 73.2879 46.4252C72.9906 46.4516 72.6814 46.4765 72.4022 46.3708C72.123 46.2651 71.8845 45.9877 71.9261 45.6916C71.9916 45.2251 72.6028 45.104 73.073 45.1141C74.8177 45.1517 76.5842 45.4154 78.2935 45.0636C78.5932 45.0019 78.8965 44.9211 79.2005 44.9551ZM80.733 40.5423C72.1813 41.6973 63.4133 41.0992 54.9792 42.9265C54.479 43.0348 53.7809 43.0402 53.6515 42.5442C53.6632 41.9598 54.4177 41.7489 54.9998 41.7073C63.2045 41.1212 71.4093 40.535 79.614 39.9489C80.0954 39.9145 80.7709 40.0604 80.733 40.5423Z" fill="#E7EAEE"/>
<path fill-rule="evenodd" clip-rule="evenodd" d="M50.6511 129.336C50.7405 130.372 49.3143 130.723 48.2759 130.727C42.8788 130.749 37.4871 131.751 32.442 133.672C31.6721 133.965 30.8481 134.334 30.4733 135.069C29.9771 136.042 30.5187 137.287 31.3965 137.935C32.2744 138.584 33.3949 138.781 34.4714 138.957C62.4529 143.521 90.8507 145.521 119.195 144.925L119.65 144.915C122.919 144.84 126.255 144.664 129.25 143.367C126.771 141.627 124.292 139.886 121.813 138.146C126.104 137.287 130.532 137.899 134.888 138.329C144.856 139.315 154.919 139.335 164.891 138.389C164.189 139.513 162.645 139.669 161.322 139.698C148.779 139.968 136.22 139.522 123.727 138.361C125.357 139.436 126.987 140.51 128.617 141.585C129.207 141.974 129.861 142.468 129.895 143.176C129.946 144.239 128.642 144.769 127.594 144.943C124.115 145.519 120.576 145.61 117.05 145.662C89.515 146.065 61.9455 144.091 34.7474 139.77C33.4203 139.559 32.0452 139.324 30.9386 138.56C29.832 137.797 29.0776 136.345 29.5426 135.082C30.0051 133.826 31.4124 133.236 32.6829 132.821C38.4971 130.918 44.5484 129.745 50.6511 129.336ZM87.772 35.5573C87.8296 48.2538 87.8872 60.9503 87.9448 73.6468C87.9585 76.6688 88.5529 80.4928 91.4704 81.2623C95.5018 79.3981 100.046 78.6616 104.459 79.1573C106.985 79.4411 109.608 80.206 111.318 82.0898C113.664 84.6739 113.667 88.5655 113.415 92.049C112.905 99.11 111.899 106.135 110.409 113.055C111.593 112.981 112.801 113.456 113.617 114.32C112.36 114.895 110.863 114.919 109.589 114.384C110.464 119.137 106.598 123.827 101.969 125.188C97.3388 126.55 92.3149 125.266 87.9614 123.182C87.5531 124.774 89.6801 125.71 91.3041 125.951C95.4264 126.561 99.5488 127.171 103.671 127.782C98.5802 127.935 93.4724 127.517 88.4736 126.54C87.5531 127.845 89.6376 129.164 91.2129 129.419C95.3913 130.096 99.5697 130.774 103.748 131.451C99.0287 131.42 94.3111 131.104 89.6293 130.508C92.6068 133.198 96.6713 134.645 100.676 134.439C98.417 135.184 95.9071 135.139 93.676 134.314C96.4672 138.059 102.178 138.752 106.348 136.658C110.518 134.564 113.241 130.279 114.573 125.801C115.905 121.323 116.035 116.59 116.271 111.923C116.706 103.309 117.539 94.7057 119.046 86.2132C120.06 80.4943 122.552 73.6753 128.295 72.8673C118.064 72.395 107.824 72.1403 97.5826 72.1034C94.4706 72.0922 90.605 72.6021 89.5658 75.5404C88.6773 75.6326 88.8756 74.1231 89.5489 73.5351C92.0625 71.3401 95.7256 71.2594 99.0602 71.2936L121.436 71.523C128.663 71.597 137.33 72.515 140.602 78.97C140.507 77.0516 142.243 75.2413 144.16 75.2589C146.251 75.2781 148 73.461 148.611 71.4575C149.221 69.454 148.952 67.3013 148.677 65.2247C145.305 61.9543 144.422 56.395 146.615 52.2382C147.235 51.0624 148.152 48.259 153.269 46.4546C156.68 45.2516 160.053 45.3839 163.386 46.8514C169.645 45.639 173.946 46.0693 176.289 48.1424C179.804 51.2519 179.872 53.8003 177.849 56.0625C180.136 55.167 182.823 56.6859 183.969 58.8612C185.114 61.0366 185.055 63.6429 184.71 66.078C183.856 72.1086 181.402 77.9043 177.667 82.7104L177.152 84.2303C186.188 86.5639 193.498 94.5643 195.02 103.787C192.016 97.0036 187.949 89.8201 180.942 87.4119C179.361 89.0733 177.735 90.8069 176.992 92.9783C176.25 95.1497 176.651 97.8934 178.534 99.2014C177.351 99.476 176.169 99.7505 174.986 100.025C175.38 100.724 175.773 101.424 176.167 102.123C171.698 105.526 171.184 111.962 171.211 117.585C171.238 123.207 171.136 129.548 167.064 133.418C163.434 136.867 157.894 137.103 152.893 136.944C140.598 136.553 128.339 134.988 116.339 132.277C115.319 132.046 114.027 131.906 113.438 132.772C109.182 139.041 100.28 139.602 92.7303 139.056C83.0329 138.355 73.3912 136.882 63.9261 134.655C58.5573 133.392 52.8561 131.633 49.5115 127.24C45.6124 122.12 46.0627 115.02 46.6954 108.612C42.8512 110.753 38.294 111.581 33.9438 110.931C38.5294 107.928 40.753 102.183 40.7948 96.6956C40.8366 91.2081 39.0079 85.8892 36.9735 80.7939C32.4909 83.3982 30.1325 88.8875 30.4832 94.0662C30.8339 99.2449 33.577 104.052 37.2575 107.706C32.7205 104.838 29.7184 99.6707 29.4699 94.3026C29.2214 88.9346 31.7333 83.5116 35.9859 80.2353C35.3063 77.9076 31.8005 77.6231 29.9631 79.2024C28.1256 80.7817 27.549 83.3451 27.0763 85.7237C26.203 90.1187 25.326 94.6162 25.9606 99.0521C26.5951 103.488 29.0414 107.928 33.1406 109.723C31.2249 111.106 28.6734 109.115 27.4011 107.122C22.2418 99.0408 22.086 88.0256 27.0147 79.801C27.6067 78.813 28.2899 77.8394 29.2539 77.2107C30.276 76.5441 31.5221 76.325 32.737 76.2172C37.5287 75.7921 42.4452 76.9124 46.5818 79.3721C46.5448 65.9052 46.5079 52.4382 46.4709 38.9713C46.4688 38.2001 46.4795 37.3817 46.89 36.7293C47.4837 35.7856 48.6999 35.4931 49.7946 35.2884C59.7525 33.4264 69.8233 32.1706 79.933 31.5303C83.2363 31.321 87.757 32.2419 87.772 35.5573ZM81.02 32.3417C70.3014 32.847 59.6215 34.1743 49.1045 36.3079C48.6569 36.3987 48.183 36.5047 47.8576 36.8257C47.4144 37.263 47.3802 37.9559 47.3743 38.579C47.2487 51.9884 47.3018 65.3995 47.5336 78.8075C48.8207 78.486 50.1077 78.1646 51.3947 77.8432C50.8916 75.0918 50.3864 72.3033 50.6015 69.5146C50.8166 66.7258 51.8383 63.8896 53.9398 62.0477C56.2142 60.0541 59.3881 59.4908 62.4029 59.2788C65.3021 59.0748 68.2188 59.1221 71.1099 59.4198C74.0611 59.7236 77.17 60.3801 79.2992 62.4495C82.3748 65.4389 82.4245 70.282 82.2653 74.5717C81.8426 85.9592 81.4199 97.3468 80.9973 108.734C80.898 111.407 80.793 114.117 80.0076 116.673C79.2222 119.23 77.6633 121.66 75.3048 122.914C72.9904 124.145 70.2211 124.111 67.6173 123.814C65.1315 123.531 62.6695 123.037 60.2664 122.34C58.8067 121.917 57.3461 121.407 56.1056 120.527C52.0005 117.617 51.5152 111.811 51.4155 106.775C49.8392 106.49 48.2983 107.691 47.6475 109.157C46.9967 110.623 47.0255 112.289 47.0659 113.893C47.1668 117.894 47.3224 122.094 49.3614 125.536C52.5073 130.846 59.1152 132.808 65.1484 134.076C75.8569 136.326 86.7294 137.794 97.6507 138.464C92.7766 135.977 88.4553 131.721 87.4273 126.34C87.148 124.878 87.1181 123.382 87.089 121.893C86.5199 92.7974 85.9509 63.7013 85.3818 34.6052C85.3458 32.7651 82.8553 32.2551 81.02 32.3417ZM122.571 80.112C122.3 80.7743 122.103 81.5091 122.283 82.2017C122.464 82.8943 123.136 83.499 123.841 83.3814C126.998 82.8547 130.401 84.4125 132.07 87.1482C133.448 89.4055 133.639 92.1672 133.794 94.8081L135.206 118.864C135.357 121.434 135.431 124.263 133.836 126.283C131.767 128.903 127.881 128.99 124.561 128.665C121.822 128.397 118.941 127.94 116.814 126.19C116.889 127.209 116.593 128.251 115.993 129.077C115.253 130.096 116.448 131.437 117.611 131.919C119.031 132.508 120.576 132.713 122.1 132.911C129.083 133.819 136.069 134.694 143.059 135.537C148.44 136.186 153.906 136.814 159.255 135.944C155.871 134.992 152.633 133.522 149.688 131.6C148.219 130.641 146.799 129.546 145.797 128.105C144.161 125.751 143.816 122.762 143.544 119.907C142.735 111.42 142.132 102.913 141.738 94.3961C141.447 88.1142 139.436 81.9208 135.982 76.6693C135.364 75.7302 134.609 74.7558 133.517 74.4944C129.176 73.455 124.265 75.9754 122.571 80.112ZM102.665 134.473C103.033 134.536 103.411 134.619 103.715 134.837C104.018 135.055 104.23 135.442 104.137 135.804C104.043 136.166 103.566 136.405 103.264 136.184C102.932 135.94 102.489 135.932 102.092 135.819C101.696 135.707 101.28 135.377 101.351 134.971C101.442 134.455 102.15 134.386 102.665 134.473ZM87.3765 134.626C87.8334 134.721 88.3683 135.048 88.2747 135.506C88.1921 135.909 87.6934 136.044 87.2855 136.098C86.8283 136.16 86.3403 136.216 85.9252 136.015C85.5101 135.814 85.2409 135.246 85.5132 134.873C85.6969 134.621 86.0406 134.554 86.3514 134.542C86.6948 134.528 87.04 134.556 87.3765 134.626ZM114.71 129.537C114.277 129.85 113.979 130.312 113.673 130.751C112.278 132.753 110.51 134.493 108.487 135.855C108.538 136.069 108.859 136.015 109.05 135.904C111.392 134.545 113.063 132.3 114.667 130.116C114.798 129.937 114.907 129.638 114.71 129.537ZM135.652 75.4576C136.901 76.9354 138.16 78.4274 139.074 80.1339C140.065 81.984 140.622 84.0341 141.07 86.0851C143.578 97.5586 142.908 109.487 144.533 121.119C144.827 123.218 145.214 125.361 146.305 127.178C147.582 129.305 149.701 130.78 151.861 131.999C153.607 132.985 155.431 133.851 157.349 134.434C160.399 135.363 164.063 135.428 166.401 133.257C167.714 132.038 168.405 130.299 168.944 128.589C171.256 121.261 171.511 113.293 169.67 105.831C169.717 110.294 170.295 114.746 170.163 119.207C170.031 123.668 169.116 128.261 166.498 131.872C165.98 132.588 165.379 133.274 164.595 133.681C163.563 134.216 162.337 134.206 161.183 134.065C159.168 133.818 157.197 133.208 155.394 132.273C154.025 131.563 152.758 130.67 151.53 129.735C150.103 128.648 148.702 127.477 147.703 125.987C146.712 124.51 146.159 122.784 145.721 121.059C142.523 108.466 144.81 94.8808 141.014 82.4547C140.119 79.5261 138.566 76.384 135.652 75.4576ZM59.3381 130.861C66.7227 132.002 74.1073 133.144 81.4918 134.286C81.3047 134.775 80.6296 134.792 80.1111 134.723C73.7957 133.878 67.4803 133.033 61.1648 132.188C60.4509 132.092 59.7369 131.997 59.023 131.901C58.6841 131.856 58.2633 131.733 58.2205 131.393C58.1601 130.914 58.8619 130.787 59.3381 130.861ZM145.003 87.3961C143.443 89.1348 143.555 91.7581 143.76 94.0867C144.207 99.1833 144.654 104.28 145.101 109.376C145.122 109.615 145.147 109.866 145.287 110.06C145.515 110.378 145.957 110.433 146.347 110.461C151.656 110.836 156.965 111.21 162.274 111.585C161.878 112.214 160.983 112.223 160.242 112.166C155.244 111.779 150.226 111.654 145.214 111.791C145.128 114.365 145.507 116.954 146.327 119.395C146.682 120.453 148.051 120.679 149.164 120.724C153.411 120.896 157.658 121.068 161.904 121.24C162.1 121.681 161.413 121.956 160.932 121.951C156.567 121.901 152.202 121.85 147.837 121.8C147.239 121.793 147.023 122.642 147.248 123.196C147.837 124.646 149.712 124.958 151.271 125.056L161.031 125.668C161.253 125.682 161.3 126.033 161.137 126.186C160.974 126.339 160.726 126.343 160.503 126.339L149.077 126.096C152.031 129.618 156.175 132.121 160.664 133.094C161.631 133.304 162.656 133.441 163.596 133.131C164.72 132.759 165.55 131.803 166.199 130.811C169.642 125.549 169.413 118.78 169.061 112.499L168.662 105.38C168.801 105.188 169.087 105.122 169.297 105.233C169.377 104.884 168.924 104.677 168.573 104.612C160.806 103.183 152.836 101.752 145.063 103.147C144.815 103.045 144.817 102.658 145.006 102.467C145.195 102.276 145.482 102.229 145.748 102.192C146.81 102.046 147.873 101.9 148.935 101.753C146.497 100.65 145.019 98.0297 144.577 95.3864C144.136 92.743 144.567 90.0405 145.003 87.3961ZM106.83 130.674C107.522 130.803 108.321 131.015 108.591 131.665C107.821 132.191 106.809 132.137 105.88 132.063C105.624 132.042 105.345 132.011 105.166 131.828C104.848 131.503 105.085 130.906 105.494 130.709C105.903 130.512 106.384 130.591 106.83 130.674ZM54.1442 125.918C62.1002 128.422 70.3448 130.005 78.6612 130.626C79.3064 130.674 80.1735 130.982 80.0496 131.618C71.2541 130.622 62.5124 129.149 53.8753 127.209C53.3241 127.085 52.617 126.692 52.8222 126.165C53.0026 125.702 53.6707 125.769 54.1442 125.918ZM83.285 129.783C83.6913 129.782 84.0835 129.922 84.4632 130.066C84.6563 130.14 84.8688 130.235 84.9437 130.428C85.1033 130.839 84.5373 131.133 84.1039 131.212C83.8122 131.265 83.5206 131.318 83.2289 131.371C82.9828 131.415 82.718 131.458 82.4915 131.352C82.1237 131.179 82.0282 130.647 82.2391 130.299C82.4501 129.952 82.8788 129.784 83.285 129.783ZM120.75 128.905C124.269 129.575 127.874 129.613 131.456 129.649C131.733 129.652 131.808 130.089 131.61 130.283C131.412 130.477 131.103 130.486 130.825 130.48C127.481 130.415 124.133 130.062 120.799 130.325C120.436 130.353 120.059 130.388 119.718 130.26C119.377 130.132 119.087 129.787 119.151 129.428C119.207 129.119 119.508 128.902 119.816 128.842C120.124 128.782 120.441 128.846 120.75 128.905ZM128.7 73.643C124.715 74.239 121.368 77.7914 121.004 81.8104C120.663 85.564 119.629 89.2142 118.893 92.9104C116.528 104.78 117.245 117.081 115.155 129.002C115.919 127.61 116.124 125.989 116.317 124.412L121.386 82.8291C121.521 81.7227 121.659 80.6035 122.055 79.5621C123.14 76.716 125.943 74.9282 128.7 73.643ZM110.583 127.499C110.8 127.568 111.022 127.659 111.167 127.835C111.312 128.011 111.348 128.296 111.19 128.46C111.07 128.584 110.884 128.606 110.712 128.621C110.152 128.671 109.592 128.72 109.032 128.77C108.73 128.797 108.418 128.822 108.129 128.727C107.841 128.631 107.581 128.381 107.573 128.077C107.559 127.562 108.193 127.304 108.706 127.27C109.339 127.229 109.979 127.307 110.583 127.499ZM122.377 84.4511C121.914 84.6179 121.79 85.2044 121.737 85.6949L119.989 102.006C119.885 102.972 121.131 103.588 122.071 103.349C123.011 103.11 123.729 102.374 124.541 101.844C125.354 101.314 126.5 101.009 127.246 101.629C128.09 102.33 129.339 101.551 130.071 100.735C130.804 99.9181 131.759 98.9336 132.801 99.2743C131.578 100.446 130.356 101.617 129.133 102.788C128.728 103.177 128.37 103.952 128.883 104.182C130.287 103.683 131.557 102.808 132.525 101.673C132.973 101.659 132.994 102.363 132.744 102.736C131.803 104.138 129.588 104.451 129.017 106.042C127.686 109.755 123.535 112.221 119.643 111.61C118.845 111.485 118.447 112.537 118.351 113.34C117.968 116.544 117.585 119.748 117.202 122.952C117.114 123.689 117.032 124.469 117.335 125.146C117.84 126.276 119.192 126.704 120.391 127.008C122.642 127.58 124.931 128.155 127.252 128.073C129.573 127.991 131.973 127.16 133.443 125.358C133.036 124.829 132.13 125.508 131.537 125.201C130.957 124.901 131.265 123.904 131.888 123.708C132.51 123.511 133.167 123.823 133.746 124.126C134.109 123.416 134.482 122.656 134.408 121.862C134.333 121.068 133.605 120.283 132.829 120.461C132.319 120.579 132.111 119.693 132.522 119.369C132.934 119.045 133.524 119.15 134.034 119.271C134.062 117.354 134.09 115.438 134.118 113.521C134.124 113.13 134.125 112.719 133.94 112.374C133.755 112.03 133.316 111.789 132.964 111.959C132.485 112.19 132.069 111.372 132.39 110.947C132.711 110.521 133.317 110.466 133.849 110.448C133.89 108.745 133.78 107.04 133.521 105.357C131.518 106.362 131.168 109.015 130.966 111.249C130.578 115.535 129.799 119.786 128.64 123.93C128.381 124.859 128.089 125.808 127.482 126.557C126.876 127.305 125.877 127.814 124.945 127.57C125.154 126.889 125.866 126.524 126.386 126.039C127.324 125.166 127.672 123.847 127.978 122.602C129.035 118.3 130.098 113.945 130.085 109.514L130.083 109.217C130.076 108.374 130.067 107.518 130.345 106.726C130.655 105.84 131.433 105.039 132.37 105.035C133.358 105.03 133.594 103.657 133.505 102.671C133.201 99.2719 132.896 95.8729 132.592 92.4738C132.494 91.3882 132.395 90.2924 132.066 89.2534C130.85 85.4119 126.164 83.0892 122.377 84.4511ZM137.288 125.907C137.752 126.032 138.203 126.51 138.01 126.951C137.825 127.372 137.247 127.396 136.79 127.352C136.566 127.331 136.328 127.304 136.153 127.163C135.847 126.915 135.89 126.389 136.177 126.118C136.463 125.848 136.907 125.804 137.288 125.907ZM81.4774 125.435C81.7829 125.502 82.1013 125.591 82.3209 125.814C82.5405 126.037 82.6132 126.434 82.3949 126.658C82.2166 126.841 81.9287 126.844 81.6735 126.835C81.3065 126.822 80.9394 126.809 80.5724 126.797C80.3599 126.789 80.1327 126.777 79.962 126.65C79.5973 126.378 79.7573 125.742 80.1489 125.511C80.5405 125.28 81.0333 125.339 81.4774 125.435ZM53.1974 122.1C55.2521 123.057 57.5094 123.475 59.7418 123.864C64.2608 124.653 68.7935 125.363 73.337 125.995C73.9728 126.083 74.677 126.208 75.0644 126.721C73.3049 126.841 71.5464 126.548 69.8072 126.255C64.0738 125.291 58.3405 124.326 52.6071 123.362C52.0062 123.261 51.2302 122.926 51.3473 122.327C51.486 121.617 52.5424 121.795 53.1974 122.1ZM88.8733 101.759C88.6737 102.561 88.7119 103.4 88.7391 104.226C88.9093 109.384 88.6038 114.558 87.8276 119.66C87.6426 120.876 88.368 122.092 89.3652 122.811C90.3624 123.529 91.5908 123.837 92.7968 124.07C95.5156 124.595 98.2938 124.81 101.061 124.71C102.113 124.672 103.209 124.575 104.109 124.027C104.961 123.509 105.538 122.646 106.047 121.787C108.205 118.142 109.62 114.059 110.18 109.859C102.418 109.824 94.7032 106.891 88.8733 101.759ZM109.173 122.209C109.703 122.384 110.233 122.559 110.763 122.735C110.939 122.793 111.129 122.861 111.234 123.015C111.411 123.275 111.239 123.656 110.965 123.81C110.691 123.965 110.358 123.956 110.044 123.944C109.472 123.921 108.84 123.873 108.44 123.462C108.041 123.051 108.178 122.164 108.749 122.127C108.894 122.118 109.036 122.164 109.173 122.209ZM136.951 122.286C137.266 122.336 137.598 122.395 137.841 122.602C138.084 122.809 138.184 123.22 137.96 123.448C137.87 123.54 137.745 123.587 137.623 123.629C137.154 123.793 136.633 123.924 136.169 123.745C135.706 123.567 135.389 122.953 135.681 122.55C135.949 122.18 136.5 122.214 136.951 122.286ZM54.5632 105.114C54.2367 105.269 53.8872 105.446 53.7259 105.77C53.6056 106.011 53.6119 106.294 53.6209 106.564C53.7429 110.238 53.8968 114.045 55.5376 117.334C55.9807 118.222 56.5443 119.077 57.3423 119.666C57.8257 120.023 58.379 120.271 58.9276 120.515C59.8797 120.94 60.8339 121.365 61.8221 121.696C64.0861 122.456 66.4823 122.713 68.8565 122.966C69.8633 123.073 70.9355 123.169 71.8387 122.71C72.9018 122.171 73.4683 121.002 73.9256 119.9C76.4757 113.752 77.9316 107.15 78.2044 100.499C78.2432 99.5533 77.0352 99.136 76.0928 99.0727C68.5703 98.567 61.3761 101.879 54.5632 105.114ZM79.3726 100.232C79.1796 100.486 79.1556 100.826 79.1365 101.145C78.6864 108.668 76.8172 116.103 73.6568 122.941C76.6678 121.415 78.9113 118.451 79.5655 115.135C79.7904 113.995 79.8365 112.828 79.8818 111.667C80.025 108.005 80.1681 104.343 80.3112 100.681C80.3188 100.488 80.3202 100.276 80.1976 100.127C79.9948 99.8802 79.5656 99.9776 79.3726 100.232ZM80.6197 118.554C81.0018 118.575 81.3609 118.734 81.7322 118.826C82.0648 118.909 82.1652 119.384 81.9796 119.672C81.7939 119.961 81.4359 120.086 81.0965 120.134C80.7422 120.184 80.3612 120.165 80.0565 119.977C79.7519 119.789 79.5542 119.397 79.6758 119.06C79.806 118.7 80.2376 118.533 80.6197 118.554ZM137.17 117.56C137.527 117.634 137.833 117.855 138.127 118.072C138.287 118.189 138.457 118.32 138.509 118.512C138.576 118.756 138.415 119.019 138.193 119.141C137.972 119.262 137.706 119.271 137.454 119.251C137.096 119.222 136.727 119.133 136.456 118.896C136.186 118.659 136.049 118.243 136.217 117.925C136.388 117.603 136.812 117.486 137.17 117.56ZM52.1823 106.184C52.0846 106.358 52.1043 106.572 52.1269 106.771L52.6577 111.452C52.9457 113.993 53.3229 116.731 55.0956 118.57C55.3912 118.43 55.2244 117.985 55.0381 117.715C53.6022 115.64 53.3256 113 53.0927 110.486C52.9562 109.012 52.8197 107.538 52.6832 106.064C52.5459 105.919 52.28 106.009 52.1823 106.184ZM146.71 115.773C151.581 115.894 156.451 116.014 161.321 116.135C162.067 116.153 162.814 116.172 163.552 116.282C163.398 116.816 162.698 116.916 162.143 116.911C157.259 116.865 152.359 116.562 147.501 117.071C147.086 117.114 146.638 117.157 146.277 116.946C145.917 116.734 145.756 116.155 146.087 115.9C146.259 115.768 146.494 115.768 146.71 115.773ZM133.329 114.815C133.437 114.85 133.546 114.887 133.634 114.959C133.925 115.196 133.817 115.703 133.519 115.932C133.221 116.161 132.82 116.187 132.444 116.197C132.054 116.206 131.598 116.175 131.376 115.854C131.096 115.45 131.428 114.852 131.891 114.689C132.353 114.525 132.863 114.662 133.329 114.815ZM136.89 113.829C137.344 113.878 137.786 114.037 138.168 114.29C138.459 114.483 138.401 114.967 138.136 115.194C137.871 115.422 137.492 115.454 137.143 115.441C136.791 115.428 136.422 115.375 136.137 115.167C135.852 114.959 135.682 114.556 135.835 114.238C136.009 113.874 136.49 113.786 136.89 113.829ZM87.8276 102.696C87.5623 106.525 87.4434 110.364 87.4713 114.202C87.4725 114.364 87.5827 114.594 87.721 114.51C88.0143 111.284 88.1582 108.044 88.1522 104.805C88.1509 104.087 88.1363 103.343 87.8276 102.696ZM82.6211 112.518C83.039 112.55 83.4076 112.793 83.7482 113.038C83.853 113.113 83.961 113.193 84.0196 113.308C84.1411 113.547 83.9955 113.854 83.7673 113.993C83.5392 114.133 83.2568 114.144 82.9898 114.131C82.3825 114.103 81.619 113.772 81.6869 113.167C81.7337 112.75 82.2033 112.487 82.6211 112.518ZM137.902 109.939C138.309 110.106 138.727 110.543 138.517 110.93C138.375 111.191 138.028 111.248 137.731 111.251C137.385 111.255 137.039 111.226 136.699 111.167C136.22 111.083 136.147 110.329 136.518 110.015C136.89 109.702 137.452 109.754 137.902 109.939ZM185.294 102.447C185.461 102.728 185.464 103.074 185.462 103.402C185.448 105.719 185.434 108.035 185.42 110.352C185.418 110.634 185.38 110.975 185.125 111.093C184.905 111.195 184.633 111.052 184.511 110.842C184.388 110.632 184.377 110.377 184.373 110.134C184.337 108.065 184.567 105.948 183.983 103.963C183.809 103.374 183.601 102.638 184.055 102.225C184.411 101.902 185.048 102.035 185.294 102.447ZM125.826 102.179C124.073 103.269 122.229 104.389 120.171 104.538C119.796 104.565 119.628 105.013 119.554 105.381C119.221 107.04 119.038 108.728 119.006 110.42C119.004 110.523 119.005 110.634 119.065 110.719C119.16 110.853 119.353 110.858 119.517 110.85C121.123 110.766 122.751 110.598 124.242 109.996C125.733 109.393 127.089 108.303 127.697 106.812C128.305 105.321 128.013 103.419 126.772 102.395C126.505 102.175 126.12 101.996 125.826 102.179ZM112.403 108.701C112.967 108.849 113.53 108.997 114.093 109.145C114.304 109.2 114.538 109.274 114.639 109.467C114.757 109.695 114.619 109.989 114.405 110.129C114.19 110.27 113.923 110.296 113.668 110.319C113.263 110.355 112.846 110.39 112.457 110.27C112.069 110.15 111.711 109.837 111.667 109.432C111.622 109.027 112.01 108.597 112.403 108.701ZM34.2598 77.8255C36.3681 78.6808 37.955 80.5309 38.9393 82.585C39.9235 84.6391 40.3717 86.904 40.7623 89.1486C41.4088 92.8636 41.9236 96.6557 41.4522 100.397C40.9808 104.138 39.4195 107.869 36.5249 110.28C38.6334 110.393 41.1509 110.31 42.2956 108.532C42.8093 107.735 43.9149 107.382 44.7947 107.734C44.2416 107.256 44.6591 106.364 45.0695 105.758C46.7514 103.275 47.9053 100.421 48.3177 97.449C49.1173 91.6863 47.107 85.846 44.1242 80.8537C42.1889 77.6146 37.6746 76.2288 34.2598 77.8255ZM84.2494 107.677C84.6845 107.849 84.5831 108.569 84.1765 108.8C83.7699 109.031 83.2631 108.927 82.81 108.812C82.5987 108.758 82.3743 108.695 82.2309 108.531C81.8959 108.147 82.2803 107.498 82.7763 107.383C83.2724 107.269 83.7757 107.49 84.2494 107.677ZM99.8901 79.9466C98.0286 79.9797 96.0746 80.207 94.5549 81.2845C94.0524 81.6408 93.5959 82.1072 93.4123 82.6958C93.2288 83.2845 93.3833 84.0078 93.8931 84.3536C95.1817 85.2276 95.7069 86.863 95.9483 88.4028C96.1898 89.9427 96.2479 91.5552 96.9484 92.9471C97.3096 93.6648 97.8277 94.2911 98.3709 94.8828C101.316 98.0907 105.158 100.464 109.343 101.66C110.078 101.87 111.014 102.325 110.859 103.075C104.839 101.811 99.3497 98.1722 95.8347 93.1165C94.7666 96.4022 92.6597 99.3407 89.8924 101.404C95.2905 106.005 102.276 108.701 109.361 108.917C109.681 108.927 110.045 108.915 110.261 108.677C110.403 108.522 110.448 108.303 110.486 108.096C111.489 102.694 112.195 97.2378 112.602 91.7589C112.741 89.8845 112.843 87.979 112.438 86.1437C112.034 84.3084 111.058 82.5243 109.462 81.5351C108.479 80.9256 107.328 80.6521 106.19 80.4487C104.113 80.0775 102 79.9091 99.8901 79.9466ZM136.878 106.234C137.366 106.234 137.982 106.377 138.067 106.858C138.152 107.338 137.607 107.695 137.124 107.757C136.771 107.802 136.388 107.759 136.108 107.539C135.828 107.319 135.698 106.889 135.892 106.59C136.092 106.284 136.513 106.234 136.878 106.234ZM172.941 96.6018C172.045 100.078 171.522 103.638 171.001 107.19C170.975 107.367 170.96 107.576 171.093 107.694C172.49 105.957 173.771 104.126 174.925 102.218C175.039 102.03 175.151 101.784 175.023 101.604C174.734 101.199 174.445 100.794 174.156 100.389C173.941 100.089 173.72 99.6924 173.908 99.3749C174.062 99.1166 174.405 99.0622 174.704 99.0347L177.158 98.8084C177.131 98.6561 177.039 98.5249 176.949 98.3994C176.292 97.4838 175.575 96.5209 174.523 96.1192C173.94 95.8967 173.097 95.9968 172.941 96.6018ZM59.3146 60.6416C57.5211 60.9432 55.5785 61.4627 54.5377 62.9565C53.9552 63.7925 53.7409 64.8249 53.5698 65.8299C52.8967 69.783 52.6865 73.815 52.9448 77.8168C60.6765 74.2136 69.7227 73.5291 77.9071 75.9281C78.6013 76.1316 79.4602 76.7482 79.0958 77.374C72.9564 75.0994 66.1182 74.7602 59.7845 76.4161C57.7351 76.9519 55.7435 77.6887 53.7057 78.2675C50.6773 79.1276 47.5496 79.6361 44.4051 79.7796C50.132 87.5682 50.8731 98.7208 46.2272 107.201C49.1178 106.653 51.8338 105.436 54.499 104.189C58.4784 102.326 62.4405 100.362 66.6675 99.1662C70.8945 97.9704 75.4648 97.5794 79.6576 98.8904C80.1481 99.0437 80.4184 98.3346 80.438 97.8204L81.3466 73.9763C81.4843 70.3643 81.4958 66.3703 79.135 63.6365C77.046 61.2174 73.6391 60.4607 70.4574 60.1886C66.7438 59.8711 62.9903 60.0237 59.3146 60.6416ZM114.707 104.897C114.824 104.974 114.945 105.071 114.973 105.208C115.029 105.488 114.689 105.666 114.416 105.744C114.018 105.857 113.608 105.97 113.198 105.926C112.787 105.883 112.369 105.647 112.234 105.255C112.098 104.864 112.37 104.351 112.783 104.343C113.46 104.331 114.14 104.527 114.707 104.897ZM173.025 89.8934C171.53 90.7334 169.743 91.0404 168.053 90.7474C168.269 91.3511 169.217 91.5616 169.222 92.2029C169.224 92.5934 168.857 92.8682 168.648 93.198C168.488 93.4518 168.418 93.7512 168.354 94.0448C167.752 96.8058 167.407 99.6227 167.323 102.448C167.309 102.934 167.43 103.577 167.913 103.63C168.914 103.74 169.857 104.302 170.43 105.131C170.9 102.17 171.37 99.2077 171.84 96.2459C171.949 95.5587 172.041 94.7911 171.639 94.2236C171.085 93.4428 171.567 92.3732 172.052 91.5482L173.025 89.8934ZM83.9747 102.695C84.4851 102.797 85.0659 103.239 84.8725 103.723C84.7534 104.021 84.3936 104.142 84.0733 104.159C83.7531 104.176 83.4199 104.128 83.12 104.242C82.767 104.376 82.3514 104.063 82.3084 103.687C82.2653 103.312 82.5259 102.947 82.8656 102.782C83.2053 102.617 83.6045 102.621 83.9747 102.695ZM136.871 102.238C137.193 102.282 137.533 102.353 137.767 102.579C138.001 102.804 138.066 103.234 137.816 103.442C137.734 103.511 137.63 103.548 137.528 103.582C137.086 103.734 136.613 103.882 136.16 103.769C135.706 103.657 135.312 103.175 135.469 102.734C135.65 102.226 136.338 102.164 136.871 102.238ZM166.166 96.1489C165.825 96.2312 165.577 96.516 165.352 96.7855L163.999 98.4088C163.734 98.7261 164.2 99.1682 164.611 99.2027C165.022 99.2372 165.502 99.1404 165.795 99.4318C166.101 99.7371 165.975 100.269 165.724 100.622C165.473 100.974 165.117 101.262 164.965 101.668C164.738 102.274 165.114 103.034 165.732 103.22C166.069 103.322 166.54 103.166 166.543 102.814C166.56 100.759 166.68 98.705 166.902 96.662C166.94 96.313 166.507 96.0667 166.166 96.1489ZM97.4976 97.1695C97.7568 97.342 97.9246 97.6182 98.0974 97.8774C99.5821 100.104 102.065 101.635 104.719 101.958C105.333 102.033 106.057 102.108 106.365 102.645C105.787 103.219 104.844 103.149 104.052 102.964C101.242 102.309 98.6678 100.683 96.8668 98.4263C96.5796 98.0664 96.3173 97.5188 96.6377 97.1881C96.8544 96.9643 97.2384 96.9969 97.4976 97.1695ZM164.707 87.3295C162.722 87.8178 160.741 88.507 159.133 89.7694C157.525 91.0318 156.329 92.95 156.341 94.9965C156.357 97.5918 155.084 100.164 153.012 101.722L156.501 102.133C156.909 102.181 157.367 102.216 157.687 101.957C158.155 101.578 158.035 100.851 157.917 100.26C157.799 99.6692 157.825 98.8882 158.386 98.6709C159.083 98.4011 159.66 99.3695 159.554 100.11C159.449 100.851 159.019 101.564 159.154 102.3C160.806 102.535 162.463 102.733 164.124 102.894C163.794 102.622 163.758 102.107 163.925 101.713C164.092 101.319 164.417 101.017 164.732 100.728C165.068 100.421 164.584 99.8782 164.131 99.8294C163.678 99.7805 163.146 99.8896 162.826 99.5643C162.429 99.1597 162.727 98.4815 163.066 98.0267C163.723 97.1443 164.537 96.0807 164.114 95.0647C163.083 92.5871 163.31 89.6206 164.707 87.3295ZM88.6165 80.5596C88.34 87.3422 88.3779 94.1376 88.7299 100.917C91.3165 99.5108 93.2065 97.037 94.3785 94.3332C95.0936 92.6836 95.5723 90.8655 95.2864 89.09C95.0732 87.766 94.4474 86.5429 93.7198 85.4171C92.429 83.42 90.744 81.6173 88.6165 80.5596ZM148.594 77.3101C149.523 77.1387 150.233 78.2873 150.075 79.22C149.917 80.1528 149.24 80.8944 148.702 81.6721C147.959 82.7467 147.45 83.9632 146.948 85.1695C145.751 88.0397 145.286 91.212 145.607 94.3056C145.795 96.127 146.294 97.9978 147.523 99.353C148.753 100.708 150.86 101.386 152.48 100.538C153.872 99.8091 154.566 98.203 154.885 96.6631C155.204 95.1232 155.261 93.5112 155.864 92.059C156.976 89.38 159.719 87.7615 162.432 86.7454C158.354 86.1904 154.663 83.3438 153.086 79.5356C152.633 78.4435 152.294 77.2122 151.355 76.4952C150.417 75.7782 148.649 76.129 148.594 77.3101ZM114.118 99.1591C114.405 99.2142 114.686 99.2977 114.957 99.408C115.403 99.5899 115.883 100.093 115.596 100.481C115.439 100.693 115.137 100.718 114.874 100.725C114.394 100.737 113.877 100.739 113.484 100.461C113.092 100.183 112.957 99.5114 113.352 99.2385C113.569 99.0886 113.859 99.1093 114.118 99.1591ZM135.741 98.0142C136.13 98.0471 136.516 98.1011 136.899 98.1758C137.088 98.2127 137.292 98.2642 137.411 98.4162C137.592 98.6466 137.478 99.0079 137.25 99.191C137.022 99.3741 136.719 99.4256 136.43 99.4709C135.989 99.54 135.518 99.6056 135.111 99.4216C134.704 99.2376 134.426 98.6987 134.675 98.3273C134.892 98.0034 135.353 97.9813 135.741 98.0142ZM24.7321 95.922C24.4032 95.9184 24.2894 96.3582 24.2994 96.6875C24.3281 97.6339 24.5193 98.5751 24.8622 99.4574C24.9577 99.555 25.0685 99.3514 25.0552 99.2155L24.7321 95.922ZM87.9328 98.3585C87.7275 98.47 87.6494 98.7655 87.7726 98.9642L87.7775 98.9714L87.7731 98.9763C87.7676 98.9828 87.7617 98.9907 87.7554 99.0001C87.6729 99.1253 87.7886 99.3239 87.938 99.3134C88.0391 99.0057 88.0372 98.6651 87.9328 98.3585ZM83.6579 97.0191C84.103 97.1177 84.5861 97.4877 84.4754 97.9306C84.402 98.224 84.0937 98.3962 83.7989 98.4618C83.5041 98.5275 83.1924 98.5231 82.9109 98.6326C82.5528 98.772 82.1216 98.4827 82.0478 98.1051C81.9741 97.7275 82.205 97.3333 82.5383 97.1419C82.8715 96.9504 83.2828 96.936 83.6579 97.0191ZM86.2335 34.5442C86.2594 54.9619 86.7277 75.3791 87.638 95.7764L87.7337 97.8854L87.7482 97.207C87.7744 95.6216 87.7512 94.0356 87.728 92.45C87.4563 73.8647 87.1845 55.2794 86.9128 36.6942C86.9014 35.916 86.8402 35.0303 86.2335 34.5442ZM115.389 94.0334C115.638 94.1083 115.889 94.2218 116.051 94.4264C116.213 94.6309 116.259 94.9452 116.099 95.1511C115.944 95.3505 115.663 95.3882 115.411 95.4106L114.339 95.5059C114.164 95.5215 113.975 95.5345 113.823 95.4462C113.7 95.3749 113.618 95.2449 113.581 95.1075C113.468 94.6938 113.748 94.2449 114.134 94.0606C114.52 93.8762 114.979 93.9105 115.389 94.0334ZM29.0047 78.0507C27.8897 79.1481 27.3098 80.6651 26.7739 82.136C25.2808 86.2346 23.8619 90.585 24.5987 94.885C24.8265 94.9269 24.935 94.6164 24.9519 94.3851C25.2548 90.2366 26.0824 86.1269 27.4087 82.1852C27.9148 80.6812 28.5234 79.1539 29.6476 78.0354C29.6322 77.763 29.199 77.8595 29.0047 78.0507ZM166.078 87.0168C165.884 87.0647 165.758 87.2484 165.656 87.4212C164.697 89.052 164.245 90.9777 164.379 92.8659C164.434 93.6455 164.685 94.5436 165.412 94.8278C166.003 94.2595 166.594 93.6911 167.185 93.1228C167.278 93.0325 167.375 92.939 167.426 92.8195C167.556 92.5205 167.371 92.1869 167.2 91.9091C166.358 90.5363 165.726 88.7965 166.427 87.3466C166.514 87.1662 166.273 86.9689 166.078 87.0168ZM178.358 85.2572C178.264 85.3065 178.191 85.388 178.12 85.4678C176.376 87.4441 174.691 89.4732 173.069 91.5515C172.73 91.9855 172.377 92.4751 172.41 93.025C172.44 93.5138 172.783 93.9397 173.199 94.1969C173.615 94.4541 174.1 94.5712 174.575 94.6847C174.703 94.715 174.841 94.7446 174.961 94.6915C175.071 94.6427 175.141 94.5345 175.204 94.4319C176.197 92.828 177.204 91.1923 177.673 89.3644C177.773 88.9745 178.111 88.7023 178.38 88.4039C178.91 87.8178 179.221 87.0372 179.238 86.2467C179.244 85.979 179.213 85.6967 179.059 85.4783C178.904 85.2599 178.595 85.1333 178.358 85.2572ZM135.87 93.0803C136.111 93.14 136.376 93.2313 136.483 93.4546C136.673 93.8482 136.228 94.2586 135.811 94.3877C135.487 94.4879 135.127 94.5226 134.817 94.3869C134.507 94.2511 134.272 93.9087 134.342 93.5772C134.467 92.9887 135.287 92.9355 135.87 93.0803ZM84.0558 92.2211C84.1693 92.3229 84.2745 92.4427 84.3175 92.5891C84.4041 92.8836 84.1987 93.2084 83.917 93.3295C83.6354 93.4506 83.3064 93.4038 83.0226 93.2879C82.7237 93.1658 82.4325 92.9324 82.3945 92.6113C82.351 92.2441 82.6831 91.9061 83.0485 91.853C83.4138 91.7999 83.7808 91.9744 84.0558 92.2211ZM116.388 88.9926C116.679 89.1116 116.71 89.5535 116.509 89.796C116.308 90.0386 115.972 90.1194 115.659 90.1459C115.345 90.1724 115.02 90.1607 114.727 90.2757C114.277 90.4523 113.787 89.9073 113.894 89.4349C114.002 88.9625 114.508 88.6689 114.991 88.6464C115.474 88.6238 115.94 88.8098 116.388 88.9926ZM135.37 88.2822C135.784 88.3025 136.193 88.4112 136.561 88.5989C136.722 88.6804 136.887 88.793 136.932 88.9669C137.026 89.3251 136.578 89.571 136.215 89.6409C135.893 89.7028 135.566 89.7396 135.239 89.751C134.834 89.7651 134.347 89.687 134.186 89.3153C134.06 89.0266 134.213 88.6725 134.469 88.49C134.725 88.3076 135.057 88.2667 135.37 88.2822ZM162.018 61.8388C159.606 62.2286 157.184 62.5516 154.755 62.8074C152.995 62.9928 151.338 63.9928 150.352 65.4642C150.149 65.7665 150.01 66.2489 150.322 66.4343C151.208 65.4111 152.41 64.6666 153.719 64.3302C154.187 64.21 154.7 64.1444 155.141 64.3413C155.582 64.5383 155.898 65.0806 155.698 65.5213C155.391 66.198 154.413 66.0088 153.673 65.9635C151.613 65.8377 149.832 68.1987 150.515 70.1488C150.995 68.2872 153.648 67.479 155.135 68.6943C156.623 69.9097 156.441 72.5789 154.85 73.6549C154.325 74.0104 153.65 74.2583 153.41 74.8465C153.204 75.3507 153.402 75.9202 153.599 76.4277C153.909 77.2244 154.219 78.021 154.528 78.8177C155.177 80.4879 155.867 82.2191 157.181 83.4357C158.192 84.3712 159.502 84.9278 160.839 85.2542C165.659 86.4308 171.085 84.5582 174.158 80.6573C174.404 80.3447 174.966 80.6413 175.01 81.0371C175.054 81.4328 174.784 81.7888 174.517 82.0835C173.141 83.6007 171.406 84.7895 169.496 85.5247C168.593 85.8722 167.52 86.2481 167.242 87.1763C167.013 87.9449 167.496 88.7943 168.191 89.1943C168.885 89.5943 169.731 89.6281 170.528 89.5409C172.116 89.3669 173.652 88.7443 174.914 87.7634C175.297 87.4661 175.667 87.1185 175.837 86.6644C175.998 86.2342 175.962 85.7586 175.923 85.3009L175.889 84.9075C175.74 83.201 175.547 81.4745 174.852 79.914C174.518 79.1633 174.071 78.46 173.825 77.6759C173.522 76.7089 173.54 75.6716 173.336 74.6788C173.133 73.686 172.616 72.6548 171.673 72.2888C171.922 71.6545 172.544 71.2553 172.947 70.7058C173.349 70.1562 173.408 69.1962 172.774 68.9479C172.471 68.8292 172.126 68.9315 171.837 69.0818C170.62 69.7151 169.963 71.2649 170.354 72.5821C170.609 73.4417 169.253 74.0184 168.523 73.4992C167.793 72.9799 167.613 71.9912 167.469 71.1061C166.911 67.6751 165.792 63.9762 162.866 62.106C162.61 61.9425 162.317 61.7904 162.018 61.8388ZM83.8001 86.1766C84.1847 86.3016 84.5683 86.6477 84.4882 87.0446C84.4126 87.4199 83.9814 87.5957 83.6046 87.6603C83.0701 87.7519 82.3732 87.6469 82.223 87.125C82.08 86.6284 82.599 86.1526 83.1121 86.0982C83.3433 86.0737 83.579 86.1047 83.8001 86.1766ZM145.481 79.0302C145.123 79.3706 144.948 79.8566 144.785 80.3237C144.418 81.3776 144.045 82.4623 144.088 83.5779C144.115 84.2961 143.699 84.9429 143.402 85.5972C143.105 86.2515 142.944 87.0894 143.409 87.6363C144.521 86.7001 144.788 85.1239 145.032 83.6899C145.325 81.9754 145.722 80.1981 146.829 78.8581C146.442 78.551 145.84 78.6898 145.481 79.0302ZM116.188 83.8084C116.474 83.9006 116.798 84.0848 116.802 84.3859C116.806 84.752 116.356 84.9205 115.997 84.9864C115.816 85.0194 115.636 85.0524 115.456 85.0855C114.996 85.1697 114.504 85.2504 114.077 85.061C113.65 84.8716 113.366 84.2942 113.644 83.9188C113.825 83.6761 114.156 83.6099 114.458 83.5912C115.041 83.5551 115.632 83.6291 116.188 83.8084ZM74.4123 78.5199C74.915 78.7607 75.4773 79.2352 75.2912 79.7613C70.1125 78.6304 64.5799 79.1897 59.7313 81.3344C57.5495 82.2995 55.5016 83.5755 53.2436 84.3447C52.4711 84.6079 51.6278 84.8099 50.8474 84.5713C50.067 84.3326 49.4162 83.5032 49.6445 82.7185C49.8588 81.9819 50.6776 81.6319 51.4031 81.3859C54.9787 80.1734 58.6166 79.1451 62.2976 78.3065C66.3139 77.3914 70.6966 76.7397 74.4123 78.5199ZM148.772 78.4578C148.402 78.4563 148.091 78.728 147.848 79.0071C147.258 79.684 146.839 80.4959 146.527 81.3382C146.139 82.3848 145.91 83.49 145.85 84.6045C146.921 82.7594 148.065 80.9574 149.281 79.2043C149.492 78.9001 149.141 78.4593 148.772 78.4578ZM142.21 81.7449C142.108 81.7455 142.001 81.7492 141.916 81.8036C141.723 81.9261 141.75 82.2122 141.807 82.4336C141.988 83.1359 142.239 83.8201 142.555 84.4728C142.745 83.553 143.05 82.6571 143.46 81.8125C143.045 81.765 142.627 81.7424 142.21 81.7449ZM61.0607 79.3738C57.9953 80.3175 54.93 81.2612 51.8647 82.2049C51.4985 82.3176 51.0736 82.4917 50.9956 82.8674C51.2448 83.2316 51.7195 83.3862 52.1599 83.3648C52.6002 83.3435 53.0182 83.1742 53.4263 83.0071C56.5361 81.7344 59.6459 80.4617 62.7558 79.1889C62.2004 79.0335 61.6119 79.2041 61.0607 79.3738ZM93.408 81.0962C93.2433 81.3823 92.9006 81.5037 92.6438 81.7107C92.387 81.9178 92.2363 82.3633 92.5075 82.5511C92.9227 82.1347 93.3379 81.7183 93.7531 81.3019C93.6672 81.1954 93.5425 81.121 93.408 81.0962ZM125.75 80.8747C127.979 81.1071 130.227 81.2259 132.459 81.0333C133.036 80.9834 133.727 80.9601 134.069 81.4283C133.637 81.8696 132.957 81.9229 132.34 81.9494C130.023 82.0488 127.707 82.1481 125.39 82.2475C124.938 82.2669 124.366 82.2093 124.219 81.7807C124.104 81.4432 124.366 81.071 124.695 80.9356C125.025 80.8002 125.396 80.8378 125.75 80.8747ZM160.198 78.4361C160.737 79.093 160.934 80.0171 160.709 80.8372C160.654 81.0396 160.573 81.2381 160.444 81.4033C160.105 81.8367 159.479 81.9648 158.945 81.8365C158.41 81.7083 157.952 81.3674 157.545 80.9984C157.124 80.6181 156.73 80.1847 156.528 79.6546C156.326 79.1244 156.35 78.4793 156.708 78.0396C157.003 77.6771 157.479 77.5033 157.945 77.4691C158.792 77.4071 159.659 77.7792 160.198 78.4361ZM85.0856 79.9633C85.2985 80.1355 85.2628 80.4935 85.081 80.6984C84.8993 80.9034 84.6221 80.9908 84.3565 81.0572C84.0429 81.1355 83.7131 81.1968 83.3987 81.1219C83.0843 81.047 82.7895 80.8027 82.7508 80.4813C82.6947 80.015 83.1819 79.6502 83.6451 79.577C84.1507 79.4972 84.6874 79.6411 85.0856 79.9633ZM157.731 78.5908C157.495 78.897 157.65 79.4493 158.033 79.5016C158.475 79.5621 158.818 80.0273 158.747 80.4684C158.691 80.8147 159.113 81.1041 159.447 81.0001C159.782 80.8961 159.975 80.5206 159.968 80.1699C159.961 79.8191 159.794 79.4922 159.604 79.1972C159.395 78.8719 159.14 78.556 158.787 78.3977C158.435 78.2393 157.967 78.2847 157.731 78.5908ZM156.554 47.1498C153.342 47.7392 150.16 49.1446 148.088 51.673C146.016 54.2015 145.3 57.9856 146.919 60.826C147.492 61.8297 148.365 62.705 149.464 63.0583C150.563 63.4116 151.892 63.1516 152.625 62.2589C153.457 61.2463 155.135 62.2175 156.387 61.8331C158.118 61.3014 159.917 60.9929 161.726 60.9176C162.156 60.8997 162.598 60.897 162.998 61.0525C163.433 61.2213 163.776 61.5596 164.106 61.8891C165.251 63.0319 166.42 64.2078 167.098 65.6777C168.173 68.0087 167.907 70.8509 169.265 73.0286C169.424 71.663 169.582 70.2974 169.741 68.9318C169.8 68.4251 169.866 67.8989 170.139 67.4685C170.413 67.0381 170.959 66.7361 171.438 66.9102C172.282 67.2175 173.162 67.5474 173.768 68.2118C174.374 68.8761 174.598 69.9834 174.015 70.6684C173.452 71.3304 174.091 72.2871 174.39 73.1036C174.908 74.518 174.299 76.1343 174.706 77.5847C175.043 78.7861 176.018 79.6832 176.949 80.5127C177.221 80.7553 177.538 81.0138 177.901 80.9807C178.205 80.953 178.449 80.7261 178.657 80.5022C179.894 79.1664 180.741 77.4725 181.069 75.6802C181.201 74.957 180.95 73.9034 180.223 74.0022C180.422 72.2671 182.014 71.0851 182.949 69.6111C183.958 68.0213 184.196 66.0665 184.242 64.1835C184.288 62.2909 184.104 60.2341 182.845 58.8223C181.332 57.1261 178.393 56.9994 176.74 58.559C176.328 58.9479 175.785 59.4617 175.294 59.1804C175.679 58.4882 176.064 57.7961 176.449 57.104C177.077 55.976 177.718 54.8071 177.846 53.5221C178.097 50.9867 176.171 48.5861 173.788 47.6945C171.405 46.8029 168.715 47.1726 166.324 48.0446C165.725 48.2632 165.018 48.7326 165.18 49.3502C165.274 49.7078 165.636 49.9237 165.821 50.2435C165.937 50.4428 165.926 50.5067 165.795 50.668C165.716 50.7654 165.573 51.0475 165.446 50.9925C164.09 49.4205 162.625 47.7747 160.638 47.1802C159.321 46.7861 157.906 46.9018 156.554 47.1498ZM141.164 79.5711C140.994 79.4706 140.67 79.4046 140.702 79.5992C140.793 80.0754 141.221 80.4295 141.683 80.5751C142.145 80.7207 142.641 80.6961 143.124 80.6701C143.313 80.66 143.515 80.6453 143.665 80.5302C143.791 80.4337 143.861 80.282 143.925 80.1366C144.035 79.8875 144.145 79.6384 144.255 79.3893C143.357 78.8037 142.086 80.1185 141.164 79.5711ZM115.219 77.9446C115.597 77.973 115.972 78.0391 116.337 78.1415C116.653 78.2302 117.016 78.4156 117.032 78.7441C117.053 79.1766 116.491 79.3532 116.06 79.3905C115.622 79.4284 115.184 79.4664 114.746 79.5043C114.426 79.5319 114.065 79.5461 113.83 79.3275C113.515 79.034 113.642 78.4646 113.984 78.2021C114.325 77.9396 114.79 77.9124 115.219 77.9446ZM125.468 77.8506C127.564 78.1316 129.689 78.1994 131.799 78.0525C132.046 78.0353 132.316 78.0207 132.52 78.1625C132.723 78.3042 132.774 78.6696 132.552 78.7796C132.484 78.8129 132.406 78.8164 132.331 78.8193C129.781 78.9157 127.23 79.0121 124.68 79.1085C124.447 79.1173 124.191 79.1185 124.012 78.9694C123.692 78.7024 123.876 78.1313 124.243 77.9341C124.61 77.7369 125.055 77.7952 125.468 77.8506ZM145.82 75.7697C145.006 75.8137 144.177 75.8893 143.425 76.2056C142.673 76.5219 141.999 77.117 141.774 77.9023C141.729 78.0617 141.712 78.2579 141.834 78.3698C141.929 78.457 142.072 78.4583 142.201 78.4532C143.553 78.3999 144.9 78.1982 146.209 77.8527C146.86 77.6809 147.645 77.2665 147.557 76.5982C147.51 76.2463 147.207 75.9713 146.872 75.8548C146.538 75.7382 146.174 75.7507 145.82 75.7697ZM51.8792 75.6714C51.7493 76.3597 51.7176 77.0665 51.7852 77.7637C51.9534 77.9457 52.1748 77.5905 52.1606 77.3429C52.1281 76.7777 52.0336 76.216 51.8792 75.6714ZM95.4346 74.8295C100.123 75.0418 104.812 75.254 109.501 75.4663C109.938 75.4861 110.52 75.654 110.494 76.092C109.934 76.452 109.212 76.3775 108.552 76.3004C104.372 75.8126 100.144 75.7452 95.951 76.0996C95.5891 76.1302 95.2047 76.1598 94.8816 75.9934C94.5585 75.8271 94.3502 75.3837 94.56 75.0866C94.7434 74.8267 95.1171 74.8151 95.4346 74.8295ZM84.0652 74.337C84.2715 74.3682 84.4863 74.4222 84.6362 74.5676C84.9788 74.9001 84.7672 75.5322 84.3552 75.7731C83.9432 76.014 83.4329 75.9802 82.9576 75.939C82.436 75.8939 82.2668 75.1102 82.6094 74.7136C82.952 74.3171 83.5476 74.2587 84.0652 74.337ZM100.556 72.5998C108.197 72.9969 115.839 73.394 123.48 73.791C123.89 73.8123 124.431 73.97 124.41 74.38C123.15 74.6073 121.845 74.582 120.594 74.306L121.705 75.263C121.175 75.5973 120.611 75.9425 119.986 75.9564C119.36 75.9702 118.679 75.5083 118.697 74.8817C119.013 74.7354 119.33 74.5891 119.647 74.4427C113.474 73.913 107.272 73.7197 101.078 73.864C100.721 73.8723 100.339 73.8755 100.037 73.6836C99.7355 73.4916 99.5828 73.025 99.8327 72.7689C100.011 72.5858 100.301 72.5865 100.556 72.5998ZM150.035 73.6234C149.76 73.6385 149.526 73.8216 149.313 73.9966C149.06 74.2039 148.807 74.4113 148.554 74.6186C148.289 74.8358 148.002 75.0951 147.986 75.4377C147.978 75.6237 148.119 75.8444 148.3 75.8026C148.351 75.7909 148.395 75.7603 148.437 75.7303C149.04 75.3045 149.643 74.8788 150.245 74.453C150.368 74.3661 150.499 74.2678 150.539 74.1225C150.612 73.8561 150.311 73.6083 150.035 73.6234ZM159.409 71.3932C159.433 72.0141 159.125 72.5959 159.016 73.2075C158.906 73.8191 159.115 74.5979 159.719 74.7411C159.897 74.7833 159.948 75.0385 159.848 75.1916C159.747 75.3447 159.557 75.4108 159.377 75.4435C158.818 75.5453 158.156 75.3655 157.899 74.8577C157.77 74.6035 157.76 74.3077 157.753 74.0228C157.733 73.2599 157.714 72.497 157.694 71.7342C157.681 71.2126 157.739 70.5703 158.216 70.3598C158.783 70.1091 159.385 70.7723 159.409 71.3932ZM151.097 74.8539C150.987 74.9053 150.912 75.0246 150.913 75.1464L150.885 75.1535C150.947 75.2895 151.167 75.3107 151.253 75.1889C151.339 75.0672 151.245 74.8664 151.097 74.8539ZM150.043 70.8667C149.79 70.8731 149.507 70.9192 149.358 71.1234C149.198 71.3419 149.263 71.6625 149.427 71.8777C149.591 72.093 149.833 72.2314 150.059 72.3806C151.009 73.0088 151.768 73.9239 152.211 74.9751C152.512 74.5784 152.813 74.1818 153.114 73.7851C153.338 73.4888 153.575 73.15 153.528 72.7809C153.494 72.5144 153.315 72.2902 153.125 72.1001C152.321 71.2944 151.18 70.8377 150.043 70.8667ZM53.1277 64.7294C52.7742 64.7583 52.5911 65.1558 52.48 65.4931C52.3107 66.007 52.1414 66.5209 51.9721 67.0348C51.7872 67.5963 51.6009 68.164 51.5502 68.7531C51.5165 69.1435 51.5432 69.5362 51.5698 69.9271C51.6529 71.1479 51.7361 72.3687 51.8192 73.5895C51.8353 73.8255 52.0146 74.1514 52.2094 74.0178C52.1285 70.8995 52.4378 67.7712 53.1277 64.7294ZM153.085 69.2183C152.764 69.3406 152.423 69.5558 152.377 69.8965C152.33 70.2372 152.831 70.5534 153.025 70.2698C153.273 69.908 153.893 70.0969 154.098 70.4848C154.303 70.8727 154.242 71.3392 154.239 71.778C154.236 72.2168 154.337 72.7203 154.719 72.9352C154.783 72.3482 154.847 71.7612 154.911 71.1742C154.99 70.4495 154.985 69.5507 154.35 69.1961C153.969 68.9838 153.492 69.0629 153.085 69.2183ZM163.386 68.8866C163.906 68.9099 164.462 69.0916 164.747 69.5289C165.032 69.9662 164.881 70.6824 164.379 70.8232C163.663 71.0241 162.993 70.0133 162.293 70.2643C161.855 70.4212 161.585 71.038 161.128 70.9495C160.845 70.8947 160.688 70.5549 160.745 70.2716C160.801 69.9883 161.012 69.7615 161.238 69.5822C161.841 69.1041 162.618 68.8524 163.386 68.8866ZM83.6525 68.3703C84.1544 68.4516 84.6458 69.002 84.3813 69.4369C84.307 69.559 84.1862 69.6457 84.0599 69.7123C83.7469 69.8773 83.3607 69.9334 83.0376 69.7895C82.7144 69.6456 82.487 69.2721 82.5745 68.9288C82.6844 68.4974 83.2138 68.2993 83.6525 68.3703ZM164.202 65.508C164.547 65.837 164.817 66.4565 164.43 66.7356C164.021 67.0309 163.531 66.5325 163.139 66.2141C162.702 65.8583 162.11 65.7013 161.554 65.7939C161.198 65.8531 160.864 66.0078 160.507 66.0596C160.15 66.1115 159.735 66.0295 159.541 65.7257C159.337 65.4071 159.467 64.956 159.747 64.7026C160.028 64.4491 160.418 64.3564 160.795 64.3219C162.029 64.2088 163.304 64.6525 164.202 65.508ZM83.6352 64.4997C83.9434 64.6807 84.1094 65.1075 83.9379 65.4214C83.7113 65.8362 83.1171 65.8306 82.659 65.7166C82.494 65.6755 82.3204 65.6213 82.2112 65.4908C81.9505 65.1793 82.2428 64.6907 82.6067 64.5109C82.9271 64.3525 83.327 64.3187 83.6352 64.4997Z" fill="#00160A"/>
<path fill-rule="evenodd" clip-rule="evenodd" d="M42.2679 106.216C42.31 106.334 42.3489 106.465 42.3007 106.579C42.2143 106.785 41.933 106.793 41.71 106.792C40.1416 106.779 38.6835 108.128 38.5721 109.695C38.5603 109.861 38.3332 109.937 38.1862 109.86C38.0393 109.783 37.9636 109.618 37.9128 109.46C37.6262 108.569 37.8109 107.571 38.2677 106.755C38.7245 105.939 39.4313 105.288 40.1992 104.755C40.4971 104.548 40.868 104.35 41.205 104.483C41.4277 104.572 41.5731 104.784 41.6944 104.991C41.9228 105.381 42.115 105.791 42.2679 106.216ZM41.3569 106.038C41.2188 105.615 40.6586 105.463 40.2401 105.613C39.8216 105.762 39.5164 106.118 39.2316 106.46C38.9617 106.784 38.6792 107.137 38.6474 107.558C39.369 106.792 40.3281 106.254 41.3569 106.038Z" fill="#FFB61D"/>
</svg>
