<svg width="65" height="65" viewBox="0 0 65 65" fill="none" xmlns="http://www.w3.org/2000/svg">
<circle cx="32.1278" cy="32.128" r="32" transform="rotate(0.229651 32.1278 32.128)" fill="#D5C6FF"/>
<path d="M32.1026 47.2335L32.0989 50.7264H26.685C25.8531 49.4127 28.4383 48.1453 28.4383 48.1453L28.2689 47.2335H32.1026ZM32.1026 47.2336L32.1046 50.7264H37.5186C38.3505 49.4127 35.7652 48.1455 35.7652 48.1455L35.9357 47.2336H32.1026ZM31.9752 20.0627H32.2272C33.4513 20.0627 34.453 19.061 34.453 17.8369V16.2261C34.453 15.0017 33.4513 14 32.227 14H31.9752C30.7508 14 29.7492 15.0017 29.7492 16.2261V17.8366C29.7492 19.0609 30.7508 20.0627 31.9752 20.0627Z" stroke="#080212" stroke-width="1.0836" stroke-linecap="round" stroke-linejoin="round"/>
<path d="M19.938 22.0258L16.8223 20.457C16.8223 20.457 15.0766 21.9659 16.6722 23.6566L19.9371 25.297M44.268 25.297L47.5329 23.6566C49.1284 21.9659 47.3827 20.457 47.3827 20.457L44.2671 22.0258L44.268 25.297ZM28.0981 22.5981L32.0999 26.7266L36.1042 22.5981H28.0981ZM33.5842 25.1714L34.8931 47.1509L33.5842 25.1714ZM30.7121 25.2689L29.4094 47.1509L30.7121 25.2689Z" stroke="#080212" stroke-width="1.0836" stroke-linecap="round" stroke-linejoin="round"/>
<path d="M36.6189 29.1684C41.5779 29.1994 44.2672 30.3787 44.2672 30.3787L44.2655 22.0254L41.9723 23.1803L36.1056 22.5263L28.0995 22.5269L22.2329 23.181L19.9397 22.026L19.938 30.3794C19.938 30.3794 22.6273 29.2 27.5863 29.169" stroke="#080212" stroke-width="1.0836" stroke-linecap="round" stroke-linejoin="round"/>
</svg>
