<svg width="28" height="29" viewBox="0 0 28 29" fill="none" xmlns="http://www.w3.org/2000/svg">
<path d="M20.0001 21.1199V8.50147H21.9998V21.1199H20.0001ZM21 5.11987L22 8.50147H21H20L21 5.11987Z" stroke="#080212" stroke-width="0.77056" stroke-linecap="round" stroke-linejoin="round"/>
<path d="M22 21.1199V23.1199H20V21.1199H22Z" stroke="#261F56" stroke-width="0.77056" stroke-linecap="round" stroke-linejoin="round"/>
<path d="M9 21.1199V22.9938C9.46055 23.377 9.97825 23.777 10.4355 24.1199C11.0137 23.7627 11.4722 23.4056 11.9578 22.9938C11.9578 22.4342 12.0527 21.5575 11.9578 21.1199" stroke="#261F56" stroke-width="0.77056" stroke-linecap="round" stroke-linejoin="round"/>
<path d="M15.4337 21.1199H6V5.11987H15.4337C16.2987 5.11987 17 5.87121 17 6.79799V19.4418C17 20.3685 16.2987 21.1199 15.4337 21.1199Z" stroke="#080212" stroke-width="0.77056" stroke-linecap="round" stroke-linejoin="round"/>
<path d="M5 18.4636H6.47112M14 21.1199V5.11987V21.1199ZM5 7.77612H6.47112H5ZM5 10.448H6.47112H5ZM5 13.1199H6.47112H5ZM5 15.7917H6.47112H5Z" stroke="#261F56" stroke-width="0.77056" stroke-linecap="round" stroke-linejoin="round"/>
</svg>
