<svg width="28" height="29" viewBox="0 0 28 29" fill="none" xmlns="http://www.w3.org/2000/svg">
<path d="M11 22.1199L10.9253 25.1199L9.44831 23.5666L8 25.0894L8.02398 22.1353" stroke="#261F56" stroke-width="0.9" stroke-linecap="round" stroke-linejoin="round"/>
<path d="M18 8.11987V5.19396C18 5.19396 11.3139 5.16987 7.90828 5.12021C6.26759 5.09627 5.97663 6.3704 6.0014 6.80792" stroke="#121331" stroke-width="0.9" stroke-linecap="round" stroke-linejoin="round"/>
<path d="M18 18.1199L18.0015 15.1199" stroke="#08A88A" stroke-width="0.9" stroke-linecap="round" stroke-linejoin="round"/>
<path d="M18 8.63897C18 8.63897 9.64695 8.64845 7.94661 8.63842C5.99382 8.62691 6.02465 7.11987 6.02465 7.11987L6 20.3283C6 20.3283 6.07389 22.0916 7.99586 22.1148C8.93213 22.1262 18 22.1148 18 22.1148V8.63897Z" stroke="#080212" stroke-width="0.9" stroke-linecap="round" stroke-linejoin="round"/>
<path d="M16.7364 7.15562V7.12554C16.7364 7.12554 11.9205 7.12425 9 7.11987" stroke="#08A88A" stroke-width="0.9" stroke-linecap="round" stroke-linejoin="round"/>
<path d="M16.3746 6.73024C16.3746 6.73024 11.2552 6.72889 8.37207 6.72412" stroke="#261F56" stroke-width="0.9" stroke-linecap="round" stroke-linejoin="round"/>
</svg>
