<svg width="28" height="28" viewBox="0 0 28 28" fill="none" xmlns="http://www.w3.org/2000/svg">
<path d="M12.6895 13.1632C13.0157 12.699 13.5553 12.3979 14.167 12.3979C14.6783 12.3979 15.1427 12.611 15.4689 12.953M4.04639 14.0292H4.98719M23.0682 14.0292H24.009M23.1058 13.9629C23.1058 16.1084 21.3663 17.8477 19.2208 17.8477C17.0753 17.8477 15.336 16.1084 15.336 13.9629C15.336 11.8174 17.0753 10.0779 19.2208 10.0779C21.3663 10.0779 23.1058 11.8174 23.1058 13.9629ZM12.7714 13.9629C12.7714 16.1084 11.0318 17.8477 8.88636 17.8477C6.74083 17.8477 5.00152 16.1084 5.00152 13.9629C5.00152 11.8174 6.74088 10.0779 8.88636 10.0779C11.0318 10.0779 12.7714 11.8174 12.7714 13.9629Z" stroke="#080212" stroke-width="0.9" stroke-linecap="round" stroke-linejoin="round"/>
<rect x="8.27051" y="13.104" width="0.875" height="1.792" rx="0.4375" fill="#261F56"/>
<rect x="18.8545" y="13.104" width="0.875" height="1.792" rx="0.4375" fill="#261F56"/>
</svg>
